<?xml version="1.0" standalone="no"?>
<!DOCTYPE svg PUBLIC "-//W3C//DTD SVG 1.1//EN" "http://www.w3.org/Graphics/SVG/1.1/DTD/svg11.dtd" >
<svg xmlns="http://www.w3.org/2000/svg" xmlns:xlink="http://www.w3.org/1999/xlink" version="1.1">
<metadata>
Created by FontForge 20150913 at Sun Apr  3 04:08:31 2016
 By Jimmy Wärting
Copyright (c) 2015 by Aleksei Kalinin &#38; Jovanny Lemonad. All rights reserved.
</metadata>
<defs>
<font id="Lumberjack" horiz-adv-x="589" >
  <font-face 
    font-family="Lumberjack"
    font-weight="400"
    font-stretch="normal"
    units-per-em="1000"
    panose-1="2 0 5 3 5 0 0 2 0 4"
    ascent="800"
    descent="-200"
    x-height="547"
    cap-height="700"
    bbox="-59.764 -313.726 861 961.918"
    underline-thickness="50"
    underline-position="-100"
    stemh="76"
    stemv="101"
    unicode-range="U+000D-2212"
  />
<missing-glyph horiz-adv-x="0" 
 />
    <glyph glyph-name=".notdef" horiz-adv-x="0" 
 />
    <glyph glyph-name="NULL" horiz-adv-x="0" 
 />
    <glyph glyph-name="NULL" horiz-adv-x="0" 
 />
    <glyph glyph-name="CR" unicode="&#xd;" horiz-adv-x="200" 
 />
    <glyph glyph-name="space" unicode=" " horiz-adv-x="200" 
 />
    <glyph glyph-name="H" unicode="H" horiz-adv-x="606" 
d="M565 59l1 -38c0 -11 -9 -20 -20 -20l-155 -1c-11 0 -20 9 -20 20l-1 36c0 11 9 20 20 20h4c11 0 20 9 19 20v228c0 11 -9 20 -20 19l-195 -1c-10 0 -19 -8 -19 -19l-2 -229c-1 -10 8 -19 18 -20h6c11 0 19 -9 19 -20v-35c0 -11 -9 -20 -20 -19l-139 1c-11 0 -20 8 -20 19
l-1 34c0 11 9 20 20 20h3c11 -1 20 8 20 20l-1 513c0 10 -9 19 -20 19s-20 9 -20 20l1 33c0 11 9 20 20 20l134 -1c10 0 19 -9 19 -19l1 -35c1 -12 -8 -21 -20 -20h-2c-11 0 -20 -9 -20 -20l3 -165c0 -10 9 -19 20 -19l199 1c11 0 20 9 20 20l1 164c0 11 -8 19 -18 20h-7
c-10 1 -19 10 -18 20v35c1 10 9 19 20 19l149 -1c11 0 20 -9 20 -20l-1 -33c0 -10 -8 -18 -18 -19l-15 -1c-11 -1 -19 -9 -18 -20l2 -508c1 -11 10 -19 21 -19h10c11 1 20 -8 20 -19z" />
    <glyph glyph-name="I" unicode="I" horiz-adv-x="286" 
d="M222 75c11 -1 20 -10 19 -21l-2 -35c-1 -11 -10 -19 -21 -19l-142 2c-11 0 -19 8 -20 19l-2 35c-1 11 7 20 18 21c10 1 18 10 18 21l-1 500c0 11 -8 20 -19 20l-10 1c-10 0 -18 8 -19 19l-1 41c0 11 8 20 18 21c5 1 5 -2 168 -1c11 0 20 -9 20 -20v-41
c0 -10 -8 -19 -19 -20l-13 -1c-10 -1 -18 -10 -18 -20v-301l1 -200c0 -11 9 -20 25 -21z" />
    <glyph glyph-name="J" unicode="J" horiz-adv-x="511" 
d="M446 699c13 0 24 -11 24 -25l1 -32c0 -13 -10 -24 -23 -25h-5c-13 -1 -22 -12 -22 -24c0 0 5 -386 -5 -428c-26 -108 -97 -172 -212 -172c-131 -1 -168 71 -182 119c-1 2 -1 4 -1 7c-1 25 -1 35 0 61c0 14 10 25 24 25c14 1 30 0 43 0c15 -1 27 -13 28 -28
c1 -16 2 -35 3 -39c12 -36 29 -68 81 -68c94 1 114 145 114 196v328c0 13 -11 23 -24 24h-2c-12 1 -22 11 -23 23l-1 33c-1 13 9 24 21 25h161z" />
    <glyph glyph-name="K" unicode="K" horiz-adv-x="573" 
d="M511 85c4 -7 12 -11 20 -11h11c11 -1 20 -10 20 -21l1 -32c0 -12 -9 -21 -21 -21h-168c-12 0 -21 10 -21 21v32c0 11 9 20 21 21h17c5 1 7 6 5 10c-56 107 -141 249 -170 297c-6 10 -5 23 1 33c33 48 132 200 186 271c7 10 18 16 30 16h91c13 0 23 -7 23 -20l-1 -44
c0 -13 -10 -21 -23 -21c-16 1 -35 0 -48 0c-6 0 -12 -4 -16 -9c-52 -76 -92 -131 -131 -195c-5 -8 -5 -18 0 -26c67 -119 108 -185 173 -301zM59 74c7 1 14 0 21 2c8 1 14 9 14 17c0 161 -3 339 -3 505c0 23 -22 21 -22 21c-10 0 -14 4 -15 14c-1 12 -2 34 -2 47
c-1 12 5 20 15 20c45 1 104 -1 146 0c9 0 18 -2 19 -16c0 -17 -1 -36 -1 -54c0 -13 -17 -11 -24 -11c-11 0 -18 -7 -18 -22c6 -163 6 -338 13 -505c0 -11 9 -18 19 -18c3 1 7 1 11 1c9 0 17 -7 18 -16c5 -36 3 -54 -14 -58c-18 -4 -132 -3 -177 -2c-8 0 -15 6 -17 14
c-2 12 -3 26 1 46c1 8 8 15 16 15z" />
    <glyph glyph-name="L" unicode="L" horiz-adv-x="469" 
d="M217 616c-13 -1 -22 -11 -22 -23l-2 -472c0 -12 10 -23 23 -23l144 -1c11 0 21 8 23 19l1 7c2 12 12 20 23 20h29c13 0 23 -11 23 -24l-2 -95c0 -13 -10 -23 -23 -23h-348l-23 1c-13 0 -23 10 -23 23v48c0 12 10 23 23 23h4c13 0 23 10 23 23l2 474c0 12 -8 22 -20 23h-3
c-12 2 -21 12 -21 24v36c0 12 10 23 23 22l144 2c14 0 25 -12 23 -25l1 -39c-1 -11 -11 -20 -22 -20z" />
    <glyph glyph-name="M" unicode="M" horiz-adv-x="810" 
d="M367 14l-168 457c-1 4 -7 3 -7 -2c-3 -109 3 -262 0 -371c0 -12 10 -21 21 -22c9 0 16 -2 21 -5c9 -5 8 -26 7 -45c-1 -14 -12 -26 -27 -26c-44 -2 -111 -1 -149 -2c-12 0 -22 9 -23 21c-1 10 -2 20 -2 30c0 14 12 25 26 26h8c11 0 20 9 20 20c3 143 0 412 1 500
c1 11 -8 20 -19 20c-3 0 -6 1 -10 1c-14 0 -25 11 -25 25c-1 10 -1 30 -1 39c0 11 8 19 19 20c43 2 104 0 137 -1c7 0 14 -5 17 -12c60 -146 123 -349 181 -493c1 -1 1 -2 1 -2c4 -8 14 -8 17 0c64 163 119 339 181 496c3 8 10 13 18 13c10 0 110 -1 135 0
c15 0 23 -5 23 -20c0 -9 1 -34 1 -43c0 -12 -9 -22 -22 -23c-7 0 -14 -1 -20 -1c-11 1 -21 -8 -20 -19c1 -115 2 -226 2 -328c0 -42 -1 -80 1 -122c0 -6 -1 -31 0 -49c0 -11 9 -20 19 -20c4 -1 7 -1 11 -1c11 -1 19 -10 19 -21v-27c-1 -15 -13 -27 -28 -27h-142
c-14 -1 -24 10 -25 23s-1 27 -1 30c0 12 10 22 22 21h2c12 -1 23 9 23 21c-1 111 0 245 0 372c0 7 -7 8 -9 1c-38 -107 -158 -448 -162 -456c-5 -10 -14 -16 -25 -16c-8 -1 -17 -2 -25 -1c-11 2 -19 9 -23 19z" />
    <glyph glyph-name="N" unicode="N" horiz-adv-x="584" 
d="M405 239l3 360c0 10 -8 18 -18 18h-5c-10 0 -18 8 -18 18v47c0 10 8 18 18 18l142 -1c9 0 17 -8 17 -17v-46c0 -10 -8 -18 -17 -18h-10c-10 -1 -17 -8 -17 -18v-336l3 -246c1 -10 -8 -18 -18 -18h-42c-11 0 -21 5 -26 15l-234 463c-2 3 -6 2 -6 -1l1 -384
c0 -10 9 -19 19 -19h4c11 0 19 -9 19 -20l-1 -36c0 -11 -8 -19 -19 -19l-129 1c-11 0 -19 8 -19 19l-1 35c0 10 8 19 19 19c10 0 19 9 19 19l-1 511c0 8 -7 14 -15 14h-18c-8 0 -15 6 -15 14v55c0 8 7 14 15 14h94c11 1 21 -6 27 -16l221 -447c2 -4 8 -3 8 2z" />
    <glyph glyph-name="O" unicode="O" horiz-adv-x="561" 
d="M281 -9c-184 0 -241 185 -241 371c0 160 59 332 234 345c195 0 247 -182 247 -341c0 -210 -74 -375 -240 -375zM274 629c-94 0 -135 -118 -135 -262c0 -173 49 -294 144 -294c104 0 138 112 138 292c0 158 -30 264 -147 264z" />
    <glyph glyph-name="P" unicode="P" horiz-adv-x="512" 
d="M63 75l20 2c12 1 22 11 22 23l4 490c0 13 -11 23 -23 23h-8c-12 1 -22 10 -23 23l-1 39c-1 13 9 24 22 25l46 1s133 5 188 -4c59 -9 155 -47 171 -170c5 -154 -48 -219 -160 -254c-29 -9 -66 -10 -97 -13c-9 0 -16 -8 -16 -17c0 -40 0 -108 -1 -144c0 -12 10 -23 23 -23
l24 -1c13 0 23 -11 23 -24l-1 -30c0 -12 -10 -22 -23 -22h-189c-14 0 -24 11 -24 24l1 30c1 11 10 21 22 22zM209 593c0 -78 0 -153 1 -232c0 -11 8 -19 19 -19c57 3 141 43 142 113c-1 35 7 68 -12 108c-15 47 -72 64 -131 54c-11 -2 -19 -12 -19 -24z" />
    <glyph glyph-name="Q" unicode="Q" horiz-adv-x="570" 
d="M473 31c19 -14 30 -24 45 -35c14 -11 16 -32 4 -45l-18 -19c-12 -13 -28 -18 -43 -8c-19 12 -40 31 -68 51c-6 6 -12 10 -17 13s-11 4 -16 3c-28 -7 -63 -9 -94 -9c-192 0 -223 242 -225 384c-2 112 35 304 170 334c77 19 176 6 233 -66c59 -74 66 -179 66 -290
c-3 -66 -10 -150 -25 -209c-6 -25 -18 -47 -33 -68c-5 -6 -4 -15 2 -21zM188 131c15 -30 66 -72 100 -66c134 0 112 255 112 399c0 124 -60 166 -134 166c-109 0 -118 -160 -119 -248c-1 -94 10 -201 41 -251z" />
    <glyph glyph-name="R" unicode="R" horiz-adv-x="572" 
d="M66 73c9 1 17 8 17 18c1 21 2 56 2 69c1 124 1 364 2 436c0 12 -10 21 -21 21h-5c-12 0 -21 10 -21 21l1 43c0 11 9 20 20 20c60 1 239 5 294 1c81 -3 158 -84 160 -192c4 -107 -21 -163 -112 -191c-3 -1 -3 -6 0 -7c94 -32 58 -194 89 -214c20 -13 31 -17 42 -21
c11 -3 18 -14 17 -26c-1 -17 -4 -25 -6 -37c-1 -10 -9 -18 -20 -20c-54 -6 -109 -6 -133 16c-21 22 -24 85 -24 156c-2 65 -50 117 -95 117c-19 2 -53 1 -72 1c-8 0 -15 -7 -15 -15v-177c0 -10 8 -18 24 -19c9 0 17 -8 17 -17l2 -38c1 -10 -7 -19 -18 -19
c-119 -2 -119 -2 -149 -1c-10 0 -18 9 -18 19l2 39c0 9 8 17 20 17zM292 374c50 0 120 32 116 127c-3 77 -23 97 -98 112c-13 2 -73 3 -106 2c-11 0 -21 -9 -21 -20l-1 -202c0 -12 10 -21 22 -21c25 1 65 2 88 2z" />
    <glyph glyph-name="S" unicode="S" horiz-adv-x="485" 
d="M453 205c9 -109 -16 -146 -82 -186c-24 -14 -50 -23 -77 -26c-62 -8 -178 -10 -251 63c-6 6 -10 14 -11 22l-2 59c0 18 14 32 32 33h38c17 1 32 -13 33 -30v-17c1 -10 6 -20 15 -27c29 -21 65 -27 94 -27c51 0 108 26 105 114c-2 55 -56 77 -120 104
c-82 34 -183 103 -191 196c-10 125 21 185 100 215c0 0 150 54 280 -66c6 -6 10 -14 11 -23l2 -62c0 -17 -14 -32 -32 -31h-40c-16 0 -30 13 -30 30l-2 22c0 8 -4 15 -10 19c-32 23 -66 29 -97 29c-51 0 -115 -43 -76 -124c31 -63 120 -100 137 -104
c75 -29 165 -63 174 -183z" />
    <glyph glyph-name="T" unicode="T" horiz-adv-x="481" 
d="M288 604l5 -507c0 -11 9 -20 20 -20l18 -1c11 -1 20 -10 20 -21l1 -33c0 -12 -10 -21 -21 -21l-171 -1c-11 0 -20 9 -21 20l-1 33c-1 12 8 21 20 22l12 1c11 0 20 10 20 21l-2 505c0 11 -8 19 -18 19h-59c-10 0 -18 -8 -19 -17l-1 -9c0 -10 -9 -17 -19 -17l-43 1
c-10 0 -18 8 -18 19l-1 82c0 11 9 19 19 19l414 1c15 0 28 -9 27 -24l-2 -79c-1 -15 -13 -27 -28 -26h-28c-13 1 -24 11 -26 24l-1 13c-1 8 -9 15 -18 15h-60c-10 0 -19 -8 -19 -19z" />
    <glyph glyph-name="U" unicode="U" horiz-adv-x="606" 
d="M552 700c13 0 24 -11 24 -24v-32c0 -13 -9 -23 -27 -25c-13 -1 -22 -11 -22 -24v-294c0 -241 -49 -310 -226 -310c-160 0 -222 45 -222 311c0 72 -2 280 0 294c0 13 -10 24 -25 24c-13 1 -23 11 -23 23l-1 31c0 13 9 24 22 26h159c14 0 25 -11 25 -24v-32
c0 -13 -10 -23 -22 -24c-18 -2 -28 -12 -28 -25c-2 -60 -4 -227 -4 -297c0 -150 4 -227 117 -227s121 89 121 230c0 100 0 234 -1 295c0 13 -10 24 -25 24c-12 1 -22 11 -23 23l-1 30c-1 13 8 24 21 26h3z" />
    <glyph glyph-name="V" unicode="V" horiz-adv-x="568" 
d="M336 1l-117 1c-12 0 -23 8 -27 20l-142 589c-2 6 -7 10 -13 10h-4c-10 0 -19 9 -20 19l-2 36c-1 13 9 24 22 24l134 1c12 0 22 -10 22 -22v-37c0 -12 -10 -21 -21 -21h-5c-9 0 -16 -8 -13 -17l119 -481c1 -4 4 -6 8 -6s7 2 8 6l117 479c2 9 -4 17 -13 18h-15
c-11 1 -20 10 -20 21v38c-1 12 9 22 22 22h159c13 0 23 -10 22 -22l-1 -38c0 -12 -9 -21 -20 -21h-17c-6 0 -12 -3 -13 -9l-142 -590c-4 -12 -15 -20 -28 -20z" />
    <glyph glyph-name="W" unicode="W" horiz-adv-x="871" 
d="M457 680l144 -467c1 -4 7 -4 8 0l90 389c3 12 -6 24 -19 24h-2c-10 1 -18 9 -19 20l-2 32c0 12 9 22 20 22l163 2c12 0 21 -9 21 -21l-1 -35c0 -11 -9 -20 -20 -20h-13c-9 0 -18 -6 -20 -15l-135 -593c-2 -9 -10 -15 -19 -15h-71c-9 0 -17 6 -19 14l-137 490
c-1 4 -6 4 -7 0l-118 -491c-2 -9 -11 -16 -20 -15h-64c-9 0 -17 6 -19 15l-136 592c-2 9 -10 15 -19 16h-13c-11 1 -19 10 -19 20l-1 36c0 11 9 20 20 20l154 1c11 0 20 -8 20 -19l2 -34c1 -11 -7 -21 -19 -22h-3c-12 -1 -21 -12 -19 -24l82 -389c1 -4 7 -5 8 0l133 466
c4 13 16 22 29 22h11c13 0 25 -9 29 -21z" />
    <glyph glyph-name="X" unicode="X" horiz-adv-x="541" 
d="M175 73c14 -1 25 -12 25 -26l-1 -21c0 -15 -12 -27 -28 -27h-132c-15 1 -27 13 -27 28v23c0 13 10 24 23 25l16 1c3 1 6 2 7 5l145 258c8 14 9 31 1 45l-132 223c-5 8 -14 14 -24 14l-15 1c-13 1 -23 12 -23 26v24c0 15 13 27 28 27h143c16 0 29 -13 28 -29l-2 -23
c0 -12 -10 -22 -22 -23c-6 -1 -9 -7 -7 -12l86 -152c4 -8 15 -8 19 -1l94 147c4 6 0 15 -8 15c-13 1 -23 11 -24 24v25c-1 16 12 29 28 29l129 1c15 0 28 -12 28 -27v-26c1 -14 -10 -26 -24 -26h-10c-11 0 -22 -6 -28 -16l-131 -225c-8 -14 -8 -31 0 -45l136 -253
c2 -3 5 -5 8 -5h18c15 0 27 -12 27 -27v-24c-1 -15 -13 -27 -28 -27l-145 1c-15 0 -28 12 -28 28v22c1 13 11 24 25 25h7c7 0 12 8 8 14l-85 167c-5 8 -16 8 -20 0l-93 -169c-3 -6 1 -14 8 -14z" />
    <glyph glyph-name="Y" unicode="Y" horiz-adv-x="541" 
d="M346 1h-166c-12 0 -22 10 -23 22v31c0 12 10 22 22 22h10c12 1 22 10 22 22v183c0 4 -1 7 -2 11l-153 318c-3 6 -10 10 -17 11h-7c-12 0 -21 10 -21 22l-1 34c0 13 10 23 22 23h137c12 0 22 -10 22 -22l1 -34c0 -12 -10 -22 -22 -22h-8c-5 0 -8 -5 -6 -9l103 -205
c3 -4 9 -5 12 0l121 203c2 4 0 9 -5 10h-19c-12 1 -22 11 -22 23l1 33c1 12 10 22 22 22h140c12 0 22 -10 22 -23v-34c0 -12 -10 -21 -21 -21c-8 -1 -15 -5 -19 -11l-178 -321c-2 -4 -3 -8 -3 -12l3 -178c0 -12 9 -22 21 -22l12 -1c12 0 21 -9 21 -21l1 -32
c0 -12 -9 -22 -22 -22z" />
    <glyph glyph-name="Z" unicode="Z" horiz-adv-x="516" 
d="M172 95l206 -1c10 0 19 8 20 19v2c0 11 10 20 21 19l42 -3c11 0 19 -9 19 -20l-2 -92c0 -10 -9 -19 -20 -19h-396c-16 0 -30 13 -31 30l-1 32c0 8 2 16 7 24l318 516c3 6 -1 13 -8 13l-214 -1c-11 0 -19 -8 -20 -19l-1 -23c-1 -11 -10 -19 -21 -19l-40 2
c-11 0 -20 9 -19 20l1 106c0 10 9 19 20 19h408c13 -1 23 -11 24 -24v-31c1 -8 -2 -17 -6 -24l-313 -514c-3 -5 1 -11 6 -12z" />
    <glyph glyph-name="a" unicode="a" horiz-adv-x="463" 
d="M399 74h13c16 0 21 -13 21 -26v-26c0 -17 -14 -22 -26 -22h-85c-15 0 -26 13 -27 26c-1 11 -2 18 -2 24v8c-1 4 -4 4 -6 0c-7 -12 -15 -23 -24 -33c-23 -25 -71 -30 -92 -30c-20 0 -32 -2 -51 5c-8 3 -15 7 -23 12c-5 3 -18 14 -20 17c-41 39 -46 124 -23 181
c29 73 85 104 168 105c23 0 39 0 48 -1c8 -1 15 6 15 14c1 17 1 47 -3 69c-6 43 -16 72 -67 73c-58 1 -72 -36 -78 -44c-2 -3 -3 -26 -3 -31c0 -13 -7 -18 -17 -18c-2 0 -44 -1 -48 0c-11 0 -20 5 -19 20c0 1 -1 34 -1 46c1 3 1 7 3 10c9 20 50 89 161 91
c92 2 119 -41 147 -90c15 -26 19 -59 21 -95c2 -43 5 -258 5 -262c0 -14 4 -23 13 -23zM179 84c39 -5 105 29 108 65c1 17 0 54 -1 77c0 8 -6 13 -13 14c-27 1 -66 1 -91 -5c-55 -15 -51 -58 -51 -91s16 -55 48 -60z" />
    <glyph glyph-name="b" unicode="b" horiz-adv-x="470" 
d="M57 735l98 1c15 0 27 -12 27 -26v-175c0 -7 7 -10 12 -7c23 16 49 25 82 25c74 0 111 -63 138 -139c24 -69 14 -178 12 -251c-16 -123 -76 -166 -141 -168c-52 0 -72 7 -97 32c-2 3 -7 1 -7 -2v-4c-1 -12 -11 -21 -23 -21h-39c-17 0 -31 13 -31 30l-5 607
c0 14 -8 24 -26 25c-15 1 -26 9 -26 23v23c-1 15 11 27 26 27zM195 91c35 -32 104 -20 124 30c19 50 14 80 14 115c0 32 2 154 -23 193c-32 50 -77 47 -114 34c-7 -2 -13 -10 -13 -18c0 -90 0 -238 -1 -327c0 -11 5 -20 13 -27z" />
    <glyph glyph-name="c" unicode="c" horiz-adv-x="434" 
d="M340 153h43c20 0 35 -19 30 -38c-10 -46 -26 -70 -53 -92c-26 -21 -91 -34 -128 -30c-74 9 -143 39 -172 127c-17 47 -18 100 -20 158c3 113 33 256 148 278c78 16 224 -9 224 -107v-33c0 -20 -17 -37 -37 -37c-11 0 -22 1 -32 1c-20 0 -36 16 -36 36c0 44 -29 66 -82 60
c-70 -6 -75 -97 -79 -163c-6 -116 10 -244 105 -244c46 0 36 15 55 61c5 14 19 23 34 23z" />
    <glyph glyph-name="d" unicode="d" horiz-adv-x="465" 
d="M404 76h8c13 0 23 -10 23 -23v-28c0 -13 -11 -23 -23 -23l-100 1c-11 0 -21 9 -22 21v3c-1 4 -5 5 -8 3c-25 -25 -44 -32 -96 -32c-65 2 -125 45 -141 167c-2 74 -13 183 12 252c26 75 64 138 137 138c34 0 60 -8 83 -24c5 -4 12 0 12 6v98c1 12 -9 22 -22 22l-16 1
c-12 0 -22 10 -22 23l1 32c0 12 10 22 22 22h113c13 0 23 -10 23 -23l-6 -613c0 -13 10 -23 22 -23zM288 120c0 90 -1 237 -1 327c0 9 -5 16 -13 19c-36 13 -82 15 -113 -34c-25 -39 -23 -162 -24 -193c1 -35 9 -73 27 -112c16 -57 77 -65 112 -34c8 7 12 17 12 27z" />
    <glyph glyph-name="e" unicode="e" horiz-adv-x="435" 
d="M326 176c13 1 28 2 42 1c12 0 22 -10 22 -22c-1 -15 0 -26 0 -40c0 -29 -29 -66 -51 -85c-60 -48 -136 -33 -172 -25c-157 36 -136 322 -105 427c27 90 83 127 160 129c47 2 122 -25 159 -135c11 -33 15 -96 13 -145c0 -20 -16 -35 -36 -36c-64 -1 -199 -2 -199 -2
c-12 -1 -19 -10 -19 -22c0 -45 16 -147 78 -148c50 -1 65 21 76 44c2 5 4 19 5 32c1 15 12 26 27 27zM259 464c-29 18 -79 15 -100 -26c-10 -21 -13 -57 -16 -90c-1 -13 9 -24 23 -24h108c16 0 26 15 24 32c0 34 -2 86 -39 108z" />
    <glyph glyph-name="f" unicode="f" horiz-adv-x="304" 
d="M258 54l1 -28c0 -14 -11 -25 -24 -25l-180 1c-14 0 -24 10 -24 23v27c0 13 10 24 23 24l9 1c13 0 23 11 23 23l2 360c0 9 -8 16 -16 16h-24c-15 0 -27 13 -28 28v17c0 16 13 28 28 28h27c8 0 15 7 15 15c1 17 1 34 1 50c3 46 1 70 28 109c24 34 95 30 160 15
c18 -4 28 -22 23 -39l-6 -23c-5 -16 -20 -25 -36 -23c-38 6 -64 -1 -68 -32c-2 -16 -3 -41 -3 -57c0 -9 7 -15 15 -16h54c16 -1 29 -14 28 -30v-13c0 -15 -13 -28 -29 -28h-50c-9 -1 -16 -8 -16 -17l1 -359c0 -12 11 -23 24 -23l19 -1c12 0 23 -10 23 -23z" />
    <glyph glyph-name="g" unicode="g" horiz-adv-x="485" 
d="M424 549c17 0 31 -13 31 -30v-14c0 -16 -13 -30 -30 -31h-7c-13 0 -24 -11 -24 -24v-187c-1 -92 1 -177 5 -321c1 -59 -15 -137 -56 -164c-86 -56 -179 -44 -264 2l-6 4c-9 5 -13 16 -9 26l15 40c5 13 19 20 33 16c1 0 3 -1 4 -1c33 -10 66 -27 103 -29
c32 -1 79 22 82 77c2 30 2 80 1 125c0 4 -5 6 -8 3c-47 -52 -107 -50 -134 -44c-35 8 -71 51 -93 95c-34 67 -33 287 -10 343c37 87 80 123 156 117c27 -2 55 -13 77 -37c4 -4 10 -1 10 3v6c0 14 12 26 26 26c31 -1 63 0 98 -1zM296 158c0 3 1 9 2 17c-1 36 -2 68 -2 93
c0 7 1 51 1 102c0 11 1 29 -3 40c-9 30 -26 50 -41 58c-32 18 -74 8 -95 -33c-35 -70 -21 -237 -12 -269c8 -32 22 -96 62 -97c70 -2 86 56 88 89z" />
    <glyph glyph-name="h" unicode="h" horiz-adv-x="484" 
d="M406 423l7 -327c1 -11 10 -20 21 -19h8c11 0 20 -8 20 -19l1 -35c1 -11 -8 -21 -20 -21l-153 1c-11 0 -20 9 -20 20v35c1 11 9 19 20 20h5c11 0 20 10 19 21c0 10 -1 21 -1 28c0 101 2 189 -3 301c-3 67 -80 72 -131 43c-8 -5 -13 -13 -13 -23c0 -74 -1 -286 -1 -351
c0 -11 8 -20 19 -20h7c10 -1 19 -10 19 -21v-35c0 -11 -9 -20 -20 -20l-105 1h-32c-11 -1 -20 8 -21 18l-2 35c0 11 9 21 20 21h2c11 0 20 9 20 20l-2 537c0 12 -10 23 -23 23l-5 1c-12 0 -22 11 -22 23v31c0 14 10 24 24 24h94c13 -1 23 -11 23 -24l3 -175c0 -5 6 -8 9 -5
c25 23 48 31 83 31c134 0 149 -89 150 -139z" />
    <glyph glyph-name="i" unicode="i" horiz-adv-x="239" 
d="M20 20l4 46c0 7 7 13 14 13h16c8 0 15 7 15 15v368c0 8 -6 14 -14 14l-14 1c-8 0 -14 6 -14 14l-2 46c0 8 6 15 14 15h115c8 0 15 -6 15 -14l8 -444c1 -8 7 -14 15 -14l12 -1c7 0 14 -6 14 -14l1 -46c0 -9 -7 -15 -15 -15h-153c-9 0 -31 7 -31 16zM168 658
c-1 -29 -37 -37 -73 -35c-38 3 -50 16 -52 49c-2 45 19 61 69 60c69 -2 56 -57 56 -74z" />
    <glyph glyph-name="j" unicode="j" horiz-adv-x="251" 
d="M168 547c13 0 23 -11 23 -24c-1 -96 0 -451 -2 -526c1 -39 -8 -98 -26 -138c-52 -114 -141 -134 -214 -79c-8 6 -11 16 -7 25c4 8 7 16 10 21c7 12 17 20 31 13c38 -20 69 2 87 54c10 19 16 58 15 97c0 92 1 370 2 451c0 13 -11 24 -23 24h-4c-13 1 -23 11 -23 24l-1 34
c0 13 11 24 24 24h108zM185 653c0 -30 -36 -37 -72 -35c-38 2 -50 15 -52 49c-2 44 19 61 68 59c70 -2 57 -56 56 -73z" />
    <glyph glyph-name="k" unicode="k" horiz-adv-x="536" 
d="M61 73l8 1c11 0 20 10 20 21l-4 545c0 15 -8 20 -19 21s-20 10 -20 21l-1 31c0 12 9 22 21 22l100 1c11 0 21 -9 21 -21v-142l2 -478c0 -12 9 -21 21 -21h7c11 -1 21 -10 21 -21v-30c0 -12 -9 -21 -21 -21l-155 -1c-11 0 -21 9 -21 21l-1 30c0 11 9 21 21 21zM468 79
c2 -3 6 -5 9 -5l21 -1c9 0 17 -8 17 -18l1 -32c0 -13 -10 -24 -23 -24l-152 1c-10 0 -19 8 -19 19l-2 32c0 12 9 22 20 22l5 1c15 -1 21 2 9 18l-137 195c-3 4 -3 9 -1 13l101 155c6 9 17 19 5 20h-15c-6 0 -12 5 -12 11v49c-1 7 5 12 11 12h172c6 0 12 -6 12 -12l-1 -52
c0 -6 -5 -11 -11 -11l-40 -1c-4 0 -7 -2 -9 -5l-106 -161c-6 -7 -6 -17 -1 -25z" />
    <glyph glyph-name="l" unicode="l" horiz-adv-x="272" 
d="M46 73l18 4c9 2 16 10 16 20l-4 543c0 11 -8 19 -19 20c-10 1 -18 9 -18 19l-3 33c-1 12 9 22 20 22l107 1c11 0 21 -9 21 -20v-144l4 -479c0 -10 8 -19 19 -20l16 -1c11 0 19 -9 19 -20v-34c0 -11 -9 -20 -20 -20l-171 1c-11 0 -20 8 -20 20v35c-1 9 6 18 15 20z" />
    <glyph glyph-name="n" unicode="n" horiz-adv-x="513" 
d="M426 413c1 -47 5 -256 7 -321c0 -10 8 -18 19 -18l12 -1c10 0 18 -8 18 -18l1 -36c0 -11 -9 -19 -19 -19h-160c-10 0 -19 8 -19 19v36c0 10 8 19 19 19h6c10 0 19 8 19 19l-6 326c-3 68 -84 72 -136 39c-5 -3 -8 -9 -8 -15v-351c0 -10 8 -18 19 -18l13 -1
c11 0 19 -8 19 -19v-35c0 -11 -9 -19 -19 -19h-155c-10 0 -19 8 -19 19l1 36c0 10 8 18 18 18h5c11 0 19 9 19 19l-3 361c0 12 -9 21 -20 22h-6c-11 1 -21 10 -21 22v29c0 13 10 22 22 22h100c13 0 24 -11 25 -24v-6c0 -2 2 -3 4 -2c27 28 50 36 88 36
c134 0 155 -89 157 -139z" />
    <glyph glyph-name="o" unicode="o" horiz-adv-x="468" 
d="M424 193c-20 -178 -132 -233 -245 -196c-199 66 -186 563 57 563c182 0 203 -239 188 -367zM233 69c77 0 98 80 98 230c0 134 -50 179 -98 179c-61 0 -99 -91 -99 -178c0 -102 28 -231 99 -231z" />
    <glyph glyph-name="p" unicode="p" horiz-adv-x="474" 
d="M428 379c6 -73 13 -186 -12 -255c-26 -76 -84 -118 -148 -125c-31 -4 -59 3 -83 29c-4 3 -9 1 -9 -4c0 -42 1 -132 1 -171c0 -13 10 -23 23 -24h15c13 0 23 -11 23 -24l-1 -30c0 -13 -11 -23 -23 -23h-172c-12 0 -22 10 -22 23l1 34c0 12 10 22 21 22h17
c12 1 23 11 23 24v599c0 8 -7 15 -15 15h-24c-8 0 -14 7 -14 15l-1 45c-1 10 7 18 17 18h115c10 0 18 -7 18 -17v-14c0 -2 2 -3 4 -1c18 28 41 43 96 38c60 -9 140 -50 150 -174zM190 88c163 -105 160 268 124 338c-29 57 -100 62 -133 20c-2 -3 -2 -6 -2 -9v-331
c0 -7 4 -14 11 -18z" />
    <glyph glyph-name="q" unicode="q" horiz-adv-x="489" 
d="M387 548c15 0 28 -13 28 -28c-1 -72 -2 -254 -3 -258c-1 -76 3 -319 5 -403c0 -17 14 -30 31 -31s31 -15 31 -33v-10c-1 -18 -15 -32 -32 -32l-167 -1c-17 0 -31 13 -32 30l-1 13c-1 17 12 33 30 34h1c17 1 30 15 30 31c0 44 1 138 0 177c0 4 -5 6 -8 3
c-47 -52 -107 -50 -134 -44c-35 8 -77 50 -99 95c-34 67 -33 287 -10 343c36 87 86 123 162 116c28 -2 56 -13 80 -39c2 -3 7 -1 7 3v7c0 15 13 27 28 27h53zM302 157c0 2 1 8 2 17c-1 36 -2 68 -2 92c0 9 1 58 1 114c1 2 0 5 0 7c-8 34 -26 70 -44 80c-32 18 -74 8 -95 -33
c-35 -71 -21 -237 -12 -269c8 -32 22 -96 62 -97c70 -2 86 56 88 89z" />
    <glyph glyph-name="r" unicode="r" horiz-adv-x="342" 
d="M341 532c-3 -21 -9 -58 -15 -84c-2 -8 -11 -12 -18 -8c-35 21 -76 21 -111 -2c-3 -3 -5 -7 -5 -11v-337c0 -8 7 -16 16 -16l15 -1c9 0 16 -6 16 -14v-43c1 -10 -7 -17 -16 -17h-157c-9 0 -16 8 -16 17v42c0 9 7 15 16 15h10c9 0 16 7 16 17l-2 354c0 13 -11 24 -24 24h-3
c-13 1 -23 12 -23 25v30c0 14 11 25 24 25h106c11 0 19 -8 20 -19v-3c0 -3 3 -5 6 -3c27 26 56 35 93 35c11 0 29 -6 41 -10c7 -3 12 -9 11 -16z" />
    <glyph glyph-name="t" unicode="t" horiz-adv-x="337" 
d="M87 642c0 12 9 22 22 22h58c12 -1 21 -10 21 -22l-1 -72c0 -12 10 -22 21 -22h56c12 -1 21 -10 21 -22l-1 -32c1 -11 -9 -21 -21 -21l-52 -1c-12 0 -22 -10 -22 -21c0 -74 1 -319 4 -340c4 -34 34 -40 76 -31c11 2 22 -4 25 -15s7 -26 11 -38c4 -14 -4 -28 -18 -32
c-65 -16 -143 -21 -167 14c-27 39 -26 63 -28 109c-1 17 -1 261 -2 334c0 11 -9 21 -20 21l-28 1c-11 0 -21 9 -21 21l-1 31c0 12 10 22 22 22h24c12 0 22 10 22 22z" />
    <glyph glyph-name="s" unicode="s" horiz-adv-x="428" 
d="M396 172c11 -110 -38 -150 -103 -172c-61 -22 -155 -27 -237 42c-11 9 -17 22 -18 36c0 17 0 35 1 50c0 18 15 32 33 32l36 -2c16 0 30 -14 31 -30c0 -6 0 -11 1 -16c0 -9 4 -17 11 -23c21 -20 43 -23 72 -23c51 0 70 16 68 81c-2 42 -19 50 -83 75
c-68 27 -117 38 -158 111c-51 89 6 183 68 210c0 0 157 61 243 -57c5 -7 8 -15 9 -23c0 -11 1 -21 1 -31c1 -21 -16 -38 -37 -38h-25c-19 1 -35 16 -36 36v7c0 6 -2 11 -6 16c-22 29 -34 24 -66 24c-51 0 -91 -60 -65 -110c25 -50 65 -52 115 -68c66 -22 139 -55 145 -127z
" />
    <glyph glyph-name="u" unicode="u" horiz-adv-x="514" 
d="M70 130c-1 46 1 254 2 321c0 12 -9 21 -21 21h-10c-11 0 -21 9 -21 21v35c0 12 10 21 21 21l115 -1c12 0 21 -9 21 -21c-1 -52 -1 -188 -2 -216c1 -32 -4 -141 -2 -186c3 -68 97 -73 151 -42c7 4 11 12 11 20v350c0 11 -9 20 -20 20h-1c-11 1 -20 10 -20 21v34
c0 12 10 21 21 21h97c12 0 21 -9 21 -20l5 -433c0 -12 10 -21 22 -21h13c11 0 21 -10 21 -21v-31c0 -11 -9 -21 -21 -21l-114 -3c-12 -1 -21 9 -22 21v1c0 4 -4 6 -7 3c-29 -25 -68 -31 -105 -31c-134 0 -154 87 -155 137z" />
    <glyph glyph-name="v" unicode="v" horiz-adv-x="492" 
d="M163 25l-112 436c-1 5 -6 10 -12 10h-6c-11 1 -19 9 -20 20l-2 33c-1 12 10 23 22 23l142 1c12 0 23 -10 22 -22v-33c0 -11 -9 -20 -20 -21h-5c-9 0 -15 -8 -13 -16l75 -337c1 -4 5 -7 9 -7s8 3 9 7l78 337c2 8 -5 16 -13 17h-9c-12 0 -21 9 -21 21l1 31
c0 12 10 22 22 22l107 1l43 -1c12 0 22 -10 22 -21v-32c0 -12 -9 -21 -21 -21h-11c-7 0 -12 -4 -13 -10l-111 -438c-4 -15 -17 -25 -32 -25l-100 1c-14 0 -27 10 -31 24z" />
    <glyph glyph-name="w" unicode="w" horiz-adv-x="727" 
d="M391 526l102 -346c1 -4 7 -4 8 1l54 266c3 13 -7 25 -19 25c-11 0 -19 8 -20 19l-2 33c-1 12 8 22 19 22l163 2c11 0 21 -9 21 -20l-1 -35c0 -11 -9 -20 -20 -20h-13c-9 0 -18 -7 -20 -16l-99 -441c-2 -9 -10 -16 -20 -16h-70c-9 0 -17 6 -20 15l-91 347c-1 3 -7 3 -8 0
l-91 -349c-2 -9 -10 -15 -20 -15h-64c-9 0 -17 7 -19 16l-101 441c-2 8 -9 15 -18 15l-13 1c-11 0 -19 10 -19 20v38c0 11 10 20 21 20l151 -2c10 0 19 -8 20 -19l2 -34c0 -11 -8 -21 -20 -21h-2c-12 -1 -21 -12 -18 -24l47 -269c1 -4 6 -5 8 -1l105 347c4 13 16 21 29 21
h10c13 -1 24 -9 28 -21z" />
    <glyph glyph-name="x" unicode="x" horiz-adv-x="512" 
d="M178 74c14 0 25 -11 25 -25v-21c0 -15 -12 -28 -28 -28l-126 1c-16 0 -29 14 -28 29l1 22c0 12 10 23 23 24l8 1c9 0 17 5 22 13l121 176c8 13 8 29 -1 41l-108 156c-5 8 -14 12 -22 12l-12 1c-14 0 -25 12 -25 25l1 19c0 15 12 27 28 27h132c16 0 28 -13 28 -29l-2 -16
c0 -13 -10 -23 -23 -24c-5 -1 -8 -7 -4 -11l60 -94c4 -5 12 -6 17 -1l60 91c5 5 1 13 -6 14c-12 0 -23 11 -23 23l-2 21c0 16 12 29 28 29l130 -1c15 0 27 -12 28 -26l1 -21c0 -14 -11 -26 -24 -26l-8 -1c-10 0 -19 -5 -26 -12l-110 -162c-9 -10 -10 -24 -2 -35l118 -176
c7 -9 18 -15 29 -15l9 -1c14 0 25 -11 25 -25v-21c-1 -16 -13 -28 -28 -28h-142c-15 0 -28 11 -28 26l-1 22c-1 14 10 26 25 26c7 1 12 9 8 16l-60 100c-4 7 -18 8 -23 2l-71 -107c-3 -4 0 -11 6 -11z" />
    <glyph glyph-name="y" unicode="y" horiz-adv-x="495" 
d="M47 -248c-12 6 -27 7 -17 48c6 26 21 33 38 26c48 -6 88 -3 110 45c11 23 16 68 22 132c0 4 0 8 -2 11l-148 448c-2 6 -7 10 -13 10c-15 1 -27 14 -27 29l1 21c0 14 11 25 25 25l114 -1c15 0 26 -12 25 -27l-3 -33c-1 -11 -15 -13 -24 -13c-3 0 -5 -3 -4 -6
c11 -41 74 -277 102 -347c1 -4 7 -3 8 1c16 56 71 304 79 336c2 7 -3 14 -9 15l-9 1c-13 2 -23 13 -23 27l-1 21c0 14 11 26 25 26h142c16 1 27 -13 26 -28l-3 -23c-2 -14 -13 -24 -27 -25h-7c-8 0 -15 -6 -17 -13l-50 -198c-38 -117 -71 -301 -112 -405
c-51 -137 -179 -115 -221 -103z" />
    <glyph glyph-name="z" unicode="z" horiz-adv-x="444" 
d="M166 96h140c11 0 20 8 20 19v1c1 11 10 19 21 19l42 -2c11 0 19 -9 19 -20l-1 -92c0 -11 -9 -20 -20 -20l-154 1h-179c-12 0 -22 9 -23 22l-1 39c0 9 2 18 7 25l248 364c3 6 -1 14 -8 13l-148 -2c-10 0 -18 -7 -19 -17v-16c-1 -10 -10 -17 -20 -17l-39 1
c-11 0 -20 9 -20 20l2 95c0 10 8 19 19 19h338c12 0 23 -10 23 -22l1 -30c0 -9 -2 -18 -7 -25l-248 -363c-3 -5 1 -12 7 -12z" />
    <glyph glyph-name="zero" unicode="0" horiz-adv-x="481" 
d="M416 181c-6 -62 -22 -104 -56 -141c-53 -60 -137 -50 -173 -42c-34 8 -78 45 -100 89c-34 67 -33 445 -10 501c36 86 89 114 165 117c47 1 130 -10 163 -125c21 -73 17 -349 11 -399zM235 70c51 -3 80 37 82 70c1 15 5 308 1 386c-3 47 -21 81 -40 93
c-28 18 -73 14 -94 -27c-9 -17 -21 -43 -23 -83c-3 -126 -1 -307 5 -367c3 -32 29 -69 69 -72z" />
    <glyph glyph-name="one" unicode="1" horiz-adv-x="276" 
d="M187 679v-590c0 -10 4 -17 13 -18c6 0 8 0 17 -1c10 0 18 -8 18 -18c0 -9 1 -18 1 -29c-1 -13 -12 -24 -26 -24c-47 1 -125 1 -148 1c-11 0 -21 8 -21 21l-1 32c0 12 7 18 16 19h17c10 0 13 7 13 16c0 53 -1 323 -1 453c0 4 -4 8 -8 8h-18c-14 1 -22 15 -15 27
c20 32 49 84 62 109c5 9 15 15 27 15c9 0 22 -1 33 -1s21 -7 21 -20z" />
    <glyph glyph-name="two" unicode="2" horiz-adv-x="445" 
d="M140 510c0 -4 0 -8 -1 -11c0 -17 -14 -29 -30 -27l-43 5c-15 2 -26 16 -25 31c3 44 9 70 15 85c36 86 88 114 165 117c47 1 130 -10 163 -125c8 -29 21 -118 1 -178c-14 -46 -33 -82 -64 -119c-69 -82 -124 -157 -156 -193c-4 -5 -1 -13 6 -13h142c7 0 13 6 13 14v6l1 10
c0 12 8 20 20 20l38 -1c11 0 20 -9 20 -20v-42l-1 -44c0 -18 -9 -24 -21 -24h-334c-5 0 -9 4 -9 9v42c0 19 6 38 18 52c47 57 168 210 216 281c26 40 23 118 22 142c-3 46 -21 81 -39 92c-29 18 -74 15 -95 -26c-8 -18 -21 -43 -22 -83z" />
    <glyph glyph-name="three" unicode="3" horiz-adv-x="432" 
d="M375 316c22 -50 16 -116 13 -140c-6 -61 -27 -99 -61 -136c-53 -60 -138 -55 -174 -47c-35 8 -80 39 -102 83c-11 21 -18 57 -21 107c0 16 13 30 30 29c13 -1 25 -2 38 -2c12 0 22 -9 23 -20c2 -17 1 -29 6 -45c10 -32 35 -60 75 -63c51 -3 80 37 82 70c0 7 12 68 1 144
c-8 49 -73 54 -105 58c-13 2 -13 13 -13 26v22c0 12 11 19 23 19c25 0 64 14 77 31c17 20 23 59 23 79c0 78 -96 128 -145 63c-12 -17 -20 -32 -22 -49c-1 -13 -12 -22 -25 -21c-11 1 -22 1 -32 1c-17 0 -30 15 -28 31c2 13 4 23 7 29c36 86 88 114 165 117
c47 1 130 -10 163 -125c7 -24 7 -68 -4 -115c-7 -29 -31 -57 -42 -64c-4 -4 -5 -9 -2 -14c9 -12 34 -31 50 -68z" />
    <glyph glyph-name="four" unicode="4" horiz-adv-x="437" 
d="M387 54v-36c-1 -14 -5 -19 -19 -19c-43 1 -134 0 -158 1c-14 1 -17 8 -18 19v39c0 10 5 18 19 18l16 1c6 0 10 5 10 10c0 27 0 7 -1 90c0 5 -4 9 -9 9c-32 0 -106 1 -167 1c-46 0 -43 31 -35 47c19 36 208 429 220 448c8 11 16 20 29 21c8 1 31 0 41 0
c15 -1 23 -12 23 -25c2 -37 3 -349 3 -413c0 -7 3 -13 12 -13h25c7 0 9 -6 9 -13v-39c0 -8 -2 -13 -9 -13l-24 -1c-12 1 -15 -7 -15 -15c0 -21 -1 -58 0 -81c0 -7 4 -14 13 -14c6 0 11 0 21 -1c10 0 14 -9 14 -21zM132 271c-8 -18 -12 -17 7 -18c44 -1 67 -1 88 -1
c5 0 9 4 9 10v227c0 7 -1 16 -13 -10c-7 -14 -38 -88 -91 -208z" />
    <glyph glyph-name="five" unicode="5" horiz-adv-x="469" 
d="M152 190v-2c1 -40 11 -60 20 -78c20 -40 62 -47 91 -29c19 11 49 46 52 92c1 25 13 108 -5 135c-18 26 -33 49 -96 44c-16 -1 -29 -10 -38 -18c-10 -9 -25 -11 -38 -6l-65 29c-9 4 -14 12 -14 22l6 295c1 15 7 24 23 26h285c15 0 26 -11 25 -25l1 -44c0 -2 0 -19 1 -34
c0 -13 -10 -24 -23 -24h-29c-14 1 -25 7 -25 21v9c0 5 -6 15 -18 15l-117 1c-20 0 -29 -7 -30 -25c-2 -65 -2 -116 -2 -185c0 -3 3 -4 5 -3c111 64 183 4 198 -10c51 -47 48 -85 55 -125c11 -63 -3 -127 -11 -156c-34 -114 -131 -123 -178 -121c-76 2 -127 27 -163 113
c-6 14 -8 38 -11 78c-1 15 10 27 24 29s31 3 46 4c17 1 31 -12 31 -28z" />
    <glyph glyph-name="six" unicode="6" horiz-adv-x="448" 
d="M414 271c11 -63 -4 -127 -12 -156c-33 -114 -130 -123 -177 -121c-76 2 -127 27 -163 113c-7 15 -9 42 -12 89v183l6 149c15 120 100 168 151 175c86 11 137 -14 164 -34c10 -7 13 -21 7 -32l-19 -31c-6 -10 -15 -13 -26 -8c-7 3 -38 19 -63 21c-95 9 -120 -57 -121 -117
v-95c0 -5 5 -8 9 -5c101 75 186 8 201 -6c50 -47 48 -85 55 -125zM314 173c2 25 11 107 -8 134c-18 27 -29 50 -92 45c-2 0 -4 0 -7 -1c-34 -7 -57 -39 -57 -74c1 -30 1 -64 1 -67c1 -11 1 -11 1 -22c1 -40 10 -60 19 -78c21 -40 63 -47 91 -29c19 11 49 46 52 92z" />
    <glyph glyph-name="seven" unicode="7" horiz-adv-x="396" 
d="M86 571l-34 1c-12 0 -22 10 -21 22c0 17 1 37 1 39l1 43c0 12 10 22 23 22c6 1 12 1 14 1h225l38 -1c18 0 33 -15 33 -33v-53c0 -5 -1 -10 -4 -15c-16 -36 -91 -217 -113 -319c-24 -113 -29 -236 -29 -236c1 -31 -6 -41 -27 -41h-52c-14 0 -24 10 -24 24
c1 57 15 173 46 288c27 98 90 234 104 284c5 19 0 23 -15 23h-127c-9 0 -16 -7 -17 -16v-12c0 -12 -10 -21 -22 -21z" />
    <glyph glyph-name="eight" unicode="8" horiz-adv-x="446" 
d="M401 175c-10 -152 -115 -208 -231 -182c-112 26 -156 170 -114 317c6 22 27 50 41 66c6 7 6 17 0 25c-12 13 -29 36 -38 63c-12 34 -5 104 3 122c36 86 88 114 165 117c47 1 130 -10 163 -125c7 -24 10 -67 0 -117c-7 -35 -26 -53 -39 -61c-5 -3 -5 -10 -1 -14
c12 -11 31 -33 42 -70c21 -74 11 -111 9 -141zM220 436c21 2 36 7 52 20c21 15 35 50 35 70c0 55 -25 75 -44 86c-29 18 -73 20 -100 -17c-21 -28 -18 -48 -18 -89c0 -27 14 -35 25 -49c12 -15 31 -23 50 -21zM184 341c-58 -35 -60 -131 -40 -195c10 -31 36 -61 76 -64
c51 -3 78 37 81 70c5 48 23 155 -29 186c-26 16 -62 18 -88 3z" />
    <glyph glyph-name="nine" unicode="9" horiz-adv-x="453" 
d="M35 414c-25 160 60 294 185 289c76 -2 127 -27 163 -113c12 -24 33 -78 9 -420c-9 -120 -105 -167 -156 -174c-83 -11 -129 12 -156 32c-11 8 -14 24 -7 37l20 31c5 7 14 10 22 6c12 -12 39 -20 58 -22c95 -9 120 57 121 117v53c0 16 -17 26 -30 18
c-155 -88 -216 70 -229 146zM137 524c-7 -92 3 -237 131 -178c51 24 27 194 6 240c-21 41 -63 48 -92 30c-18 -12 -42 -46 -45 -92z" />
    <glyph glyph-name="section" unicode="&#xa7;" horiz-adv-x="435" 
d="M413 -20c10 -109 -38 -178 -103 -201c-63 -22 -183 -26 -268 48c-7 6 -11 14 -11 23c0 20 -1 42 -1 58c-1 15 11 27 25 27h43c17 0 24 -11 22 -26l1 -18c0 -6 3 -13 7 -18c23 -22 49 -29 84 -26c69 6 98 39 95 104c-1 42 -31 62 -95 87c-68 27 -129 38 -170 111
c-44 77 -18 163 53 204c8 5 9 16 2 23c-20 16 -36 38 -50 70c-43 108 10 188 85 226c50 26 186 43 250 -57c6 -10 9 -22 10 -34s0 -27 0 -34c0 -12 -9 -24 -29 -24l-41 1c-13 0 -25 9 -25 22l-1 17c0 4 -2 8 -4 11c-26 32 -59 35 -92 30c-54 -8 -84 -81 -66 -131
c19 -52 83 -59 133 -75c66 -22 139 -74 145 -146c7 -70 -24 -117 -69 -148c-8 -6 -8 -18 1 -24c36 -23 65 -56 69 -100zM127 183c23 -44 76 -51 123 -63c6 -1 12 0 17 3c34 26 41 59 40 92c-1 42 -31 81 -95 106l-23 9c-3 1 -6 1 -9 0c-52 -18 -76 -101 -53 -147z" />
    <glyph glyph-name="ampersand" unicode="&#x26;" horiz-adv-x="525" 
d="M508 35c12 -15 7 -37 -14 -36c-18 1 -39 -1 -53 -1c-15 0 -25 7 -32 17c-4 6 -13 18 -24 35c-3 5 -10 6 -14 2c-32 -30 -70 -52 -111 -56c-57 -6 -91 2 -111 6c-34 8 -78 35 -105 76c-22 33 -67 126 9 245c21 33 52 59 80 79c8 5 10 16 5 24c-14 22 -23 36 -24 39
c-20 46 -33 94 -8 149c17 37 53 77 129 79c48 2 110 -8 141 -99c8 -23 8 -70 -16 -111c-13 -21 -49 -49 -89 -78c-8 -6 -10 -16 -5 -25c34 -50 73 -108 112 -164c2 -3 8 -3 10 1l24 52c6 12 13 20 30 20l44 -2c11 0 21 -13 14 -30l-12 -33c-8 -19 -23 -50 -45 -85
c-3 -4 -3 -11 0 -15c28 -40 48 -67 65 -89zM210 74c50 -3 87 19 113 47c5 5 6 13 2 19c-41 61 -89 134 -129 195c-3 6 -12 8 -17 3c-19 -14 -36 -28 -47 -41c-53 -56 -29 -126 -17 -150c14 -30 55 -71 95 -73zM188 505c4 -8 13 -22 24 -41c4 -6 11 -7 17 -4
c32 20 56 39 59 66c7 55 -22 75 -44 80c-37 10 -94 -23 -56 -101z" />
    <glyph glyph-name="paragraph" unicode="&#xb6;" horiz-adv-x="439" 
d="M236 258c-106 0 -196 52 -196 226c0 151 110 207 189 207c19 0 143 0 158 -1c10 -1 17 -9 17 -19v-42c-1 -11 -10 -20 -21 -19c-5 0 -10 1 -15 1c-10 1 -18 -7 -18 -17c0 -144 3 -423 4 -498c0 -10 8 -19 18 -20l26 -2c10 0 19 -9 19 -20l1 -36c1 -11 -8 -20 -19 -20
h-198c-10 0 -18 8 -19 18c-1 12 -1 29 -1 41c1 11 9 19 20 18c7 0 21 0 33 1c10 0 18 8 18 18l-1 149c0 8 -7 15 -15 15z" />
    <glyph glyph-name="dagger" unicode="&#x2020;" horiz-adv-x="401" 
d="M381 441c0 -8 -1 -26 -1 -36c1 -17 -15 -19 -26 -19c-15 -1 -43 -1 -76 -1c-10 0 -19 -9 -19 -19c-1 -162 -2 -328 -3 -336c-5 -36 -26 -38 -61 -36c-38 3 -50 -6 -52 41c-1 20 1 178 1 331c0 11 -9 19 -19 19c-40 1 -72 1 -80 1c-20 0 -24 6 -23 22c0 8 0 19 -1 33
c-1 20 0 31 32 31c7 0 35 0 72 1c11 0 19 9 19 19c0 65 0 119 -1 148c-1 34 14 47 47 46c11 0 33 -2 45 -2c10 0 23 -11 24 -21v-170c0 -11 9 -20 20 -20c39 0 71 0 78 -1c17 -1 24 -6 24 -31z" />
    <glyph glyph-name="daggerdbl" unicode="&#x2021;" horiz-adv-x="401" 
d="M357 80c17 -2 24 -7 24 -31c0 -9 -1 -27 -1 -37c1 -17 -15 -18 -26 -19h-81c-8 0 -15 -7 -15 -16c-1 -98 -2 -168 -2 -173c-5 -36 -26 -38 -61 -36c-39 3 -50 -6 -52 41v168c0 9 -7 16 -16 16h-82c-20 0 -24 7 -23 22c0 8 0 19 -1 34c-1 20 0 31 32 31h75c8 0 16 7 16 16
v273c0 9 -7 16 -16 16c-41 1 -75 1 -83 1c-20 0 -24 6 -23 22c0 8 0 19 -1 33c-1 20 0 31 32 31c7 0 37 0 75 1c9 0 16 7 16 16c0 71 0 126 -1 151c-1 34 14 47 47 46c11 0 33 1 44 0c16 -1 24 -13 24 -23c1 -21 1 -87 1 -174c0 -9 7 -16 16 -16c42 0 74 0 82 -1
c17 -1 24 -6 24 -31c0 -8 -1 -26 -1 -36c1 -17 -15 -19 -26 -19c-16 -1 -45 -1 -79 -1c-9 0 -16 -7 -16 -16c0 -88 0 -184 -1 -272c0 -9 7 -16 16 -16c42 0 75 0 83 -1z" />
    <glyph glyph-name="breve" unicode="&#x2d8;" horiz-adv-x="308" 
d="M46 649h21c7 0 13 -4 15 -9l7 -14c0 -2 19 -29 62 -28c27 0 44 -2 56 10c11 10 19 22 22 32c1 7 8 11 15 12h17c10 0 18 -9 16 -19c-2 -15 -8 -38 -23 -53c-31 -33 -47 -37 -97 -37c-43 0 -66 8 -89 23c-27 18 -34 43 -37 64c-2 10 6 19 15 19z" />
    <glyph glyph-name="dollar" unicode="$" horiz-adv-x="483" 
d="M451 207c10 -126 -27 -167 -115 -205c0 0 -28 -6 -67 -9l-5 -36c-1 -16 3 -46 -22 -46c-19 0 -37 -2 -57 2c-22 5 -19 9 -21 57c-1 13 -2 18 -4 29c-39 7 -78 23 -110 52c-12 10 -18 24 -19 40c0 14 0 30 1 44c0 20 16 36 36 37h26c20 1 37 -15 38 -35v-11
c1 -11 6 -21 15 -27c22 -17 50 -28 94 -28c50 -1 107 26 104 113c-2 56 -56 77 -120 104c-81 35 -177 103 -190 195c-16 118 13 181 100 215c0 0 8 3 22 6c8 1 13 8 13 15c1 34 -2 64 16 67c23 4 37 1 62 -1c18 -1 16 -23 16 -44c0 -8 1 -16 2 -26c0 -5 3 -10 9 -11
c40 -8 86 -27 129 -64c13 -10 20 -26 21 -42c1 -14 1 -30 1 -44c1 -21 -17 -38 -38 -38l-35 1c-19 0 -28 16 -29 35v14c-1 10 -5 19 -12 26c-23 24 -53 34 -98 34c-51 0 -112 -53 -73 -133c30 -64 119 -100 137 -104c74 -29 164 -63 173 -182z" />
    <glyph glyph-name="D" unicode="D" horiz-adv-x="532" 
d="M489 252c-11 -173 -48 -247 -216 -251c-39 -1 -145 0 -204 0c-14 1 -26 12 -27 26c0 10 -1 20 -1 29c0 14 11 24 25 24s25 11 25 24c1 71 2 403 -1 492c0 13 -10 24 -23 24h-3c-13 0 -24 11 -23 24v30c0 13 10 24 23 24c40 2 126 5 203 1c120 -5 216 -103 222 -223
c0 -11 6 -122 0 -224zM328 86c25 6 44 29 50 66c20 123 11 368 -16 425c-23 46 -89 45 -143 43c-13 0 -24 -11 -24 -24c1 -62 -4 -489 -4 -489c0 -13 10 -24 24 -24c56 -2 84 -4 113 3z" />
    <glyph glyph-name="registered" unicode="&#xae;" horiz-adv-x="364" 
d="M323 494c8 -121 -98 -146 -139 -147c-52 -1 -144 31 -144 141c0 94 80 133 140 135c27 1 135 -19 143 -129zM180 387c56 0 98 41 96 102c-2 55 -36 102 -97 101c-52 -1 -96 -40 -94 -98c2 -56 43 -105 95 -105zM125 438h3c2 0 2 1 2 3c0 1 1 91 1 91c0 3 -3 6 -6 6
s-6 2 -6 6l1 12c0 3 2 5 5 6c12 0 44 2 78 0c19 -2 33 -16 34 -39c1 -24 -6 -36 -26 -43c25 -2 17 -34 22 -41c3 -3 6 -4 8 -4c3 -1 5 -4 5 -7l-3 -10c0 -3 -2 -5 -5 -5c-12 -1 -28 0 -34 5c-4 5 -8 18 -8 33c0 14 -7 24 -17 24c-6 1 -12 0 -12 0v-34c0 -3 5 -3 5 -3
c3 0 5 0 5 -4l-1 -13c0 -3 -2 -6 -5 -6h-43c-4 0 -6 3 -6 6v15c0 1 1 2 3 2zM203 521c0 22 -36 17 -36 17l-1 -35s37 -6 37 18z" />
    <glyph glyph-name="copyright" unicode="&#xa9;" horiz-adv-x="545" 
d="M491 141c-11 -23 -31 -56 -58 -84c-36 -38 -107 -58 -166 -60c-55 0 -112 24 -146 55c-34 30 -64 74 -76 108h-1c-13 36 -24 72 -24 114c0 47 13 94 30 133c1 3 12 24 26 45s44 40 45 42c39 38 89 60 146 60c56 0 127 -25 166 -59c27 -23 40 -41 63 -77
c24 -38 29 -91 29 -141c0 -49 -15 -97 -34 -136zM267 60c111 5 185 111 185 216s-67 216 -185 215c-111 -1 -178 -110 -178 -215s67 -221 178 -216zM327 219h36c9 0 15 -7 14 -16c-2 -12 -8 -30 -25 -46c-22 -22 -53 -32 -81 -31c-35 -1 -64 16 -84 40c-15 18 -24 39 -29 62
c-4 22 -7 24 -8 54c0 44 9 66 31 95c15 22 44 45 79 47c82 5 115 -47 115 -47l1 -34c0 -6 -5 -11 -11 -11l-30 -1c-7 -1 -12 4 -13 11v15s-27 19 -51 18c-36 -3 -49 -45 -51 -78c0 -12 3 -58 17 -87c7 -15 24 -29 41 -26c24 1 34 18 38 27c2 5 6 8 11 8z" />
    <glyph glyph-name="trademark" unicode="&#x2122;" horiz-adv-x="529" 
d="M347 469l-57 130c-3 7 -13 5 -13 -2v-92c0 -4 4 -9 8 -9h1c5 -1 8 -4 8 -9c1 -4 1 -10 1 -15c1 -5 -3 -9 -8 -10c-18 -1 -51 0 -67 0c-5 0 -9 4 -9 9v16c0 5 4 9 9 9h1c5 0 9 4 10 9c1 54 1 124 0 152c0 5 -3 9 -8 9h-3c-5 1 -9 4 -9 9l-1 14c0 6 4 10 9 10h58
c4 0 7 -2 9 -5c11 -25 54 -110 71 -149c2 -5 10 -5 12 0c24 60 58 127 67 149c1 4 4 6 8 6h53c6 0 10 -4 11 -10c1 -4 1 -9 1 -14s-4 -9 -9 -9h-7c-5 0 -9 -5 -9 -10l2 -150c0 -5 4 -10 9 -10h1c5 0 9 -4 9 -9v-11c0 -7 -6 -14 -14 -14h-56c-5 0 -9 4 -10 8l-1 15
c0 6 4 10 9 10c5 1 9 5 9 10c0 18 0 48 -1 87c0 8 -10 10 -13 2c-15 -44 -39 -104 -47 -126c-1 -4 -5 -6 -9 -6l-17 1c-4 0 -7 2 -8 5zM125 660l4 -156c0 -4 3 -7 6 -7h6c5 -1 8 -4 9 -9v-16c0 -5 -4 -10 -9 -10h-66c-5 0 -9 4 -9 8l-2 17c0 5 3 9 8 10h3c5 1 8 5 8 9l1 151
c0 5 -4 9 -9 9h-14c-5 0 -9 -4 -9 -8c-1 -5 -5 -9 -10 -8l-14 1c-5 0 -8 4 -8 9v32c0 5 4 10 9 10l75 1l81 -2c6 -1 9 -5 9 -10l-1 -36c0 -5 -4 -9 -10 -9l-14 2c-4 0 -7 3 -8 8v3c-1 4 -4 8 -9 8h-20c-4 0 -7 -3 -7 -7z" />
    <glyph glyph-name="at" unicode="@" horiz-adv-x="866" 
d="M822 285c18 -167 -42 -292 -154 -297c-94 -4 -129 38 -139 58c-2 4 -8 4 -11 1c-16 -20 -66 -68 -156 -54c-42 7 -70 40 -92 84c-34 67 -33 161 -10 217c36 86 89 119 165 117c34 -1 64 -28 80 -44c3 -3 9 -1 9 4v16c-1 18 8 28 38 30c31 2 43 -18 43 -41
c0 -56 1 -113 1 -187c-1 -16 -7 -42 21 -99c10 -18 34 -33 55 -31c30 3 47 33 49 78c4 55 7 69 0 140c-18 177 -110 263 -271 263c-85 0 -154 -31 -199 -78c-56 -58 -105 -155 -105 -298c0 -126 49 -213 111 -262c73 -57 154 -101 282 -31c14 8 42 16 57 -9
c15 -26 -7 -46 -27 -57c-103 -54 -231 -58 -339 8c-104 63 -183 166 -189 344c-6 194 81 290 156 354c70 59 148 84 251 84c194 0 351 -104 374 -310zM497 143c0 15 9 35 -2 112c-5 38 -15 54 -34 66c-28 18 -77 15 -94 -27c-27 -66 -19 -114 -12 -143c7 -32 24 -81 64 -84
c51 -3 76 43 78 76z" />
    <glyph glyph-name="sterling" unicode="&#xa3;" horiz-adv-x="471" 
d="M428 144c13 0 23 -11 23 -24l-2 -95c0 -13 -10 -23 -23 -23h-344c-16 0 -29 14 -29 30l-1 58c0 5 1 9 3 14l4 9c25 54 42 111 50 170c1 3 -2 7 -6 7h-65c-21 0 -15 21 -17 65c0 19 -3 25 31 25h58c3 0 6 3 6 6c3 54 9 179 15 201c25 88 66 103 117 109
c80 10 124 -17 151 -39c9 -7 13 -17 4 -25l-33 -41c-7 -6 -15 -6 -20 1c-10 16 -29 32 -68 29h-1c-70 -11 -61 -124 -63 -235c0 -3 3 -6 6 -6c61 -1 117 -1 129 -2c18 -2 12 -12 14 -27v-47c-1 -11 -11 -14 -23 -14h-131c-3 0 -5 -2 -6 -5c-17 -81 -50 -147 -67 -172
c-4 -6 0 -13 7 -14l208 -1c13 0 24 10 24 23c1 12 11 23 24 23h25z" />
    <glyph glyph-name="Euro" unicode="&#x20ac;" horiz-adv-x="480" 
d="M439 28c2 -12 -5 -23 -16 -26c-36 -7 -71 -10 -104 -9c-113 -3 -183 74 -210 176c-4 23 -7 45 -9 65c-1 6 -5 10 -11 10c-28 0 -48 0 -53 1c-19 1 -13 11 -15 25c-1 7 -1 17 0 26c0 11 10 14 22 14c9 0 22 1 39 1c6 0 11 5 11 11c-1 13 -1 27 -1 40c-1 6 -6 11 -12 11
h-37c-21 0 -18 2 -21 43c0 17 -4 23 31 23h32c5 0 10 4 11 10c6 58 20 94 48 145c27 46 70 86 121 102c55 17 123 5 150 -1c8 -2 15 -11 14 -18l-8 -51c-4 -14 -10 -17 -20 -16c-19 2 -52 12 -79 11c-88 -6 -121 -86 -123 -152v-18c0 -6 5 -11 11 -11c82 1 168 1 181 0
c18 -1 12 -11 14 -25c1 -7 1 -17 1 -25c0 -11 -10 -13 -22 -14c-29 0 -100 -1 -171 -2c-6 0 -11 -5 -11 -11l1 -44c0 -5 4 -9 9 -9c34 1 158 3 171 3c21 0 19 -1 21 -43c1 -18 4 -24 -30 -24c-11 0 -83 0 -157 -1c-7 0 -12 -5 -11 -12c1 -38 6 -70 19 -99
c14 -30 52 -65 114 -63c15 1 47 9 67 15c10 2 20 -4 22 -14z" />
    <glyph glyph-name="yen" unicode="&#xa5;" horiz-adv-x="521" 
d="M506 693c8 -1 15 -8 14 -16c0 -12 -1 -29 -2 -45c0 -9 -8 -15 -16 -15c-9 1 -17 2 -18 -2c-33 -59 -52 -96 -96 -166c-21 -35 -39 -69 -54 -96c-2 -3 4 -8 8 -8c43 0 77 0 85 -1c18 -1 12 -12 14 -27c1 -7 1 -18 1 -27c-1 -12 -10 -15 -23 -15c-20 0 -64 -1 -113 -2
c-4 0 -8 -3 -8 -7c0 -11 0 -25 1 -39c0 -5 3 -8 7 -8h122c19 -2 13 -12 15 -26c1 -8 0 -18 0 -27c0 -11 -10 -14 -22 -15c-20 0 -64 -1 -112 -1c-5 0 -8 -4 -8 -8c0 -20 1 -38 1 -49c1 -7 6 -13 13 -13l34 -2c7 0 13 -5 13 -12l1 -47c0 -10 -7 -16 -15 -16l-186 -1
c-8 0 -15 7 -15 15l1 48c0 7 2 13 9 13h28c7 0 14 7 14 15c0 13 -1 32 0 42v6c0 4 -4 8 -8 8c-54 -1 -99 -1 -111 -1c-20 0 -18 2 -20 45c-1 18 -4 24 30 24c8 0 50 1 102 1c4 0 8 4 8 8v38c0 5 -3 8 -8 8c-55 0 -102 -1 -113 -1c-21 0 -19 2 -21 47c-1 18 -4 25 30 25h69
c6 0 8 6 6 11c-12 32 -28 59 -42 91c-35 72 -57 113 -78 166c-2 3 -5 5 -8 5c-4 0 -9 0 -14 1c-11 0 -20 9 -20 20c-1 12 -1 24 -1 36c0 10 8 18 19 17c42 -2 111 2 145 2c10 0 18 -8 18 -18c0 -12 1 -27 0 -40c0 -9 -8 -17 -18 -17h-10c-6 0 -11 -6 -8 -12
c32 -76 66 -140 103 -192c2 -4 8 -5 10 -1c11 17 34 43 47 67c33 54 44 69 74 126c3 5 -1 12 -7 13h-22c-9 0 -16 7 -17 15c0 13 -2 29 -3 42c-1 9 6 17 15 17c42 2 112 3 160 1z" />
    <glyph glyph-name="uni20BD" unicode="&#x20bd;" horiz-adv-x="529" 
d="M329 274c-34 -8 -72 -7 -105 -8c-4 0 -8 -3 -8 -7v-35c0 -4 4 -7 8 -7c83 1 171 1 185 0c18 -1 12 -13 14 -29c1 -8 0 -20 -1 -30c0 -12 -10 -16 -22 -16c-29 -1 -104 -1 -177 -1c-4 -1 -7 -4 -7 -8c-1 -20 -1 -36 -1 -46c0 -6 4 -10 10 -10l47 -1c5 0 10 -5 10 -10
l1 -57c0 -5 -4 -10 -9 -10h-217c-5 0 -9 5 -9 10l-1 57c0 5 4 10 9 10l48 2c5 1 9 5 9 10v43c0 5 -4 8 -8 8h-43c-21 0 -19 2 -21 50c-1 20 -4 27 30 27h35c4 0 8 4 8 8v32c0 5 -3 9 -8 9c-18 0 -30 -1 -46 0c-21 1 -19 3 -19 51c0 19 -2 27 32 25c8 0 20 0 34 -1
c4 0 8 4 8 9c1 79 1 204 2 252c0 12 -10 21 -21 21l-20 1c-11 0 -20 9 -21 21v33c-1 12 9 22 21 22h54c56 -1 132 5 187 -4c60 -9 155 -46 171 -169c5 -153 -46 -222 -159 -252zM366 562c-15 50 -78 73 -140 59c-5 -2 -9 -7 -9 -13c0 -83 0 -174 1 -260c0 -6 4 -10 10 -10
c81 1 149 42 150 116c-1 35 7 68 -12 108z" />
    <glyph glyph-name="exclam" unicode="!" horiz-adv-x="246" 
d="M177 233c0 -39 -18 -49 -58 -49c-38 0 -53 4 -55 51c-1 36 2 276 0 386c0 45 14 66 47 66c11 0 26 1 37 0c25 -2 30 -29 31 -59c2 -82 -2 -352 -2 -395zM173 109c11 -10 14 -57 11 -74c-4 -36 -33 -36 -71 -35c-28 0 -53 11 -53 59c0 34 0 64 41 67c23 2 54 2 72 -17z
" />
    <glyph glyph-name="question" unicode="?" horiz-adv-x="444" 
d="M108 472h-32c-23 0 -35 15 -35 37c-1 28 7 59 11 71c26 90 89 115 165 117c47 2 137 -10 176 -117c11 -28 22 -85 -18 -160c-26 -47 -31 -52 -100 -124c-19 -19 -22 -56 -21 -84c1 -22 -13 -32 -33 -32h-34c-22 0 -34 15 -34 36c0 26 1 50 6 75c4 19 56 84 71 95
c65 47 64 106 62 129c-3 46 -20 80 -39 92c-29 18 -74 14 -94 -27c-9 -17 -16 -61 -16 -61c0 -20 -7 -47 -35 -47zM154 15c-10 10 -10 60 -8 76c5 37 33 37 72 36c27 0 52 -12 52 -59c0 -35 -7 -66 -48 -69c-23 -1 -49 -3 -68 16z" />
    <glyph glyph-name="divide" unicode="&#xf7;" horiz-adv-x="404" 
d="M248 469c-1 -15 -11 -29 -42 -29c-29 0 -42 7 -44 33c-1 14 1 37 26 37c16 0 20 -1 38 -1c18 -1 23 -22 22 -40zM249 173c0 -6 -1 -13 -1 -21c0 -11 -9 -22 -22 -23c-12 -1 -26 0 -33 0c-20 0 -30 8 -30 34c0 19 7 35 25 35c16 1 20 2 38 0c13 -1 21 -9 23 -25zM374 319
c0 -20 -8 -30 -32 -31c-26 -2 -245 -2 -275 -1c-32 1 -37 12 -36 31c0 22 0 39 34 39c23 0 256 -1 283 -1c22 0 26 -18 26 -37z" />
    <glyph glyph-name="emdash" unicode="&#x2014;" horiz-adv-x="605" 
d="M585 296c0 -23 -8 -34 -31 -35c-26 -1 -467 -1 -496 0c-33 0 -36 12 -37 38c-1 25 0 44 35 44c23 0 476 -1 504 -1c22 0 24 -23 25 -46z" />
    <glyph glyph-name="endash" unicode="&#x2013;" horiz-adv-x="479" 
d="M459 296c0 -23 -8 -34 -31 -35c-26 -1 -341 -1 -370 0c-33 0 -36 12 -37 38c-1 25 0 44 35 44c23 0 350 -1 378 -1c22 0 24 -23 25 -46z" />
    <glyph glyph-name="hyphen" unicode="-" horiz-adv-x="373" 
d="M352 296c1 -23 -7 -34 -31 -35c-26 -1 -234 -1 -263 0c-33 0 -36 12 -37 38c-1 25 0 44 34 44c23 0 245 -1 272 -1c22 0 24 -23 25 -46z" />
    <glyph glyph-name="plus" unicode="+" horiz-adv-x="464" 
d="M443 341c1 -8 0 -26 -1 -36c0 -12 -12 -24 -24 -24c-20 -1 -70 -1 -126 -1c-5 0 -8 -4 -8 -9c0 -71 0 -133 -1 -143c-2 -18 -17 -23 -35 -25c-9 -1 -29 0 -40 0c-13 1 -26 14 -26 26c-1 22 -1 79 -2 142c0 5 -3 8 -8 8c-61 0 -111 1 -122 1c-36 3 -27 11 -29 58
c-1 20 -1 35 31 35h120c5 0 8 4 8 8c0 68 1 126 1 138c3 38 11 29 64 31c22 1 38 1 38 -33v-136c0 -4 4 -8 8 -8c65 1 119 0 128 0c17 -2 22 -16 24 -32z" />
    <glyph glyph-name="plusminus" unicode="&#xb1;" horiz-adv-x="379" 
d="M348 407c1 -7 0 -20 0 -28c-1 -9 -10 -18 -19 -18c-15 0 -52 -1 -94 -1c-4 0 -7 -3 -7 -6c1 -54 0 -100 0 -107c-2 -14 -13 -18 -26 -19c-7 -1 -22 0 -30 0c-10 0 -20 10 -20 19c-1 17 -1 59 -1 107c0 3 -3 6 -7 6c-45 0 -83 0 -91 1c-27 2 -20 8 -22 43
c-1 15 0 26 24 26h89c4 0 7 3 7 7c0 51 0 94 1 103c1 29 8 22 47 23c17 1 29 1 29 -25v-101c0 -3 3 -6 7 -6c48 0 88 0 95 -1c13 -1 17 -12 18 -23zM348 149c1 -6 0 -20 0 -27c-1 -9 -10 -18 -19 -18c-42 -1 -255 -2 -276 -1c-27 2 -20 8 -22 44c-1 15 0 26 24 26
c16 0 257 1 275 0c13 -2 17 -12 18 -24z" />
    <glyph glyph-name="equal" unicode="=" horiz-adv-x="442" 
d="M401 417c0 -9 -1 -27 0 -37c0 -17 -16 -18 -27 -19c-57 -1 -284 0 -309 0c-20 0 -24 7 -23 22c1 8 0 19 -1 34c0 20 0 31 32 31c22 0 280 2 304 0c17 -2 24 -7 24 -31zM41 189c-1 8 1 33 1 43c1 13 11 20 23 20c56 2 281 1 307 0c30 0 30 -8 29 -53c0 -20 1 -34 -31 -34
c-22 0 -280 -2 -304 0c-17 1 -23 8 -25 24z" />
    <glyph glyph-name="less" unicode="&#x3c;" horiz-adv-x="450" 
d="M380 224c28 -10 35 -27 25 -54c-6 -18 -22 -29 -52 -17c-97 38 -266 91 -288 100c-16 7 -24 15 -25 31c0 13 0 21 1 38c2 17 0 25 30 39c19 9 251 124 275 134c16 7 38 14 48 -9c4 -7 7 -14 9 -19c10 -21 -12 -34 -22 -39c-54 -26 -191 -82 -255 -113c-5 -2 -5 -9 0 -11
c83 -27 234 -73 254 -80z" />
    <glyph glyph-name="greater" unicode="&#x3e;" horiz-adv-x="451" 
d="M66 223c20 7 176 54 259 81c4 2 5 9 0 11c-65 31 -204 88 -258 115c-12 6 -28 21 -20 37l9 19c11 20 27 18 45 10c21 -11 260 -126 279 -135c29 -14 24 -15 29 -35c3 -12 1 -34 0 -47c-1 -15 -7 -19 -23 -26c-22 -9 -196 -64 -292 -102c-31 -12 -44 8 -49 24
c-8 21 -6 38 21 48z" />
    <glyph glyph-name="slash" unicode="/" horiz-adv-x="395" 
d="M361 540c-14 -21 -236 -405 -245 -419c-25 -35 -40 -69 -76 -47c-33 21 -19 50 6 92c26 43 184 311 246 406c21 31 28 43 45 35s20 -10 31 -18c15 -11 2 -34 -7 -49z" />
    <glyph glyph-name="asciitilde" unicode="~" horiz-adv-x="569" 
d="M251 278c-62 58 -122 21 -141 -17c-5 -10 -12 -13 -26 -11l-48 6c-14 1 -20 15 -13 30c39 94 103 115 149 115c55 0 112 -26 141 -52s51 -49 80 -50c33 -1 51 8 65 46c4 13 9 13 26 13l46 -2c12 0 21 -11 18 -23c-2 -9 -5 -19 -8 -28c-17 -48 -72 -96 -148 -95
c-77 1 -109 38 -141 68z" />
    <glyph glyph-name="exclamdown" unicode="&#xa1;" horiz-adv-x="245" 
d="M69 226c0 39 18 50 57 50s53 -5 55 -52c2 -36 -2 -295 0 -405c1 -46 -13 -67 -46 -66c-12 0 -26 -1 -38 0c-24 1 -29 29 -30 58c-2 82 2 373 2 415zM72 350c-10 10 -13 57 -11 74c5 36 33 36 71 36c28 -1 53 -12 53 -60c0 -34 0 -64 -41 -67c-23 -2 -53 -2 -72 17z" />
    <glyph glyph-name="questiondown" unicode="&#xbf;" horiz-adv-x="403" 
d="M336 -33h32c23 0 35 -14 35 -37c0 -27 -8 -58 -11 -71c-26 -90 -89 -115 -165 -117c-47 -2 -137 10 -177 117c-10 28 -22 85 19 160c26 48 31 73 100 144c19 19 22 57 21 84c-1 22 13 32 33 32h33c23 0 35 -14 35 -36c0 -25 -2 -50 -6 -75c-4 -18 -56 -83 -71 -94
c-65 -48 -64 -127 -63 -149c3 -47 21 -81 40 -93c28 -18 74 -14 94 27c9 17 15 61 15 62c1 20 8 46 36 46zM289 444c11 -10 10 -60 8 -76c-4 -36 -33 -36 -71 -36c-28 1 -53 12 -53 59c0 35 8 66 49 69c23 2 48 3 67 -16z" />
    <glyph glyph-name="multiply" unicode="&#xd7;" horiz-adv-x="360" 
d="M318 239c11 -14 16 -21 5 -34c-6 -7 -17 -18 -25 -26c-10 -9 -19 -4 -35 11c-15 16 -44 45 -77 77c-4 4 -11 4 -15 0c-38 -37 -70 -68 -79 -75c-26 -20 -34 -9 -50 7c-14 14 -18 20 5 42l74 75c4 5 4 12 0 16c-35 35 -63 64 -71 73c-19 22 -15 30 6 53c14 15 23 11 43 -5
c6 -5 37 -34 73 -69c5 -5 12 -5 16 0c39 39 72 72 79 78c14 11 19 15 31 5c7 -5 19 -19 25 -26c9 -9 -1 -21 -9 -29c-13 -15 -42 -44 -75 -77c-5 -5 -5 -12 0 -16c39 -39 72 -72 79 -80z" />
    <glyph glyph-name="uni00AD" unicode="&#xad;" horiz-adv-x="359" 
d="M338 270c1 -23 -7 -34 -30 -35c-27 -1 -221 -1 -250 -1c-32 1 -36 13 -37 38c-1 26 1 45 35 45c23 0 230 -1 258 -1c22 0 24 -23 24 -46z" />
    <glyph glyph-name="ring" unicode="&#x2da;" horiz-adv-x="233" 
d="M202 674c-5 -54 -57 -77 -106 -67c-52 11 -75 66 -61 110c16 48 56 60 99 56c51 -6 72 -52 68 -99zM119 650c27 0 34 19 34 39c1 24 -5 44 -31 47c-53 7 -57 -86 -3 -86z" />
    <glyph glyph-name="asterisk" unicode="*" horiz-adv-x="323" 
d="M300 594c7 -20 -4 -42 -25 -47l-47 -12c-8 -3 -11 -13 -6 -20l36 -43c11 -15 8 -36 -6 -47l-6 -4c-15 -11 -37 -7 -47 10l-27 45c-5 8 -16 8 -21 0l-26 -42c-10 -16 -32 -20 -47 -9l-5 4c-15 11 -17 33 -5 47l33 39c5 7 2 17 -6 20l-47 12c-21 5 -32 27 -25 47
c8 19 30 28 48 19l42 -19c8 -3 17 3 16 12l-4 45c-2 19 12 35 31 36h7c19 1 35 -16 33 -35l-4 -46c0 -10 9 -16 17 -12l43 19c18 9 40 0 48 -19z" />
    <glyph glyph-name="percent" unicode="%" horiz-adv-x="584" 
d="M251 483c-4 -40 -19 -64 -40 -88c-34 -38 -88 -35 -111 -30c-22 5 -49 32 -63 60c-22 43 -21 153 -6 189c23 55 56 73 105 74c30 1 83 -6 104 -79c13 -47 14 -95 11 -126zM131 422c33 -2 47 23 48 44c1 10 8 56 5 106c-2 29 -13 51 -25 59c-18 11 -47 9 -60 -17
c-6 -11 -14 -28 -15 -53c0 -11 0 -78 3 -93c5 -21 19 -45 44 -46zM562 114c-4 -39 -19 -70 -40 -94c-34 -38 -89 -35 -111 -30s-50 32 -64 60c-21 43 -20 153 -6 189c23 55 57 73 106 75c30 1 83 -7 104 -80c13 -46 14 -88 11 -120zM442 47c33 -2 47 24 48 45
c1 9 9 77 5 105c-5 29 -13 52 -25 59c-19 12 -47 9 -60 -17c-3 -4 -6 -17 -9 -28c-3 -14 -5 -28 -5 -42l2 -69c0 -5 1 -9 3 -13c9 -21 22 -39 41 -40zM447 614c-9 -30 -247 -546 -253 -562c-12 -31 -31 -53 -55 -45c-29 9 -29 36 -11 80c24 58 210 438 248 546
c12 34 34 45 59 38c25 -6 17 -42 12 -57z" />
    <glyph glyph-name="numbersign" unicode="#" horiz-adv-x="553" 
d="M498 545c37 0 46 -3 44 -24c-3 -21 -3 -31 -9 -41c-6 -12 -30 -10 -46 -11h-43c-3 0 -6 -2 -7 -6c-10 -61 -21 -132 -32 -196c-1 -5 2 -9 7 -9c14 0 27 0 39 -1c36 -1 42 -8 40 -27c-1 -12 -4 -22 -5 -31c-3 -26 -29 -21 -45 -22h-45c-3 0 -6 -2 -7 -6l-21 -121
c-8 -40 -10 -54 -46 -52c-19 2 -33 0 -41 9c-8 10 -6 30 -1 54c3 16 10 56 18 109c1 5 -2 9 -6 9c-33 0 -67 1 -99 1c-4 0 -7 -2 -7 -6c-11 -65 -20 -114 -22 -124c-8 -40 -4 -54 -40 -52c-18 2 -39 6 -47 15c-9 10 -6 24 -1 48l19 113c1 4 -2 8 -6 8c-19 0 -31 1 -34 1
c-20 1 -24 0 -30 3c-12 8 -17 22 -13 36c2 9 1 20 5 26c7 11 14 15 31 14c11 0 31 0 56 -1c4 0 7 3 7 6c11 63 22 131 32 194c1 5 -2 9 -7 9c-22 0 -36 0 -39 -1c-27 -2 -40 -1 -42 22c-1 12 -1 23 3 35c3 12 2 18 27 18h66c3 0 6 3 7 6l14 89c5 36 20 45 37 45
c22 0 29 1 41 0c18 -1 15 -34 12 -50l-14 -82c-1 -4 3 -8 7 -8h99c3 0 6 3 7 6l15 89c6 35 20 45 37 45c22 0 29 1 41 0c18 -1 15 -34 12 -50l-14 -81c-1 -5 3 -9 7 -9c15 0 28 0 39 1zM201 269c0 -4 3 -8 7 -8c32 0 66 -1 99 -1c4 0 7 2 7 6c11 63 22 132 32 195
c1 4 -2 8 -7 8h-98c-4 1 -7 -2 -7 -5c-11 -62 -22 -131 -33 -195z" />
    <glyph glyph-name="perthousand" unicode="&#x2030;" horiz-adv-x="782" 
d="M741 114c-4 -44 -21 -77 -43 -101c-34 -38 -74 -35 -109 -23c-21 8 -34 28 -45 50c-40 -73 -97 -55 -120 -50c-22 5 -49 32 -63 60c-21 43 -21 153 -6 189c23 55 57 73 105 75c23 0 59 -10 85 -45c20 28 46 43 80 45c31 1 83 -7 105 -80c13 -46 13 -88 11 -120zM271 483
c-4 -40 -19 -64 -40 -88c-34 -38 -88 -35 -111 -30c-22 5 -49 32 -63 60c-22 43 -21 153 -6 189c23 55 56 73 105 74c30 1 83 -6 104 -79c13 -47 14 -95 11 -126zM473 614c-9 -30 -247 -546 -253 -562c-12 -31 -30 -53 -55 -45c-29 9 -29 36 -11 80c24 58 211 438 248 546
c12 34 21 38 38 40c21 3 25 -7 35 -14c16 -9 3 -30 -2 -45zM621 47c33 0 44 19 50 39c7 30 7 83 3 111c-5 29 -13 52 -25 59c-19 12 -48 9 -61 -17c-4 -9 -11 -39 -13 -49c-1 -3 -1 -5 -1 -8c0 0 -8 -57 6 -95c5 -13 17 -40 41 -40zM151 422c33 -2 47 23 48 44
c1 10 8 56 5 106c-2 29 -13 51 -25 59c-18 11 -47 9 -60 -17c-6 -11 -14 -28 -15 -53c0 -11 0 -78 3 -93c5 -21 19 -45 44 -46zM456 47c32 -2 44 24 48 45c3 16 12 43 4 105c-3 30 -13 52 -25 59c-18 12 -47 9 -60 -17c-4 -9 -11 -39 -13 -49c-1 -3 -1 -5 -1 -8l3 -82
c0 -5 1 -9 3 -13c6 -13 22 -39 41 -40z" />
    <glyph glyph-name="bar" unicode="|" horiz-adv-x="209" 
d="M82 726h37c16 0 28 -10 28 -29l2 -664c0 -26 -13 -36 -30 -36c0 0 -13 -1 -28 -1c-17 0 -29 16 -29 39l-2 655c0 20 6 36 22 36z" />
    <glyph glyph-name="brokenbar" unicode="&#xa6;" horiz-adv-x="210" 
d="M101 728c7 0 13 0 17 -1h7c12 0 22 -8 22 -18l3 -290c0 -10 -10 -18 -22 -18h-5c-1 0 -1 -1 -2 -1c-13 -1 -20 0 -35 1c-13 1 -24 11 -24 24l-2 286c0 7 6 14 13 15c11 1 15 2 28 2zM101 327c7 0 13 -1 17 -2h7c12 0 22 -8 22 -18l3 -290c0 -10 -10 -18 -22 -18h-7
c-13 -1 -20 -1 -35 0c-13 1 -24 12 -24 25l-2 285c0 8 6 14 13 15c11 1 15 3 28 3z" />
    <glyph glyph-name="underscore" unicode="_" horiz-adv-x="474" 
d="M473 -30c1 -23 -7 -38 -30 -39c-26 -1 -374 -1 -403 0c-32 0 -38 10 -39 35s4 41 38 41c23 0 376 1 403 1c22 0 31 -15 31 -38z" />
    <glyph glyph-name="parenleft" unicode="(" horiz-adv-x="271" 
d="M220 768c12 -3 18 -16 14 -27l-18 -54c-8 -29 -16 -59 -23 -88c-15 -70 -28 -143 -34 -214c-6 -59 0 -124 3 -184c4 -54 10 -107 21 -160c4 -25 9 -51 16 -76c10 -39 28 -76 39 -115c4 -12 3 -15 -6 -24c-9 -8 -18 -14 -29 -7s-21 26 -28 36c-12 18 -23 37 -33 57
c-20 38 -30 78 -43 118c-14 43 -26 84 -31 128c-8 56 -9 112 -6 168c3 72 16 136 37 205c22 70 43 147 84 208l15 21c5 7 13 10 22 8z" />
    <glyph glyph-name="parenright" unicode=")" horiz-adv-x="270" 
d="M49 768h1c8 2 17 -2 21 -10c19 -34 69 -130 87 -188c20 -61 39 -122 46 -187c6 -58 7 -116 3 -175c-5 -86 -29 -168 -57 -249c-14 -38 -35 -74 -57 -107c-16 -22 -31 -50 -57 -24c-18 18 10 58 18 80c10 30 19 61 25 92c22 106 29 208 32 315c2 73 -9 145 -21 217
c-7 42 -26 130 -44 183c-2 7 -7 18 -11 27c-4 11 3 23 14 26z" />
    <glyph glyph-name="bracketleft" unicode="[" horiz-adv-x="301" 
d="M240 743c1 -7 -1 -16 -2 -25c0 -11 -10 -20 -22 -20h-16c-10 -1 -19 -9 -19 -20l-2 -759c0 -10 8 -19 19 -20h4c38 -2 37 -15 36 -47c-1 -19 -12 -29 -46 -29h-75c-27 0 -37 17 -37 42l2 872c0 20 12 33 31 33c0 0 70 0 95 1c27 1 30 -14 32 -28z" />
    <glyph glyph-name="bracketright" unicode="]" horiz-adv-x="301" 
d="M61 743c2 14 6 29 32 28c25 -1 95 -1 95 -1c19 0 31 -13 31 -33l2 -872c0 -25 -10 -42 -37 -42h-75c-34 0 -45 10 -46 29c-1 32 -2 45 36 47h4c11 1 19 10 19 20l-2 759c0 11 -8 19 -19 20h-16c-12 0 -22 9 -22 20c-1 9 -3 18 -2 25z" />
    <glyph glyph-name="braceleft" unicode="{" horiz-adv-x="290" 
d="M270 -144c-1 -24 4 -32 -14 -34c-4 0 -11 -2 -19 0c-91 18 -137 107 -137 175l1 126c0 28 -7 74 -7 74c-4 26 -13 51 -27 74l-22 23c-6 9 -6 47 0 56l27 28c18 26 27 62 27 93v126c0 68 45 157 136 175c8 2 15 0 20 0c18 -2 12 -10 13 -34c1 -8 -68 2 -68 -82
c0 -155 -14 -251 -58 -316l-8 -10c-4 -7 -5 -17 0 -24c36 -50 63 -109 63 -168c0 -58 5 -107 5 -200c0 -85 68 -74 68 -82z" />
    <glyph glyph-name="braceright" unicode="}" horiz-adv-x="291" 
d="M20 -144c0 8 69 -3 69 82c0 93 4 142 4 200c0 59 27 118 63 168c5 7 5 17 0 24l-7 10c-44 65 -59 161 -59 316c0 84 -68 74 -68 82c1 24 -4 32 14 34c4 0 11 2 19 0c91 -18 137 -107 137 -175l-1 -126c0 -31 10 -67 27 -93l27 -28c7 -9 7 -47 1 -56l-23 -23
c-14 -23 -23 -48 -27 -74c1 0 -6 -46 -6 -74v-126c0 -68 -45 -157 -136 -175c-9 -2 -16 0 -20 0c-18 2 -13 10 -14 34z" />
    <glyph glyph-name="colon" unicode=":" horiz-adv-x="201" 
d="M152 523c9 -13 10 -45 7 -62c-7 -30 -29 -39 -67 -39c-27 0 -51 17 -52 59c0 31 4 60 44 64c23 3 53 3 68 -22zM152 107c9 -13 10 -46 7 -62c-7 -30 -29 -40 -67 -39c-27 0 -51 17 -52 58c0 32 4 60 44 65c23 3 53 2 68 -22z" />
    <glyph glyph-name="semicolon" unicode=";" horiz-adv-x="203" 
d="M152 523c9 -13 10 -45 7 -62c-7 -30 -29 -39 -66 -39c-28 0 -52 17 -53 59c0 31 4 60 44 64c23 3 53 3 68 -22zM163 71c0 -21 -2 -38 -10 -53c-7 -15 -26 -44 -42 -69c-9 -14 -16 -26 -27 -39c-7 -7 -18 -9 -25 -4c-6 5 -9 13 -6 21c4 11 31 73 18 77h1
c-9 2 -17 6 -23 14c-9 12 -8 58 -6 74c4 36 30 38 67 37c28 0 53 -11 53 -58z" />
    <glyph glyph-name="comma" unicode="," horiz-adv-x="202" 
d="M162 63c0 -21 -2 -38 -9 -53c-8 -15 -26 -44 -43 -69c-9 -14 -16 -26 -27 -39c-6 -7 -17 -9 -24 -4c-6 5 -9 13 -6 21c3 11 31 73 18 77c-9 2 -17 6 -22 14c-10 12 -9 58 -7 74c5 36 30 38 68 37c28 0 52 -11 52 -58z" />
    <glyph glyph-name="period" unicode="." horiz-adv-x="200" 
d="M48 20c-8 13 -10 46 -6 62c6 30 28 40 66 39c27 0 52 -16 52 -58c0 -31 -4 -60 -44 -65c-22 -2 -52 -2 -68 22z" />
    <glyph glyph-name="quotedblleft" unicode="&#x201c;" horiz-adv-x="357" 
d="M195 521c0 21 2 38 9 53c8 14 27 44 43 69c9 14 16 25 27 38c7 8 18 10 24 5c7 -5 9 -13 7 -21c-4 -11 -32 -73 -19 -77c9 -3 17 -7 23 -14c9 -13 8 -58 6 -75c-5 -35 -30 -37 -68 -37c-27 1 -52 12 -52 59zM40 521c0 21 2 38 9 53c8 14 27 44 43 69c9 14 16 25 27 38
c6 8 18 10 24 5c7 -5 9 -13 6 -21c-3 -11 -31 -73 -18 -77c9 -3 17 -7 22 -14c10 -13 9 -58 7 -75c-5 -35 -30 -37 -68 -37c-28 1 -52 12 -52 59z" />
    <glyph glyph-name="quotedblright" unicode="&#x201d;" horiz-adv-x="357" 
d="M162 630c0 -21 -2 -38 -9 -52c-8 -15 -27 -45 -43 -70c-9 -14 -16 -25 -27 -38c-7 -8 -18 -10 -24 -5c-7 5 -9 13 -7 21c4 12 32 73 19 78c-9 2 -17 6 -23 13c-9 13 -8 58 -6 75c5 36 30 37 68 37c27 -1 52 -12 52 -59zM317 630c0 -21 -2 -38 -9 -52
c-8 -15 -27 -45 -43 -70c-9 -14 -16 -25 -27 -38c-6 -8 -18 -10 -24 -5c-7 5 -9 13 -6 21c3 12 31 73 18 78c-9 2 -17 6 -22 13c-10 13 -9 58 -7 75c5 36 30 37 68 37c28 -1 52 -12 52 -59z" />
    <glyph glyph-name="quoteright" unicode="&#x2019;" horiz-adv-x="202" 
d="M162 636c0 -21 -2 -38 -9 -52c-8 -15 -27 -45 -43 -69c-9 -15 -16 -26 -27 -39c-7 -8 -18 -10 -24 -5c-7 5 -9 13 -7 22c4 11 32 72 19 77c-9 2 -17 6 -23 13c-9 13 -8 59 -6 75c5 36 30 37 68 37c27 0 52 -11 52 -59z" />
    <glyph glyph-name="quotedblbase" unicode="&#x201e;" horiz-adv-x="358" 
d="M163 62c0 -21 -2 -38 -10 -53c-7 -15 -26 -44 -42 -69c-10 -14 -17 -26 -28 -39c-6 -7 -17 -9 -24 -4c-6 5 -9 13 -6 21c4 11 31 73 18 77c-9 2 -17 6 -22 14c-10 12 -9 58 -6 74c4 36 29 38 67 37c28 0 53 -11 53 -58zM318 62c0 -21 -2 -38 -10 -53
c-7 -15 -26 -44 -42 -69c-9 -14 -16 -26 -27 -39c-7 -7 -18 -9 -25 -4c-6 5 -8 13 -6 21c4 11 32 73 19 77c-9 2 -17 6 -23 14c-9 12 -8 58 -6 74c4 36 30 38 68 37c27 0 52 -11 52 -58z" />
    <glyph glyph-name="quotesingle" unicode="'" horiz-adv-x="184" 
d="M144 623c0 -21 -2 -38 -10 -52c-7 -15 -52 -95 -63 -108c-7 -8 -18 -10 -25 -5c-6 5 -6 13 -6 21c0 22 0 146 2 162c5 36 31 41 55 41c28 0 47 -12 47 -59z" />
    <glyph glyph-name="quotedbl" unicode="&#x22;" horiz-adv-x="293" 
d="M253 641c0 -21 -2 -38 -9 -52c-8 -15 -46 -95 -57 -108c-6 -8 -18 -10 -24 -5c-7 5 -6 13 -6 21c-1 22 0 146 2 162c4 36 31 41 55 41c28 0 39 -12 39 -59zM134 641c0 -21 -2 -38 -10 -52c-7 -15 -42 -95 -53 -108c-7 -8 -18 -10 -24 -5c-7 5 -6 13 -7 21
c0 22 0 146 2 162c5 36 30 41 54 41c27 0 38 -12 38 -59z" />
    <glyph glyph-name="ellipsis" unicode="&#x2026;" horiz-adv-x="640" 
d="M376 98c9 -13 10 -46 6 -62c-6 -30 -28 -40 -66 -39c-27 0 -52 17 -52 58c0 32 4 60 44 65c22 3 53 2 68 -22zM152 98c9 -13 10 -46 7 -62c-7 -30 -29 -40 -66 -39c-28 0 -52 17 -53 58c0 32 4 60 44 65c23 3 53 2 68 -22zM591 98c9 -13 10 -46 7 -62
c-7 -30 -29 -40 -66 -39c-28 0 -52 17 -53 58c0 32 4 60 44 65c23 3 53 2 68 -22z" />
    <glyph glyph-name="backslash" unicode="\" horiz-adv-x="422" 
d="M29 682c-6 15 -17 52 2 53c12 2 34 3 43 3c17 0 25 -12 39 -45c42 -101 259 -589 276 -634c17 -44 22 -59 -16 -59c-17 0 -32 -1 -41 2c-19 7 -24 24 -35 49c-7 15 -259 606 -268 631z" />
    <glyph glyph-name="bullet" unicode="&#x2022;" horiz-adv-x="277" 
d="M236 335c-2 -70 -44 -110 -97 -110c-54 0 -102 50 -98 110c5 68 44 112 98 110c72 -3 98 -49 97 -110z" />
    <glyph glyph-name="guillemotleft" unicode="&#xab;" horiz-adv-x="529" 
d="M280 158c20 -23 42 -39 4 -63c-23 -13 -39 -3 -56 16c-59 61 -124 119 -175 163c-16 14 -17 38 -1 52c41 38 79 77 184 178c17 15 53 -1 64 -23c3 -8 1 -19 -12 -33c-56 -57 -86 -92 -121 -135c-4 -5 -4 -13 0 -18c44 -55 72 -87 113 -137zM465 177c17 -25 42 -39 3 -63
c-22 -14 -37 -3 -56 15c-59 56 -116 109 -157 146c-15 14 -16 37 0 51c36 32 60 56 166 159c16 16 53 -1 63 -23c4 -7 2 -19 -11 -32c-56 -55 -76 -78 -114 -115c-6 -6 -6 -15 -1 -21c46 -53 82 -81 107 -117z" />
    <glyph glyph-name="guillemotright" unicode="&#xbb;" horiz-adv-x="531" 
d="M249 158c43 51 71 84 117 141c2 3 2 7 -1 10c-36 45 -66 80 -123 139c-13 14 -15 25 -12 33c11 22 47 38 63 23c107 -103 144 -141 186 -179c15 -14 15 -36 0 -50c-52 -44 -118 -111 -177 -164c-19 -18 -33 -29 -56 -16c-38 24 -16 40 3 63zM65 177c31 37 60 65 108 119
c4 5 4 12 -1 17c-37 38 -61 61 -115 117c-13 13 -15 25 -12 32c11 22 48 39 64 23c107 -104 131 -127 168 -161c14 -13 14 -35 -1 -48c-41 -36 -98 -90 -159 -147c-19 -18 -33 -29 -56 -15c-38 24 -16 40 4 63z" />
    <glyph glyph-name="degree" unicode="&#xb0;" horiz-adv-x="308" 
d="M285 590c-4 -40 -23 -63 -45 -86c-38 -40 -110 -27 -133 -22s-57 28 -71 56c-21 43 -19 107 -4 143c25 59 67 77 124 76c31 -1 84 -6 121 -82c14 -29 11 -53 8 -85zM148 530c33 1 53 14 68 51c4 12 6 41 4 57c-3 40 -31 69 -65 70c-45 1 -62 -47 -66 -72
c-3 -14 -3 -37 3 -59c8 -29 32 -47 56 -47z" />
    <glyph glyph-name="grave" unicode="`" horiz-adv-x="213" 
d="M175 652c4 -6 14 -26 2 -36c-11 -8 -26 -3 -36 6c-43 38 -51 45 -98 91c-19 19 -16 42 6 58c21 15 43 14 59 -10c37 -55 45 -72 67 -109z" />
    <glyph glyph-name="acute" unicode="&#xb4;" horiz-adv-x="213" 
d="M38 650c22 37 30 53 66 109c17 24 39 25 60 10c22 -16 25 -39 6 -58c-47 -46 -55 -53 -98 -91c-10 -9 -26 -14 -36 -6c-12 10 -2 30 2 36z" />
    <glyph glyph-name="dieresis" unicode="&#xa8;" horiz-adv-x="323" 
d="M291 642c0 -24 -30 -30 -60 -29c-32 2 -42 13 -43 41c-2 37 15 51 57 49c57 -1 47 -46 46 -61zM135 642c0 -24 -31 -30 -60 -29c-32 2 -42 13 -44 41c-1 37 16 51 57 49c58 -1 47 -46 47 -61z" />
    <glyph glyph-name="circumflex" unicode="&#x2c6;" horiz-adv-x="313" 
d="M92 631c-25 -17 -35 -31 -53 -15c-17 15 -5 33 13 51c32 31 54 47 70 61c8 7 16 15 34 15s22 -5 32 -15c32 -30 46 -39 81 -73c18 -17 17 -31 4 -42c-15 -14 -36 2 -51 14c-26 20 -45 31 -59 40c-5 2 -9 2 -13 0c-22 -12 -33 -19 -58 -36z" />
    <glyph glyph-name="tilde" unicode="&#x2dc;" horiz-adv-x="373" 
d="M241 617c-32 0 -60 23 -80 37c-27 19 -57 8 -69 -24c-3 -10 -9 -19 -36 -14c-21 4 -27 12 -25 24c12 73 63 85 92 85c27 1 51 -16 70 -31c16 -12 30 -22 44 -22s31 8 38 30c5 17 13 23 36 21c20 -2 35 -13 31 -31c-16 -69 -63 -75 -101 -75z" />
    <glyph glyph-name="macron" unicode="&#xaf;" horiz-adv-x="318" 
d="M287 652v-16c0 -14 -13 -22 -30 -22h-186c-32 0 -41 8 -41 31c0 22 10 33 39 33c23 -1 164 1 189 1c22 0 30 -12 29 -27z" />
    <glyph glyph-name="dotaccent" unicode="&#x2d9;" horiz-adv-x="185" 
d="M154 647c-1 -29 -36 -36 -72 -34c-37 2 -49 15 -51 48c-2 44 19 60 67 59c69 -2 56 -56 56 -73z" />
    <glyph glyph-name="cedilla" unicode="&#xb8;" horiz-adv-x="228" 
d="M105 -194c-10 0 -32 3 -48 8c-12 5 -18 17 -13 28l1 5c4 10 14 15 24 13c21 -6 57 -11 69 6c6 10 7 23 5 29c-15 53 -106 20 -106 20c-4 -1 -7 2 -6 6l4 31c1 1 1 2 1 3l15 45l56 -1l-12 -27c-2 -4 -1 -9 2 -9c49 8 87 -9 98 -54c8 -31 -2 -61 -24 -81
c-11 -10 -32 -22 -66 -22z" />
    <glyph glyph-name="hungarumlaut" unicode="&#x2dd;" horiz-adv-x="324" 
d="M37 644c22 38 27 52 60 109c15 26 39 29 60 14c22 -16 14 -32 -3 -50c-40 -46 -46 -58 -85 -98c-9 -10 -21 -15 -31 -7c-13 10 -5 26 -1 32zM128 648c25 34 48 58 91 109c19 23 40 26 59 8c21 -19 20 -39 0 -56c-54 -44 -76 -62 -116 -91c-11 -8 -26 -14 -36 -5
c-13 9 -3 30 2 35z" />
    <glyph glyph-name="ogonek" unicode="&#x2db;" horiz-adv-x="235" 
d="M101 1c0 0 21 -2 39 -2c-17 -14 -39 -37 -39 -78c0 -29 22 -56 51 -54c8 0 14 2 20 4c10 4 22 -1 27 -11l3 -7c6 -11 0 -25 -11 -30c-9 -3 -21 -6 -39 -9c-48 -6 -122 20 -122 97c0 74 71 90 71 90z" />
    <glyph glyph-name="caron" unicode="&#x2c7;" horiz-adv-x="313" 
d="M92 726c25 -18 36 -25 58 -36c4 -3 8 -3 13 0c14 8 33 19 59 40c15 11 36 27 51 14c13 -12 14 -26 -4 -43c-35 -34 -49 -43 -81 -73c-10 -9 -14 -14 -32 -15c-18 0 -26 9 -34 15c-16 14 -38 31 -70 61c-18 18 -30 37 -13 52c18 15 28 2 53 -15z" />
    <glyph glyph-name="guilsinglleft" unicode="&#x2039;" horiz-adv-x="285" 
d="M221 165c16 -26 42 -40 3 -63c-22 -14 -39 -5 -56 15c-59 68 -85 112 -119 157c-11 16 -12 37 0 53l128 171c13 17 53 -1 63 -23c4 -8 -2 -17 -12 -33c-37 -59 -50 -76 -74 -113c-9 -15 -9 -34 0 -49c32 -53 42 -75 67 -115z" />
    <glyph glyph-name="guilsinglright" unicode="&#x203a;" horiz-adv-x="289" 
d="M64 165c26 42 36 64 72 122c6 11 6 24 0 34c-27 42 -40 58 -79 121c-10 16 -16 25 -12 33c10 22 50 40 63 23c78 -105 100 -133 135 -180c7 -10 7 -25 -1 -35c-36 -48 -63 -94 -125 -166c-17 -20 -33 -29 -56 -15c-39 23 -13 37 3 63z" />
    <glyph glyph-name="quotesinglbase" unicode="&#x201a;" horiz-adv-x="202" 
d="M162 63c0 -21 -2 -38 -9 -53c-8 -15 -26 -44 -43 -69c-9 -14 -16 -26 -27 -39c-6 -7 -17 -9 -24 -4c-6 5 -9 13 -6 21c3 11 31 73 18 77c-9 2 -17 6 -22 14c-10 12 -9 58 -7 74c5 36 30 38 68 37c28 0 52 -11 52 -58z" />
    <glyph glyph-name="Adieresis" unicode="&#xc4;" 
d="M560 77c11 0 19 -9 19 -20v-39c0 -10 -9 -19 -20 -19l-162 1c-10 0 -19 8 -19 19v39c0 10 8 19 19 19h14c6 1 10 6 8 12c-10 27 -23 92 -37 133c-2 8 -10 12 -22 11c-38 -1 -91 1 -126 1c-8 0 -16 -5 -18 -13c-11 -33 -18 -58 -27 -92c-3 -11 -10 -27 -14 -39
c-2 -6 7 -13 13 -13l17 -1c13 0 23 -11 23 -24l-1 -28c0 -13 -11 -24 -24 -24h-164c-16 0 -29 13 -29 29l1 22c1 14 12 26 27 27h7c9 0 16 6 19 14c28 70 130 386 196 590c6 17 22 29 40 28h14c18 -1 34 -13 39 -30c46 -154 154 -512 182 -589c3 -8 10 -13 19 -14h6z
M347 311c9 0 15 8 13 16c-12 56 -44 171 -48 189c0 1 -2 3 -4 3h-7c-2 0 -4 -2 -4 -4c-6 -20 -39 -133 -52 -187c-2 -8 4 -16 12 -16c24 0 66 -1 90 -1zM438 802c0 -24 -30 -30 -60 -29c-32 2 -42 13 -43 41c-2 37 15 51 57 49c57 -1 47 -46 46 -61zM282 802
c0 -24 -31 -30 -60 -29c-32 2 -42 13 -44 41c-1 37 16 51 57 49c58 -1 47 -46 47 -61z" />
    <glyph glyph-name="Aring" unicode="&#xc5;" 
d="M560 77c11 0 19 -9 19 -20v-39c0 -10 -9 -19 -20 -19l-162 1c-10 0 -19 8 -19 19v39c0 10 8 19 19 19h14c6 1 10 6 8 12c-10 27 -23 92 -37 133c-2 8 -10 12 -22 11c-38 -1 -91 1 -126 1c-8 0 -16 -5 -18 -13c-11 -33 -18 -58 -27 -92c-3 -11 -10 -27 -14 -39
c-2 -6 7 -13 13 -13l17 -1c13 0 23 -11 23 -24l-1 -28c0 -13 -11 -24 -24 -24h-164c-16 0 -29 13 -29 29l1 22c1 14 12 26 27 27h7c9 0 16 6 19 14c28 70 130 386 196 590c6 17 22 29 40 28h14c18 -1 34 -13 39 -30c46 -154 154 -512 182 -589c3 -8 10 -13 19 -14h6z
M347 311c9 0 15 8 13 16c-12 56 -44 171 -48 189c0 1 -2 3 -4 3h-7c-2 0 -4 -2 -4 -4c-6 -20 -39 -133 -52 -187c-2 -8 4 -16 12 -16c24 0 66 -1 90 -1zM395 822c-5 -54 -57 -77 -106 -67c-52 11 -75 66 -61 110c16 48 56 60 99 56c51 -6 72 -52 68 -99zM312 798
c27 0 34 19 34 39c1 24 -5 44 -31 47c-53 7 -57 -86 -3 -86z" />
    <glyph glyph-name="Ccedilla" unicode="&#xc7;" horiz-adv-x="506" 
d="M314 -194c-10 0 -32 3 -48 8c-12 5 -18 17 -13 28l1 5c4 10 14 15 24 13c21 -6 57 -11 69 6c6 10 7 23 5 29c-15 53 -106 20 -106 20c-4 -1 -7 2 -6 6l4 31c1 1 1 2 1 3l12 38c-190 12 -223 225 -216 381c6 136 32 298 192 329c91 18 166 -7 228 -77c8 -9 12 -20 12 -32
c0 -20 1 -29 1 -37c0 -20 -15 -36 -35 -37h-19c-19 -1 -35 13 -37 32c-1 5 -1 9 -1 14c-1 13 -5 26 -14 35c-17 19 -45 34 -89 33c-133 -16 -114 -168 -120 -269c2 -139 -17 -298 138 -298c57 0 79 47 91 83c0 20 -1 27 -1 38c0 18 15 33 33 32c8 -1 16 -1 25 -1
c17 0 30 -14 31 -31c0 -23 -1 -39 -1 -62c0 -7 -2 -15 -5 -22c-30 -84 -75 -106 -157 -111l-9 -21c-2 -4 -1 -9 2 -9c49 8 87 -9 98 -54c8 -31 -2 -61 -24 -81c-11 -10 -32 -22 -66 -22z" />
    <glyph glyph-name="Eacute" unicode="&#xc9;" horiz-adv-x="469" 
d="M402 565c-10 0 -21 -1 -32 -1c-12 0 -22 9 -22 21l-2 18c-2 10 -11 18 -22 18c-30 0 -75 -1 -108 -1c-12 0 -22 -10 -22 -22c0 -43 -2 -112 -3 -157c0 -12 10 -22 23 -22c42 0 103 2 151 0c11 -1 20 -10 21 -22c0 -11 0 -24 -1 -35c-2 -16 -15 -28 -30 -27
c-38 1 -106 3 -140 3c-12 0 -22 -10 -22 -22c0 -77 1 -135 1 -213c0 -12 9 -22 21 -23c39 -1 105 -1 129 0c6 0 4 13 4 26c0 9 6 21 18 21c13 0 24 0 36 -1c12 0 22 -10 22 -22c0 -23 -1 -49 -3 -85c-1 -11 -10 -20 -21 -20c-88 1 -227 0 -314 1c-6 1 -19 0 -27 0
c-12 0 -18 8 -18 21c-1 11 -1 27 -1 38c0 14 4 20 18 20c1 0 11 1 12 1c13 -1 20 11 20 24c1 159 2 332 2 495c0 13 -12 24 -25 22c-11 -1 -21 8 -22 20c0 12 -1 27 0 39c0 11 10 20 21 20c95 1 234 -1 341 0c13 0 22 -11 22 -24c-1 -33 -2 -67 -5 -92
c-2 -11 -11 -19 -22 -19zM231 803c22 37 30 53 66 109c17 24 39 25 60 10c22 -16 25 -39 6 -58c-47 -46 -55 -53 -98 -91c-10 -9 -26 -14 -36 -6c-12 10 -2 30 2 36z" />
    <glyph glyph-name="Ntilde" unicode="&#xd1;" horiz-adv-x="564" 
d="M395 239l3 360c0 10 -8 18 -18 18h-5c-10 0 -18 8 -18 18v47c0 10 8 18 18 18l142 -1c9 0 17 -8 17 -17v-46c0 -10 -8 -18 -17 -18h-10c-10 -1 -17 -8 -17 -18v-336l3 -246c1 -10 -8 -18 -18 -18h-42c-11 0 -21 5 -26 15l-234 463c-2 3 -6 2 -6 -1l1 -384
c0 -10 9 -19 19 -19h4c11 0 19 -9 19 -20l-1 -36c0 -11 -8 -19 -19 -19l-129 1c-11 0 -19 8 -19 19l-1 35c0 10 8 19 19 19c10 0 19 9 19 19l-1 511c0 8 -7 14 -15 14h-18c-8 0 -15 6 -15 14v55c0 8 7 14 15 14h94c11 1 21 -6 27 -16l221 -447c2 -4 8 -3 8 2zM337 768
c-32 0 -60 23 -80 37c-27 19 -57 8 -69 -24c-3 -10 -9 -19 -36 -14c-21 4 -27 12 -25 24c12 73 63 85 92 85c27 1 51 -16 70 -31c16 -12 30 -22 44 -22s31 8 38 30c5 17 13 23 36 21c20 -2 35 -13 31 -31c-16 -69 -63 -75 -101 -75z" />
    <glyph glyph-name="Odieresis" unicode="&#xd6;" horiz-adv-x="561" 
d="M281 -9c-184 0 -241 185 -241 371c0 160 59 332 234 345c195 0 247 -182 247 -341c0 -210 -74 -375 -240 -375zM274 629c-94 0 -135 -118 -135 -262c0 -173 49 -294 144 -294c104 0 138 112 138 292c0 158 -30 264 -147 264zM403 796c0 -24 -30 -30 -60 -29
c-32 2 -42 13 -43 41c-2 37 15 51 57 49c57 -1 47 -46 46 -61zM247 796c0 -24 -31 -30 -60 -29c-32 2 -42 13 -44 41c-1 37 16 51 57 49c58 -1 47 -46 47 -61z" />
    <glyph glyph-name="Udieresis" unicode="&#xdc;" horiz-adv-x="626" 
d="M562 700c13 0 24 -11 24 -24v-32c0 -13 -9 -23 -27 -25c-13 -1 -22 -11 -22 -24v-294c0 -241 -49 -310 -226 -310c-160 0 -222 45 -222 311c0 72 -2 280 0 294c0 13 -10 24 -25 24c-13 1 -23 11 -23 23l-1 31c0 13 9 24 22 26h159c14 0 25 -11 25 -24v-32
c0 -13 -10 -23 -22 -24c-18 -2 -28 -12 -28 -25c-2 -60 -4 -227 -4 -297c0 -150 4 -227 117 -227s121 89 121 230c0 100 0 234 -1 295c0 13 -10 24 -25 24c-12 1 -22 11 -23 23l-1 30c-1 13 8 24 21 26h3zM439 794c0 -24 -30 -30 -60 -29c-32 2 -42 13 -43 41
c-2 37 15 51 57 49c57 -1 47 -46 46 -61zM283 794c0 -24 -31 -30 -60 -29c-32 2 -42 13 -44 41c-1 37 16 51 57 49c58 -1 47 -46 47 -61z" />
    <glyph glyph-name="aacute" unicode="&#xe1;" horiz-adv-x="463" 
d="M399 74h13c16 0 21 -13 21 -26v-26c0 -17 -14 -22 -26 -22h-85c-15 0 -26 13 -27 26c-1 11 -2 18 -2 24v8c-1 4 -4 4 -6 0c-7 -12 -15 -23 -24 -33c-23 -25 -71 -30 -92 -30c-20 0 -32 -2 -51 5c-8 3 -15 7 -23 12c-5 3 -18 14 -20 17c-41 39 -46 124 -23 181
c29 73 85 104 168 105c23 0 39 0 48 -1c8 -1 15 6 15 14c1 17 1 47 -3 69c-6 43 -16 72 -67 73c-58 1 -72 -36 -78 -44c-2 -3 -3 -26 -3 -31c0 -13 -7 -18 -17 -18c-2 0 -44 -1 -48 0c-11 0 -20 5 -19 20c0 1 -1 34 -1 46c1 3 1 7 3 10c9 20 50 89 161 91
c92 2 119 -41 147 -90c15 -26 19 -59 21 -95c2 -43 5 -258 5 -262c0 -14 4 -23 13 -23zM179 84c39 -5 105 29 108 65c1 17 0 54 -1 77c0 8 -6 13 -13 14c-27 1 -66 1 -91 -5c-55 -15 -51 -58 -51 -91s16 -55 48 -60zM192 665c22 37 30 53 66 109c17 24 39 25 60 10
c22 -16 25 -39 6 -58c-47 -46 -55 -53 -98 -91c-10 -9 -26 -14 -36 -6c-12 10 -2 30 2 36z" />
    <glyph glyph-name="agrave" unicode="&#xe0;" horiz-adv-x="463" 
d="M399 74h13c16 0 21 -13 21 -26v-26c0 -17 -14 -22 -26 -22h-85c-15 0 -26 13 -27 26c-1 11 -2 18 -2 24v8c-1 4 -4 4 -6 0c-7 -12 -15 -23 -24 -33c-23 -25 -71 -30 -92 -30c-20 0 -32 -2 -51 5c-8 3 -15 7 -23 12c-5 3 -18 14 -20 17c-41 39 -46 124 -23 181
c29 73 85 104 168 105c23 0 39 0 48 -1c8 -1 15 6 15 14c1 17 1 47 -3 69c-6 43 -16 72 -67 73c-58 1 -72 -36 -78 -44c-2 -3 -3 -26 -3 -31c0 -13 -7 -18 -17 -18c-2 0 -44 -1 -48 0c-11 0 -20 5 -19 20c0 1 -1 34 -1 46c1 3 1 7 3 10c9 20 50 89 161 91
c92 2 119 -41 147 -90c15 -26 19 -59 21 -95c2 -43 5 -258 5 -262c0 -14 4 -23 13 -23zM179 84c39 -5 105 29 108 65c1 17 0 54 -1 77c0 8 -6 13 -13 14c-27 1 -66 1 -91 -5c-55 -15 -51 -58 -51 -91s16 -55 48 -60zM231 658c4 -6 14 -26 2 -36c-11 -8 -26 -3 -36 6
c-43 38 -51 45 -98 91c-19 19 -16 42 6 58c21 15 43 14 59 -10c37 -55 45 -72 67 -109z" />
    <glyph glyph-name="acircumflex" unicode="&#xe2;" horiz-adv-x="463" 
d="M399 74h13c16 0 21 -13 21 -26v-26c0 -17 -14 -22 -26 -22h-85c-15 0 -26 13 -27 26c-1 11 -2 18 -2 24v8c-1 4 -4 4 -6 0c-7 -12 -15 -23 -24 -33c-23 -25 -71 -30 -92 -30c-20 0 -32 -2 -51 5c-8 3 -15 7 -23 12c-5 3 -18 14 -20 17c-41 39 -46 124 -23 181
c29 73 85 104 168 105c23 0 39 0 48 -1c8 -1 15 6 15 14c1 17 1 47 -3 69c-6 43 -16 72 -67 73c-58 1 -72 -36 -78 -44c-2 -3 -3 -26 -3 -31c0 -13 -7 -18 -17 -18c-2 0 -44 -1 -48 0c-11 0 -20 5 -19 20c0 1 -1 34 -1 46c1 3 1 7 3 10c9 20 50 89 161 91
c92 2 119 -41 147 -90c15 -26 19 -59 21 -95c2 -43 5 -258 5 -262c0 -14 4 -23 13 -23zM179 84c39 -5 105 29 108 65c1 17 0 54 -1 77c0 8 -6 13 -13 14c-27 1 -66 1 -91 -5c-55 -15 -51 -58 -51 -91s16 -55 48 -60zM163 640c-25 -17 -35 -31 -53 -15c-17 15 -5 33 13 51
c32 31 54 47 70 61c8 7 16 15 34 15s22 -5 32 -15c32 -30 46 -39 81 -73c18 -17 17 -31 4 -42c-15 -14 -36 2 -51 14c-26 20 -45 31 -59 40c-5 2 -9 2 -13 0c-22 -12 -33 -19 -58 -36z" />
    <glyph glyph-name="adieresis" unicode="&#xe4;" horiz-adv-x="463" 
d="M399 74h13c16 0 21 -13 21 -26v-26c0 -17 -14 -22 -26 -22h-85c-15 0 -26 13 -27 26c-1 11 -2 18 -2 24v8c-1 4 -4 4 -6 0c-7 -12 -15 -23 -24 -33c-23 -25 -71 -30 -92 -30c-20 0 -32 -2 -51 5c-8 3 -15 7 -23 12c-5 3 -18 14 -20 17c-41 39 -46 124 -23 181
c29 73 85 104 168 105c23 0 39 0 48 -1c8 -1 15 6 15 14c1 17 1 47 -3 69c-6 43 -16 72 -67 73c-58 1 -72 -36 -78 -44c-2 -3 -3 -26 -3 -31c0 -13 -7 -18 -17 -18c-2 0 -44 -1 -48 0c-11 0 -20 5 -19 20c0 1 -1 34 -1 46c1 3 1 7 3 10c9 20 50 89 161 91
c92 2 119 -41 147 -90c15 -26 19 -59 21 -95c2 -43 5 -258 5 -262c0 -14 4 -23 13 -23zM179 84c39 -5 105 29 108 65c1 17 0 54 -1 77c0 8 -6 13 -13 14c-27 1 -66 1 -91 -5c-55 -15 -51 -58 -51 -91s16 -55 48 -60zM351 650c0 -24 -30 -30 -60 -29c-32 2 -42 13 -43 41
c-2 37 15 51 57 49c57 -1 47 -46 46 -61zM195 650c0 -24 -31 -30 -60 -29c-32 2 -42 13 -44 41c-1 37 16 51 57 49c58 -1 47 -46 47 -61z" />
    <glyph glyph-name="atilde" unicode="&#xe3;" horiz-adv-x="463" 
d="M399 74h13c16 0 21 -13 21 -26v-26c0 -17 -14 -22 -26 -22h-85c-15 0 -26 13 -27 26c-1 11 -2 18 -2 24v8c-1 4 -4 4 -6 0c-7 -12 -15 -23 -24 -33c-23 -25 -71 -30 -92 -30c-20 0 -32 -2 -51 5c-8 3 -15 7 -23 12c-5 3 -18 14 -20 17c-41 39 -46 124 -23 181
c29 73 85 104 168 105c23 0 39 0 48 -1c8 -1 15 6 15 14c1 17 1 47 -3 69c-6 43 -16 72 -67 73c-58 1 -72 -36 -78 -44c-2 -3 -3 -26 -3 -31c0 -13 -7 -18 -17 -18c-2 0 -44 -1 -48 0c-11 0 -20 5 -19 20c0 1 -1 34 -1 46c1 3 1 7 3 10c9 20 50 89 161 91
c92 2 119 -41 147 -90c15 -26 19 -59 21 -95c2 -43 5 -258 5 -262c0 -14 4 -23 13 -23zM179 84c39 -5 105 29 108 65c1 17 0 54 -1 77c0 8 -6 13 -13 14c-27 1 -66 1 -91 -5c-55 -15 -51 -58 -51 -91s16 -55 48 -60zM268 619c-32 0 -60 23 -80 37c-27 19 -57 8 -69 -24
c-3 -10 -9 -19 -36 -14c-21 4 -27 12 -25 24c12 73 63 85 92 85c27 1 51 -16 70 -31c16 -12 30 -22 44 -22s31 8 38 30c5 17 13 23 36 21c20 -2 35 -13 31 -31c-16 -69 -63 -75 -101 -75z" />
    <glyph glyph-name="aring" unicode="&#xe5;" horiz-adv-x="463" 
d="M399 74h13c16 0 21 -13 21 -26v-26c0 -17 -14 -22 -26 -22h-85c-15 0 -26 13 -27 26c-1 11 -2 18 -2 24v8c-1 4 -4 4 -6 0c-7 -12 -15 -23 -24 -33c-23 -25 -71 -30 -92 -30c-20 0 -32 -2 -51 5c-8 3 -15 7 -23 12c-5 3 -18 14 -20 17c-41 39 -46 124 -23 181
c29 73 85 104 168 105c23 0 39 0 48 -1c8 -1 15 6 15 14c1 17 1 47 -3 69c-6 43 -16 72 -67 73c-58 1 -72 -36 -78 -44c-2 -3 -3 -26 -3 -31c0 -13 -7 -18 -17 -18c-2 0 -44 -1 -48 0c-11 0 -20 5 -19 20c0 1 -1 34 -1 46c1 3 1 7 3 10c9 20 50 89 161 91
c92 2 119 -41 147 -90c15 -26 19 -59 21 -95c2 -43 5 -258 5 -262c0 -14 4 -23 13 -23zM179 84c39 -5 105 29 108 65c1 17 0 54 -1 77c0 8 -6 13 -13 14c-27 1 -66 1 -91 -5c-55 -15 -51 -58 -51 -91s16 -55 48 -60zM302 688c-5 -54 -57 -77 -106 -67c-52 11 -75 66 -61 110
c16 48 56 60 99 56c51 -6 72 -52 68 -99zM219 664c27 0 34 19 34 39c1 24 -5 44 -31 47c-53 7 -57 -86 -3 -86z" />
    <glyph glyph-name="ccedilla" unicode="&#xe7;" horiz-adv-x="410" 
d="M317 153h43c20 0 26 -18 26 -38c-1 -84 -57 -116 -132 -124l-5 -23c-1 -4 -1 -9 2 -9c49 8 87 -9 98 -54c15 -59 -27 -103 -90 -103c-10 0 -32 3 -48 8c-12 5 -18 17 -12 33c4 10 14 15 24 13c21 -6 57 -11 69 6c6 10 7 23 5 29c-15 53 -106 20 -106 20c-4 -1 -7 2 -6 6
c4 30 8 35 14 73c-123 13 -159 163 -159 288c0 120 21 245 136 267c78 16 214 -8 214 -106v-36c0 -20 -11 -34 -31 -34c-11 0 -30 1 -40 1c-20 0 -27 16 -27 36c0 44 -12 64 -82 64c-63 0 -72 -91 -72 -157c0 -123 -1 -244 94 -244c46 0 50 17 55 61c2 15 15 23 30 23z" />
    <glyph glyph-name="eacute" unicode="&#xe9;" horiz-adv-x="435" 
d="M326 176c13 1 28 2 42 1c12 0 22 -10 22 -22c-1 -15 0 -26 0 -40c0 -29 -29 -66 -51 -85c-60 -48 -136 -33 -172 -25c-157 36 -136 322 -105 427c27 90 83 127 160 129c47 2 122 -25 159 -135c11 -33 15 -96 13 -145c0 -20 -16 -35 -36 -36c-64 -1 -199 -2 -199 -2
c-12 -1 -19 -10 -19 -22c0 -45 16 -147 78 -148c50 -1 65 21 76 44c2 5 4 19 5 32c1 15 12 26 27 27zM259 464c-29 18 -79 15 -100 -26c-10 -21 -13 -57 -16 -90c-1 -13 9 -24 23 -24h108c16 0 26 15 24 32c0 34 -2 86 -39 108zM205 657c22 37 30 53 66 109
c17 24 39 25 60 10c22 -16 25 -39 6 -58c-47 -46 -55 -53 -98 -91c-10 -9 -26 -14 -36 -6c-12 10 -2 30 2 36z" />
    <glyph glyph-name="egrave" unicode="&#xe8;" horiz-adv-x="435" 
d="M326 176c13 1 28 2 42 1c12 0 22 -10 22 -22c-1 -15 0 -26 0 -40c0 -29 -29 -66 -51 -85c-60 -48 -136 -33 -172 -25c-157 36 -136 322 -105 427c27 90 83 127 160 129c47 2 122 -25 159 -135c11 -33 15 -96 13 -145c0 -20 -16 -35 -36 -36c-64 -1 -199 -2 -199 -2
c-12 -1 -19 -10 -19 -22c0 -45 16 -147 78 -148c50 -1 65 21 76 44c2 5 4 19 5 32c1 15 12 26 27 27zM259 464c-29 18 -79 15 -100 -26c-10 -21 -13 -57 -16 -90c-1 -13 9 -24 23 -24h108c16 0 26 15 24 32c0 34 -2 86 -39 108zM226 662c4 -6 14 -26 2 -36
c-11 -8 -26 -3 -36 6c-43 38 -51 45 -98 91c-19 19 -16 42 6 58c21 15 43 14 59 -10c37 -55 45 -72 67 -109z" />
    <glyph glyph-name="ecircumflex" unicode="&#xea;" horiz-adv-x="435" 
d="M326 176c13 1 28 2 42 1c12 0 22 -10 22 -22c-1 -15 0 -26 0 -40c0 -29 -29 -66 -51 -85c-60 -48 -136 -33 -172 -25c-157 36 -136 322 -105 427c27 90 83 127 160 129c47 2 122 -25 159 -135c11 -33 15 -96 13 -145c0 -20 -16 -35 -36 -36c-64 -1 -199 -2 -199 -2
c-12 -1 -19 -10 -19 -22c0 -45 16 -147 78 -148c50 -1 65 21 76 44c2 5 4 19 5 32c1 15 12 26 27 27zM259 464c-29 18 -79 15 -100 -26c-10 -21 -13 -57 -16 -90c-1 -13 9 -24 23 -24h108c16 0 26 15 24 32c0 34 -2 86 -39 108zM157 641c-25 -17 -35 -31 -53 -15
c-17 15 -5 33 13 51c32 31 54 47 70 61c8 7 16 15 34 15s22 -5 32 -15c32 -30 46 -39 81 -73c18 -17 17 -31 4 -42c-15 -14 -36 2 -51 14c-26 20 -45 31 -59 40c-5 2 -9 2 -13 0c-22 -12 -33 -19 -58 -36z" />
    <glyph glyph-name="edieresis" unicode="&#xeb;" horiz-adv-x="435" 
d="M326 176c13 1 28 2 42 1c12 0 22 -10 22 -22c-1 -15 0 -26 0 -40c0 -29 -29 -66 -51 -85c-60 -48 -136 -33 -172 -25c-157 36 -136 322 -105 427c27 90 83 127 160 129c47 2 122 -25 159 -135c11 -33 15 -96 13 -145c0 -20 -16 -35 -36 -36c-64 -1 -199 -2 -199 -2
c-12 -1 -19 -10 -19 -22c0 -45 16 -147 78 -148c50 -1 65 21 76 44c2 5 4 19 5 32c1 15 12 26 27 27zM259 464c-29 18 -79 15 -100 -26c-10 -21 -13 -57 -16 -90c-1 -13 9 -24 23 -24h108c16 0 26 15 24 32c0 34 -2 86 -39 108zM345 656c0 -24 -30 -30 -60 -29
c-32 2 -42 13 -43 41c-2 37 15 51 57 49c57 -1 47 -46 46 -61zM189 656c0 -24 -31 -30 -60 -29c-32 2 -42 13 -44 41c-1 37 16 51 57 49c58 -1 47 -46 47 -61z" />
    <glyph glyph-name="iacute" unicode="&#xed;" horiz-adv-x="259" 
d="M30 20l4 46c0 7 7 13 14 13h16c8 0 15 7 15 15v368c0 8 -6 14 -14 14l-14 1c-8 0 -14 6 -14 14l-2 46c0 8 6 15 14 15h115c8 0 15 -6 15 -14l8 -444c1 -8 7 -14 15 -14l12 -1c7 0 14 -6 14 -14l1 -46c0 -9 -7 -15 -15 -15h-153c-9 0 -31 7 -31 16zM111 663
c22 37 30 53 66 109c17 24 39 25 60 10c22 -16 25 -39 6 -58c-47 -46 -55 -53 -98 -91c-10 -9 -26 -14 -36 -6c-12 10 -2 30 2 36z" />
    <glyph glyph-name="igrave" unicode="&#xec;" horiz-adv-x="266" 
d="M37 20l4 46c0 7 7 13 14 13h16c8 0 15 7 15 15v368c0 8 -6 14 -14 14l-14 1c-8 0 -14 6 -14 14l-2 46c0 8 6 15 14 15h115c8 0 15 -6 15 -14l8 -444c1 -8 7 -14 15 -14l12 -1c7 0 14 -6 14 -14l1 -46c0 -9 -7 -15 -15 -15h-153c-9 0 -31 7 -31 16zM135 661
c4 -6 14 -26 2 -36c-11 -8 -26 -3 -36 6c-43 38 -51 45 -98 91c-19 19 -16 42 6 58c21 15 43 14 59 -10c37 -55 45 -72 67 -109z" />
    <glyph glyph-name="icircumflex" unicode="&#xee;" horiz-adv-x="313" 
d="M70 20l4 46c0 7 7 13 14 13h16c8 0 15 7 15 15v368c0 8 -6 14 -14 14l-14 1c-8 0 -14 6 -14 14l-2 46c0 8 6 15 14 15h115c8 0 15 -6 15 -14l8 -444c1 -8 7 -14 15 -14l12 -1c7 0 14 -6 14 -14l1 -46c0 -9 -7 -15 -15 -15h-153c-9 0 -31 7 -31 16zM92 647
c-25 -17 -35 -31 -53 -15c-17 15 -5 33 13 51c32 31 54 47 70 61c8 7 16 15 34 15s22 -5 32 -15c32 -30 46 -39 81 -73c18 -17 17 -31 4 -42c-15 -14 -36 2 -51 14c-26 20 -45 31 -59 40c-5 2 -9 2 -13 0c-22 -12 -33 -19 -58 -36z" />
    <glyph glyph-name="idieresis" unicode="&#xef;" horiz-adv-x="323" 
d="M79 20l4 46c0 7 7 13 14 13h16c8 0 15 7 15 15v368c0 8 -6 14 -14 14l-14 1c-8 0 -14 6 -14 14l-2 46c0 8 6 15 14 15h115c8 0 15 -6 15 -14l8 -444c1 -8 7 -14 15 -14l12 -1c7 0 14 -6 14 -14l1 -46c0 -9 -7 -15 -15 -15h-153c-9 0 -31 7 -31 16zM291 659
c0 -24 -30 -30 -60 -29c-32 2 -42 13 -43 41c-2 37 15 51 57 49c57 -1 47 -46 46 -61zM135 659c0 -24 -31 -30 -60 -29c-32 2 -42 13 -44 41c-1 37 16 51 57 49c58 -1 47 -46 47 -61z" />
    <glyph glyph-name="ntilde" unicode="&#xf1;" horiz-adv-x="513" 
d="M426 413c1 -47 5 -256 7 -321c0 -10 8 -18 19 -18l12 -1c10 0 18 -8 18 -18l1 -36c0 -11 -9 -19 -19 -19h-160c-10 0 -19 8 -19 19v36c0 10 8 19 19 19h6c10 0 19 8 19 19l-6 326c-3 68 -84 72 -136 39c-5 -3 -8 -9 -8 -15v-351c0 -10 8 -18 19 -18l13 -1
c11 0 19 -8 19 -19v-35c0 -11 -9 -19 -19 -19h-155c-10 0 -19 8 -19 19l1 36c0 10 8 18 18 18h5c11 0 19 9 19 19l-3 361c0 12 -9 21 -20 22h-6c-11 1 -21 10 -21 22v29c0 13 10 22 22 22h100c13 0 24 -11 25 -24v-6c0 -2 2 -3 4 -2c27 28 50 36 88 36
c134 0 155 -89 157 -139zM286 629c-32 0 -60 23 -80 37c-27 19 -57 8 -69 -24c-3 -10 -9 -19 -36 -14c-21 4 -27 12 -25 24c12 73 63 85 92 85c27 1 51 -16 70 -31c16 -12 30 -22 44 -22s31 8 38 30c5 17 13 23 36 21c20 -2 35 -13 31 -31c-16 -69 -63 -75 -101 -75z" />
    <glyph glyph-name="oacute" unicode="&#xf3;" horiz-adv-x="468" 
d="M424 193c-20 -178 -132 -233 -245 -196c-199 66 -186 563 57 563c182 0 203 -239 188 -367zM233 69c77 0 98 80 98 230c0 134 -50 179 -98 179c-61 0 -99 -91 -99 -178c0 -102 28 -231 99 -231zM230 667c22 37 30 53 66 109c17 24 39 25 60 10c22 -16 25 -39 6 -58
c-47 -46 -55 -53 -98 -91c-10 -9 -26 -14 -36 -6c-12 10 -2 30 2 36z" />
    <glyph glyph-name="ograve" unicode="&#xf2;" horiz-adv-x="468" 
d="M424 193c-20 -178 -132 -233 -245 -196c-199 66 -186 563 57 563c182 0 203 -239 188 -367zM233 69c77 0 98 80 98 230c0 134 -50 179 -98 179c-61 0 -99 -91 -99 -178c0 -102 28 -231 99 -231zM256 669c4 -6 14 -26 2 -36c-11 -8 -26 -3 -36 6c-43 38 -51 45 -98 91
c-19 19 -16 42 6 58c21 15 43 14 59 -10c37 -55 45 -72 67 -109z" />
    <glyph glyph-name="ocircumflex" unicode="&#xf4;" horiz-adv-x="468" 
d="M424 193c-20 -178 -132 -233 -245 -196c-199 66 -186 563 57 563c182 0 203 -239 188 -367zM233 69c77 0 98 80 98 230c0 134 -50 179 -98 179c-61 0 -99 -91 -99 -178c0 -102 28 -231 99 -231zM164 650c-25 -17 -35 -31 -53 -15c-17 15 -5 33 13 51c32 31 54 47 70 61
c8 7 16 15 34 15s22 -5 32 -15c32 -30 46 -39 81 -73c18 -17 17 -31 4 -42c-15 -14 -36 2 -51 14c-26 20 -45 31 -59 40c-5 2 -9 2 -13 0c-22 -12 -33 -19 -58 -36z" />
    <glyph glyph-name="odieresis" unicode="&#xf6;" horiz-adv-x="468" 
d="M424 193c-20 -178 -132 -233 -245 -196c-199 66 -186 563 57 563c182 0 203 -239 188 -367zM233 69c77 0 98 80 98 230c0 134 -50 179 -98 179c-61 0 -99 -91 -99 -178c0 -102 28 -231 99 -231zM361 657c0 -24 -30 -30 -60 -29c-32 2 -42 13 -43 41c-2 37 15 51 57 49
c57 -1 47 -46 46 -61zM205 657c0 -24 -31 -30 -60 -29c-32 2 -42 13 -44 41c-1 37 16 51 57 49c58 -1 47 -46 47 -61z" />
    <glyph glyph-name="otilde" unicode="&#xf5;" horiz-adv-x="468" 
d="M424 197c-20 -178 -132 -233 -245 -196c-199 66 -186 563 57 563c182 0 203 -239 188 -367zM233 73c77 0 98 80 98 230c0 134 -50 179 -98 179c-61 0 -99 -91 -99 -178c0 -102 28 -231 99 -231zM295 624c-32 0 -60 23 -80 37c-27 19 -57 8 -69 -24c-3 -10 -9 -19 -36 -14
c-21 4 -27 12 -25 24c12 73 63 85 92 85c27 1 51 -16 70 -31c16 -12 30 -22 44 -22s31 8 38 30c5 17 13 23 36 21c20 -2 35 -13 31 -31c-16 -69 -63 -75 -101 -75z" />
    <glyph glyph-name="uacute" unicode="&#xfa;" horiz-adv-x="534" 
d="M80 130c-1 46 1 254 2 321c0 12 -9 21 -21 21h-10c-11 0 -21 9 -21 21v35c0 12 10 21 21 21l115 -1c12 0 21 -9 21 -21c-1 -52 -1 -188 -2 -216c1 -32 -4 -141 -2 -186c3 -68 97 -73 151 -42c7 4 11 12 11 20v350c0 11 -9 20 -20 20h-1c-11 1 -20 10 -20 21v34
c0 12 10 21 21 21h97c12 0 21 -9 21 -20l5 -433c0 -12 10 -21 22 -21h13c11 0 21 -10 21 -21v-31c0 -11 -9 -21 -21 -21l-114 -3c-12 -1 -21 9 -22 21v1c0 4 -4 6 -7 3c-29 -25 -68 -31 -105 -31c-134 0 -154 87 -155 137zM206 627c22 37 30 53 66 109c17 24 39 25 60 10
c22 -16 25 -39 6 -58c-47 -46 -55 -53 -98 -91c-10 -9 -26 -14 -36 -6c-12 10 -2 30 2 36z" />
    <glyph glyph-name="ugrave" unicode="&#xf9;" horiz-adv-x="534" 
d="M80 130c-1 46 1 254 2 321c0 12 -9 21 -21 21h-10c-11 0 -21 9 -21 21v35c0 12 10 21 21 21l115 -1c12 0 21 -9 21 -21c-1 -52 -1 -188 -2 -216c1 -32 -4 -141 -2 -186c3 -68 97 -73 151 -42c7 4 11 12 11 20v350c0 11 -9 20 -20 20h-1c-11 1 -20 10 -20 21v34
c0 12 10 21 21 21h97c12 0 21 -9 21 -20l5 -433c0 -12 10 -21 22 -21h13c11 0 21 -10 21 -21v-31c0 -11 -9 -21 -21 -21l-114 -3c-12 -1 -21 9 -22 21v1c0 4 -4 6 -7 3c-29 -25 -68 -31 -105 -31c-134 0 -154 87 -155 137zM270 662c4 -6 14 -26 2 -36c-11 -8 -26 -3 -36 6
c-43 38 -51 45 -98 91c-19 19 -16 42 6 58c21 15 43 14 59 -10c37 -55 45 -72 67 -109z" />
    <glyph glyph-name="ucircumflex" unicode="&#xfb;" horiz-adv-x="534" 
d="M80 130c-1 46 1 254 2 321c0 12 -9 21 -21 21h-10c-11 0 -21 9 -21 21v35c0 12 10 21 21 21l115 -1c12 0 21 -9 21 -21c-1 -52 -1 -188 -2 -216c1 -32 -4 -141 -2 -186c3 -68 97 -73 151 -42c7 4 11 12 11 20v350c0 11 -9 20 -20 20h-1c-11 1 -20 10 -20 21v34
c0 12 10 21 21 21h97c12 0 21 -9 21 -20l5 -433c0 -12 10 -21 22 -21h13c11 0 21 -10 21 -21v-31c0 -11 -9 -21 -21 -21l-114 -3c-12 -1 -21 9 -22 21v1c0 4 -4 6 -7 3c-29 -25 -68 -31 -105 -31c-134 0 -154 87 -155 137zM178 603c-25 -17 -35 -31 -53 -15
c-17 15 -5 33 13 51c32 31 54 47 70 61c8 7 16 15 34 15s22 -5 32 -15c32 -30 46 -39 81 -73c18 -17 17 -31 4 -42c-15 -14 -36 2 -51 14c-26 20 -45 31 -59 40c-5 2 -9 2 -13 0c-22 -12 -33 -19 -58 -36z" />
    <glyph glyph-name="udieresis" unicode="&#xfc;" horiz-adv-x="534" 
d="M80 130c-1 46 1 254 2 321c0 12 -9 21 -21 21h-10c-11 0 -21 9 -21 21v35c0 12 10 21 21 21l115 -1c12 0 21 -9 21 -21c-1 -52 -1 -188 -2 -216c1 -32 -4 -141 -2 -186c3 -68 97 -73 151 -42c7 4 11 12 11 20v350c0 11 -9 20 -20 20h-1c-11 1 -20 10 -20 21v34
c0 12 10 21 21 21h97c12 0 21 -9 21 -20l5 -433c0 -12 10 -21 22 -21h13c11 0 21 -10 21 -21v-31c0 -11 -9 -21 -21 -21l-114 -3c-12 -1 -21 9 -22 21v1c0 4 -4 6 -7 3c-29 -25 -68 -31 -105 -31c-134 0 -154 87 -155 137zM386 653c0 -24 -30 -30 -60 -29
c-32 2 -42 13 -43 41c-2 37 15 51 57 49c57 -1 47 -46 46 -61zM230 653c0 -24 -31 -30 -60 -29c-32 2 -42 13 -44 41c-1 37 16 51 57 49c58 -1 47 -46 47 -61z" />
    <glyph glyph-name="dotlessi" unicode="&#x131;" horiz-adv-x="259" 
d="M30 20l4 46c0 7 7 13 14 13h16c8 0 15 7 15 15v368c0 8 -6 14 -14 14l-14 1c-8 0 -14 6 -14 14l-2 46c0 8 6 15 14 15h115c8 0 15 -6 15 -14l8 -444c1 -8 7 -14 15 -14l12 -1c7 0 14 -6 14 -14l1 -46c0 -9 -7 -15 -15 -15h-153c-9 0 -31 7 -31 16z" />
    <glyph glyph-name="germandbls" unicode="&#xdf;" horiz-adv-x="601" 
d="M579 170c10 -108 -38 -147 -102 -169c-61 -21 -154 -26 -234 42c-11 9 -17 22 -17 35c-1 17 -1 35 0 49c0 18 15 32 33 31l35 -1c16 -1 30 -14 30 -30c1 -5 1 -11 1 -15c1 -9 5 -17 11 -23c21 -20 43 -23 72 -23c50 0 69 15 66 80c-1 41 -18 49 -81 74
c-68 26 -116 37 -156 109c-50 88 17 183 70 226c11 9 21 16 31 22c8 5 12 13 12 22c-2 39 -13 84 -77 84c-68 0 -91 -76 -93 -119c-3 -58 -3 -420 -3 -535c1 -17 -13 -30 -30 -30l-103 1c-13 0 -23 10 -24 23v26c0 13 10 24 23 24h9c13 1 23 11 23 24c0 0 5 343 5 439
c0 119 46 220 197 224c129 3 184 -80 179 -169c-3 -40 -56 -67 -80 -83c-46 -31 -80 -95 -55 -146c25 -48 65 -50 114 -66c65 -22 137 -54 144 -126z" />
    <glyph glyph-name="AE" unicode="&#xc6;" horiz-adv-x="650" 
d="M428 605c-12 0 -22 -10 -22 -22l-3 -148c0 -12 10 -22 22 -22c42 0 82 1 130 -2c11 0 20 -10 21 -21c0 -11 0 -23 -1 -35c-1 -13 -12 -23 -26 -22c-37 1 -89 1 -122 1c-12 0 -22 -10 -22 -22v-214c0 -12 9 -22 21 -22c38 -2 81 -2 105 -1c10 0 2 44 11 45c14 2 39 1 54 0
c12 -1 15 -5 15 -17c0 -23 2 -49 0 -87c-1 -10 -9 -17 -18 -17c-89 1 -191 -2 -275 1c-6 0 -17 1 -25 1c-13 -1 -19 7 -20 20v37c-1 13 9 20 22 19h3c12 -1 23 9 23 22c1 38 1 76 1 116c0 5 -5 10 -11 10c-28 0 -92 1 -106 1c-8 0 -15 -6 -18 -13l-40 -126
c-2 -6 2 -13 9 -13l16 -1c13 1 16 -10 16 -20l-1 -33c1 -9 -3 -19 -17 -18l-150 -1c-5 0 -10 5 -10 10l2 54c1 5 5 9 10 9l18 2c4 0 8 2 9 6c17 51 150 386 241 582c0 2 1 3 1 5l1 1c2 8 9 13 17 13h290c12 0 21 -11 21 -23c-1 -33 -3 -66 -6 -90c-2 -11 -11 -19 -22 -19
c-9 0 -21 -1 -31 -1c-12 0 -21 9 -22 21c0 6 -1 11 -2 17c-2 11 -11 19 -22 19c-29 -1 -55 -2 -87 -2zM229 302h83c6 0 10 5 10 11l2 244c0 2 -1 5 -3 5c-3 0 -3 -1 -4 -3c-16 -35 -72 -169 -101 -240c-3 -8 4 -16 13 -17z" />
    <glyph glyph-name="ae" unicode="&#xe6;" horiz-adv-x="656" 
d="M392 233c-12 0 -21 -10 -21 -22c0 -35 3 -119 70 -126c34 -3 74 10 84 32c3 5 4 20 5 33c1 14 13 25 27 26c13 1 28 2 41 1c12 0 22 -10 22 -22c-1 -14 0 -25 0 -39c0 -6 -2 -11 -4 -17c-11 -23 -29 -52 -46 -67c-61 -51 -144 -48 -184 -25c-29 17 -46 39 -55 53
c-3 5 -11 5 -15 0c-7 -10 -19 -25 -35 -37c-39 -30 -96 -30 -116 -27c-123 15 -138 156 -116 212c29 72 84 102 166 103c23 1 38 0 48 -1c8 0 15 6 15 14c0 17 0 46 -3 68c-6 43 -16 71 -67 72c-57 1 -71 -35 -77 -43c-2 -4 -2 -26 -2 -31c0 -13 -7 -18 -17 -18h-47
c-11 0 -20 5 -19 20c0 1 -1 34 -1 45c0 3 1 7 2 10c10 20 50 88 159 90c59 1 86 -16 107 -41c5 -6 14 -7 20 -1c30 31 65 41 115 43c47 1 121 -9 161 -117c13 -32 18 -100 16 -148c-1 -19 -17 -34 -36 -35c-63 -1 -197 -5 -197 -5zM279 148c4 24 3 49 0 76
c-1 7 -6 13 -14 13c-26 1 -64 1 -89 -5c-55 -14 -50 -57 -50 -89c0 -33 15 -55 47 -59c39 -6 99 20 106 64zM371 346c-1 -13 9 -24 22 -24h103c16 0 29 15 28 31l-2 10c-6 38 -20 80 -38 92c-29 18 -73 14 -94 -27c-10 -20 -16 -50 -19 -82z" />
    <glyph glyph-name="Thorn" unicode="&#xde;" horiz-adv-x="496" 
d="M61 75l20 1c12 1 21 11 22 23l3 498c0 13 -10 23 -22 23h-8c-12 1 -22 10 -22 23l-2 32c0 12 10 23 23 24l45 1l119 -1c14 0 25 -11 25 -25v-31c0 -13 -10 -24 -23 -25l-28 -1c-6 -1 -11 -6 -11 -12v-36c0 -7 6 -13 13 -13c25 -1 77 -4 89 -6c59 -9 160 -42 170 -164
c12 -151 -48 -212 -159 -247c-28 -9 -65 -10 -95 -12c-9 -1 -15 -8 -15 -17c-1 -15 -1 -15 -1 -12c0 -13 9 -22 22 -23h24c13 -1 22 -11 22 -24v-29c-1 -13 -11 -23 -23 -23h-185c-13 0 -24 11 -23 24l-1 30c0 11 9 21 21 22zM205 455c0 -77 1 -151 1 -229
c0 -10 9 -19 19 -18c56 3 139 42 140 111c15 92 -27 179 -141 159c-11 -2 -19 -11 -19 -23z" />
    <glyph glyph-name="thorn" unicode="&#xfe;" horiz-adv-x="466" 
d="M423 361c4 -136 24 -351 -157 -371c-31 -4 -59 3 -83 28c-3 3 -9 1 -8 -3v-164c0 -13 10 -23 23 -23h15c12 0 23 -11 22 -24v-30c-1 -13 -11 -23 -23 -23h-170c-12 0 -22 10 -22 22l1 34c0 12 9 21 21 22h16c12 0 23 10 23 23l4 791c0 8 -7 14 -15 14l-23 1
c-8 0 -15 6 -15 14l-1 45c0 9 7 17 17 17l111 1c10 0 17 -8 17 -17v-222c0 -3 3 -3 4 -1c63 94 239 15 243 -134zM303 106c24 38 17 124 17 183c0 98 -64 233 -140 133c-2 -2 -3 -5 -3 -8c0 -86 1 -225 1 -315c0 -8 4 -15 10 -19c34 -21 83 -24 115 26z" />
    <glyph glyph-name="eth" unicode="&#xf0;" horiz-adv-x="438" 
d="M397 288c0 -101 4 -167 -43 -243c-25 -41 -73 -50 -107 -54c-21 -2 -114 -3 -156 56c-29 41 -33 46 -44 89c-3 13 -6 43 -6 56c0 11 -1 109 10 144c23 72 48 90 66 104c16 14 49 24 96 22c48 -1 66 -9 87 -26c1 -1 3 0 3 2c-3 45 -40 92 -89 129c-4 3 -10 2 -13 -3
c-9 -12 -15 -22 -19 -28c-15 -22 -22 -26 -38 -16c-15 10 -17 21 -3 41l19 29c3 4 2 11 -3 13c-14 8 -29 15 -43 20c-33 13 -44 25 -36 41c9 16 28 7 61 -1c9 -3 27 -7 51 -15c4 -1 8 0 11 4c12 18 21 34 25 39c10 15 22 15 32 8l7 -5c10 -6 9 -19 1 -30l-18 -28
c-3 -5 -2 -11 3 -14c15 -7 30 -16 45 -26c101 -69 100 -185 101 -308zM291 137c6 25 19 91 6 168c-3 17 -12 45 -30 68c-18 22 -79 31 -99 2c-21 -29 -26 -51 -29 -82c-10 -93 5 -133 6 -148c1 -33 25 -78 72 -78c52 0 65 39 74 70z" />
    <glyph glyph-name="Eth" unicode="&#xd0;" horiz-adv-x="531" 
d="M488 469c1 -12 6 -121 0 -221c-10 -171 -47 -244 -213 -248c-38 0 -142 1 -201 1c-14 0 -26 11 -26 25c-1 10 -1 20 -1 29c0 13 11 24 24 23h1c13 0 24 11 24 24c0 31 1 113 1 202c0 4 -4 8 -8 8h-28c-32 0 -41 5 -41 27c0 23 10 31 39 30h30c4 0 8 4 8 8
c0 88 0 182 -1 220c-1 13 -13 24 -26 24s-24 11 -24 24l1 29c0 13 10 23 23 24c39 2 124 4 200 1c118 -5 213 -112 218 -230zM379 149c20 121 11 364 -16 420c-23 46 -88 54 -141 53c-13 0 -23 -11 -23 -24c0 -26 0 -125 -1 -220c0 -4 3 -8 8 -8c19 0 35 1 42 1
c22 0 30 -13 29 -28v-9c0 -15 -13 -22 -30 -22h-42c-5 0 -8 -4 -8 -8c-1 -105 -2 -199 -2 -199c0 -13 10 -23 23 -24c56 -2 83 -4 112 3c25 6 43 29 49 65z" />
    <glyph glyph-name="Lslash" unicode="&#x141;" horiz-adv-x="457" 
d="M435 134c12 0 22 -10 22 -23l-2 -89c0 -12 -10 -22 -22 -22h-366c-13 1 -22 11 -22 23v42c0 13 10 23 22 23h4c13 0 23 10 23 23v152c0 5 -5 8 -10 5l-11 -8c-44 -28 -54 -32 -68 -14c-11 15 0 26 39 52c12 9 24 17 36 25c9 6 15 16 15 27l1 250c0 12 -9 22 -20 23h-4
c-11 2 -20 12 -19 23v32c0 12 10 22 23 22l145 -1c14 0 24 -12 23 -25l-4 -32c-1 -11 -10 -19 -21 -19c-13 -1 -22 -11 -22 -23l-1 -187c0 -5 6 -8 10 -5c12 8 25 16 39 26c29 20 45 31 60 14c16 -20 -5 -34 -18 -43l-80 -55c-7 -4 -11 -12 -11 -20l-1 -217
c0 -12 10 -22 23 -23l142 -1c11 0 20 8 22 19l2 7c1 11 11 19 22 19h29z" />
    <glyph glyph-name="lslash" unicode="&#x142;" horiz-adv-x="311" 
d="M304 459c17 -20 -5 -34 -17 -43l-65 -44c-9 -7 -15 -17 -15 -29l2 -248c0 -11 9 -20 19 -20l16 -1c11 -1 19 -10 19 -20v-33c0 -12 -9 -21 -20 -21l-168 1c-11 0 -20 9 -20 20l-1 34c0 10 7 18 16 20l17 4c9 2 16 11 16 20l-2 174c0 8 -8 12 -14 8l-15 -9
c-35 -26 -53 -32 -67 -14c-11 14 -1 25 38 52l47 31c7 4 11 12 11 20l-2 283c0 10 -9 18 -19 18c-9 0 -17 8 -18 17l-2 35c-1 12 8 21 20 22h105c11 0 20 -9 20 -20l1 -281c0 -7 8 -11 14 -7l24 17c30 20 46 32 60 14z" />
    <glyph glyph-name="Scaron" unicode="&#x160;" horiz-adv-x="505" 
d="M463 205c9 -109 -16 -146 -82 -186c-24 -14 -50 -23 -77 -26c-62 -8 -178 -10 -251 63c-6 6 -10 14 -11 22l-2 59c0 18 14 32 32 33h38c17 1 32 -13 33 -30v-17c1 -10 6 -20 15 -27c29 -21 65 -27 94 -27c51 0 108 26 105 114c-2 55 -56 77 -120 104
c-82 34 -183 103 -191 196c-10 125 21 185 100 215c0 0 150 54 280 -66c6 -6 10 -14 11 -23l2 -62c0 -17 -14 -32 -32 -31h-40c-16 0 -30 13 -30 30l-2 22c0 8 -4 15 -10 19c-32 23 -66 29 -97 29c-51 0 -115 -43 -76 -124c31 -63 120 -100 137 -104
c75 -29 165 -63 174 -183zM180 877c25 -18 36 -25 58 -36c4 -3 8 -3 13 0c14 8 33 19 59 40c15 11 36 27 51 14c13 -12 14 -26 -4 -43c-35 -34 -49 -43 -81 -73c-10 -9 -14 -14 -32 -15c-18 0 -26 9 -34 15c-16 14 -38 31 -70 61c-18 18 -30 37 -13 52c18 15 28 2 53 -15z
" />
    <glyph glyph-name="scaron" unicode="&#x161;" horiz-adv-x="448" 
d="M406 172c11 -110 -38 -150 -103 -172c-61 -22 -155 -27 -237 42c-11 9 -17 22 -18 36c0 17 0 35 1 50c0 18 15 32 33 32l36 -2c16 0 30 -14 31 -30c0 -6 0 -11 1 -16c0 -9 4 -17 11 -23c21 -20 43 -23 72 -23c51 0 70 16 68 81c-2 42 -19 50 -83 75
c-68 27 -117 38 -158 111c-51 89 6 183 68 210c0 0 157 61 243 -57c5 -7 8 -15 9 -23c0 -11 1 -21 1 -31c1 -21 -16 -38 -37 -38h-25c-19 1 -35 16 -36 36v7c0 6 -2 11 -6 16c-22 29 -34 24 -66 24c-51 0 -91 -60 -65 -110c25 -50 65 -52 115 -68c66 -22 139 -55 145 -127z
M161 733c25 -18 36 -25 58 -36c4 -3 8 -3 13 0c14 8 33 19 59 40c15 11 36 27 51 14c13 -12 14 -26 -4 -43c-35 -34 -49 -43 -81 -73c-10 -9 -14 -14 -32 -15c-18 0 -26 9 -34 15c-16 14 -38 31 -70 61c-18 18 -30 37 -13 52c18 15 28 2 53 -15z" />
    <glyph glyph-name="Yacute" unicode="&#xdd;" horiz-adv-x="521" 
d="M336 1h-166c-12 0 -22 10 -23 22v31c0 12 10 22 22 22h10c12 1 22 10 22 22v183c0 4 -1 7 -2 11l-153 318c-3 6 -10 10 -17 11h-7c-12 0 -21 10 -21 22l-1 34c0 13 10 23 22 23h137c12 0 22 -10 22 -22l1 -34c0 -12 -10 -22 -22 -22h-8c-5 0 -8 -5 -6 -9l103 -205
c3 -4 9 -5 12 0l121 203c2 4 0 9 -5 10h-19c-12 1 -22 11 -22 23l1 33c1 12 10 22 22 22h140c12 0 22 -10 22 -23v-34c0 -12 -10 -21 -21 -21c-8 -1 -15 -5 -19 -11l-178 -321c-2 -4 -3 -8 -3 -12l3 -178c0 -12 9 -22 21 -22l12 -1c12 0 21 -9 21 -21l1 -32
c0 -12 -9 -22 -22 -22zM244 799c22 37 30 53 66 109c17 24 39 25 60 10c22 -16 25 -39 6 -58c-47 -46 -55 -53 -98 -91c-10 -9 -26 -14 -36 -6c-12 10 -2 30 2 36z" />
    <glyph glyph-name="yacute" unicode="&#xfd;" horiz-adv-x="495" 
d="M47 -248c-12 6 -27 7 -17 48c6 26 21 33 38 26c48 -6 88 -3 110 45c11 23 16 68 22 132c0 4 0 8 -2 11l-148 448c-2 6 -7 10 -13 10c-15 1 -27 14 -27 29l1 21c0 14 11 25 25 25l114 -1c15 0 26 -12 25 -27l-3 -33c-1 -11 -15 -13 -24 -13c-3 0 -5 -3 -4 -6
c11 -41 74 -277 102 -347c1 -4 7 -3 8 1c16 56 71 304 79 336c2 7 -3 14 -9 15l-9 1c-13 2 -23 13 -23 27l-1 21c0 14 11 26 25 26h142c16 1 27 -13 26 -28l-3 -23c-2 -14 -13 -24 -27 -25h-7c-8 0 -15 -6 -17 -13l-50 -198c-38 -117 -71 -301 -112 -405
c-51 -137 -179 -115 -221 -103zM228 665c22 37 30 53 66 109c17 24 39 25 60 10c22 -16 25 -39 6 -58c-47 -46 -55 -53 -98 -91c-10 -9 -26 -14 -36 -6c-12 10 -2 30 2 36z" />
    <glyph glyph-name="Zcaron" unicode="&#x17d;" horiz-adv-x="496" 
d="M162 95l206 -1c10 0 19 8 20 19v2c0 11 10 20 21 19l42 -3c11 0 19 -9 19 -20l-2 -92c0 -10 -9 -19 -20 -19h-396c-16 0 -30 13 -31 30l-1 32c0 8 2 16 7 24l318 516c3 6 -1 13 -8 13l-214 -1c-11 0 -19 -8 -20 -19l-1 -23c-1 -11 -10 -19 -21 -19l-40 2
c-11 0 -20 9 -19 20l1 106c0 10 9 19 20 19h408c13 -1 23 -11 24 -24v-31c1 -8 -2 -17 -6 -24l-313 -514c-3 -5 1 -11 6 -12zM185 874c25 -18 36 -25 58 -36c4 -3 8 -3 13 0c14 8 33 19 59 40c15 11 36 27 51 14c13 -12 14 -26 -4 -43c-35 -34 -49 -43 -81 -73
c-10 -9 -14 -14 -32 -15c-18 0 -26 9 -34 15c-16 14 -38 31 -70 61c-18 18 -30 37 -13 52c18 15 28 2 53 -15z" />
    <glyph glyph-name="zcaron" unicode="&#x17e;" horiz-adv-x="464" 
d="M176 96h140c11 0 20 8 20 19v1c1 11 10 19 21 19l42 -2c11 0 19 -9 19 -20l-1 -92c0 -11 -9 -20 -20 -20l-154 1h-179c-12 0 -22 9 -23 22l-1 39c0 9 2 18 7 25l248 364c3 6 -1 14 -8 13l-148 -2c-10 0 -18 -7 -19 -17v-16c-1 -10 -10 -17 -20 -17l-39 1
c-11 0 -20 9 -20 20l2 95c0 10 8 19 19 19h338c12 0 23 -10 23 -22l1 -30c0 -9 -2 -18 -7 -25l-248 -363c-3 -5 1 -12 7 -12zM169 735c25 -18 36 -25 58 -36c4 -3 8 -3 13 0c14 8 33 19 59 40c15 11 36 27 51 14c13 -12 14 -26 -4 -43c-35 -34 -49 -43 -81 -73
c-10 -9 -14 -14 -32 -15c-18 0 -26 9 -34 15c-16 14 -38 31 -70 61c-18 18 -30 37 -13 52c18 15 28 2 53 -15z" />
    <glyph glyph-name="minus" unicode="&#x2212;" horiz-adv-x="379" 
d="M348 400c1 -23 -7 -34 -30 -35c-27 -1 -221 -1 -250 -1c-32 1 -36 13 -37 38c-1 26 1 45 35 45c23 0 230 -1 258 -1c22 0 24 -23 24 -46z" />
    <glyph glyph-name="Agrave" unicode="&#xc0;" 
d="M560 77c11 0 19 -9 19 -20v-39c0 -10 -9 -19 -20 -19l-162 1c-10 0 -19 8 -19 19v39c0 10 8 19 19 19h14c6 1 10 6 8 12c-10 27 -23 92 -37 133c-2 8 -10 12 -22 11c-38 -1 -91 1 -126 1c-8 0 -16 -5 -18 -13c-11 -33 -18 -58 -27 -92c-3 -11 -10 -27 -14 -39
c-2 -6 7 -13 13 -13l17 -1c13 0 23 -11 23 -24l-1 -28c0 -13 -11 -24 -24 -24h-164c-16 0 -29 13 -29 29l1 22c1 14 12 26 27 27h7c9 0 16 6 19 14c28 70 130 386 196 590c6 17 22 29 40 28h14c18 -1 34 -13 39 -30c46 -154 154 -512 182 -589c3 -8 10 -13 19 -14h6z
M347 311c9 0 15 8 13 16c-12 56 -44 171 -48 189c0 1 -2 3 -4 3h-7c-2 0 -4 -2 -4 -4c-6 -20 -39 -133 -52 -187c-2 -8 4 -16 12 -16c24 0 66 -1 90 -1zM323 808c4 -6 14 -26 2 -36c-11 -8 -26 -3 -36 6c-43 38 -51 45 -98 91c-19 19 -16 42 6 58c21 15 43 14 59 -10
c37 -55 45 -72 67 -109z" />
    <glyph glyph-name="Atilde" unicode="&#xc3;" 
d="M560 77c11 0 19 -9 19 -20v-39c0 -10 -9 -19 -20 -19l-162 1c-10 0 -19 8 -19 19v39c0 10 8 19 19 19h14c6 1 10 6 8 12c-10 27 -23 92 -37 133c-2 8 -10 12 -22 11c-38 -1 -91 1 -126 1c-8 0 -16 -5 -18 -13c-11 -33 -18 -58 -27 -92c-3 -11 -10 -27 -14 -39
c-2 -6 7 -13 13 -13l17 -1c13 0 23 -11 23 -24l-1 -28c0 -13 -11 -24 -24 -24h-164c-16 0 -29 13 -29 29l1 22c1 14 12 26 27 27h7c9 0 16 6 19 14c28 70 130 386 196 590c6 17 22 29 40 28h14c18 -1 34 -13 39 -30c46 -154 154 -512 182 -589c3 -8 10 -13 19 -14h6z
M347 311c9 0 15 8 13 16c-12 56 -44 171 -48 189c0 1 -2 3 -4 3h-7c-2 0 -4 -2 -4 -4c-6 -20 -39 -133 -52 -187c-2 -8 4 -16 12 -16c24 0 66 -1 90 -1zM358 769c-32 0 -60 23 -80 37c-27 19 -57 8 -69 -24c-3 -10 -9 -19 -36 -14c-21 4 -27 12 -25 24c12 73 63 85 92 85
c27 1 51 -16 70 -31c16 -12 30 -22 44 -22s31 8 38 30c5 17 13 23 36 21c20 -2 35 -13 31 -31c-16 -69 -63 -75 -101 -75z" />
    <glyph glyph-name="Otilde" unicode="&#xd5;" horiz-adv-x="561" 
d="M281 -9c-184 0 -241 185 -241 371c0 160 59 332 234 345c195 0 247 -182 247 -341c0 -210 -74 -375 -240 -375zM274 629c-94 0 -135 -118 -135 -262c0 -173 49 -294 144 -294c104 0 138 112 138 292c0 158 -30 264 -147 264zM318 766c-32 0 -60 23 -80 37
c-27 19 -57 8 -69 -24c-3 -10 -9 -19 -36 -14c-21 4 -27 12 -25 24c12 73 63 85 92 85c27 1 51 -16 70 -31c16 -12 30 -22 44 -22s31 8 38 30c5 17 13 23 36 21c20 -2 35 -13 31 -31c-16 -69 -63 -75 -101 -75z" />
    <glyph glyph-name="ydieresis" unicode="&#xff;" horiz-adv-x="495" 
d="M47 -248c-12 6 -27 7 -17 48c6 26 21 33 38 26c48 -6 88 -3 110 45c11 23 16 68 22 132c0 4 0 8 -2 11l-148 448c-2 6 -7 10 -13 10c-15 1 -27 14 -27 29l1 21c0 14 11 25 25 25l114 -1c15 0 26 -12 25 -27l-3 -33c-1 -11 -15 -13 -24 -13c-3 0 -5 -3 -4 -6
c11 -41 74 -277 102 -347c1 -4 7 -3 8 1c16 56 71 304 79 336c2 7 -3 14 -9 15l-9 1c-13 2 -23 13 -23 27l-1 21c0 14 11 26 25 26h142c16 1 27 -13 26 -28l-3 -23c-2 -14 -13 -24 -27 -25h-7c-8 0 -15 -6 -17 -13l-50 -198c-38 -117 -71 -301 -112 -405
c-51 -137 -179 -115 -221 -103zM371 651c0 -24 -30 -30 -60 -29c-32 2 -42 13 -43 41c-2 37 15 51 57 49c57 -1 47 -46 46 -61zM215 651c0 -24 -31 -30 -60 -29c-32 2 -42 13 -44 41c-1 37 16 51 57 49c58 -1 47 -46 47 -61z" />
    <glyph glyph-name="Ydieresis" unicode="&#x178;" horiz-adv-x="542" 
d="M357 1h-166c-12 0 -22 10 -23 22v31c0 12 10 22 22 22h10c12 1 22 10 22 22v183c0 4 -1 7 -2 11l-153 318c-3 6 -10 10 -17 11h-7c-12 0 -21 10 -21 22l-1 34c0 13 10 23 22 23h137c12 0 22 -10 22 -22l1 -34c0 -12 -10 -22 -22 -22h-8c-5 0 -8 -5 -6 -9l103 -205
c3 -4 9 -5 12 0l121 203c2 4 0 9 -5 10h-19c-12 1 -22 11 -22 23l1 33c1 12 10 22 22 22h140c12 0 22 -10 22 -23v-34c0 -12 -10 -21 -21 -21c-8 -1 -15 -5 -19 -11l-178 -321c-2 -4 -3 -8 -3 -12l3 -178c0 -12 9 -22 21 -22l12 -1c12 0 21 -9 21 -21l1 -32
c0 -12 -9 -22 -22 -22zM411 801c0 -24 -30 -30 -60 -29c-32 2 -42 13 -43 41c-2 37 15 51 57 49c57 -1 47 -46 46 -61zM255 801c0 -24 -31 -30 -60 -29c-32 2 -42 13 -44 41c-1 37 16 51 57 49c58 -1 47 -46 47 -61z" />
    <glyph glyph-name="Acircumflex" unicode="&#xc2;" 
d="M560 77c11 0 19 -9 19 -20v-39c0 -10 -9 -19 -20 -19l-162 1c-10 0 -19 8 -19 19v39c0 10 8 19 19 19h14c6 1 10 6 8 12c-10 27 -23 92 -37 133c-2 8 -10 12 -22 11c-38 -1 -91 1 -126 1c-8 0 -16 -5 -18 -13c-11 -33 -18 -58 -27 -92c-3 -11 -10 -27 -14 -39
c-2 -6 7 -13 13 -13l17 -1c13 0 23 -11 23 -24l-1 -28c0 -13 -11 -24 -24 -24h-164c-16 0 -29 13 -29 29l1 22c1 14 12 26 27 27h7c9 0 16 6 19 14c28 70 130 386 196 590c6 17 22 29 40 28h14c18 -1 34 -13 39 -30c46 -154 154 -512 182 -589c3 -8 10 -13 19 -14h6z
M347 311c9 0 15 8 13 16c-12 56 -44 171 -48 189c0 1 -2 3 -4 3h-7c-2 0 -4 -2 -4 -4c-6 -20 -39 -133 -52 -187c-2 -8 4 -16 12 -16c24 0 66 -1 90 -1zM241 782c-25 -17 -35 -31 -53 -15c-17 15 -5 33 13 51c32 31 54 47 70 61c8 7 16 15 34 15s22 -5 32 -15
c32 -30 46 -39 81 -73c18 -17 17 -31 4 -42c-15 -14 -36 2 -51 14c-26 20 -45 31 -59 40c-5 2 -9 2 -13 0c-22 -12 -33 -19 -58 -36z" />
    <glyph glyph-name="Ecircumflex" unicode="&#xca;" horiz-adv-x="469" 
d="M402 565c-10 0 -21 -1 -32 -1c-12 0 -22 9 -22 21l-2 18c-2 10 -11 18 -22 18c-30 0 -75 -1 -108 -1c-12 0 -22 -10 -22 -22c0 -43 -2 -112 -3 -157c0 -12 10 -22 23 -22c42 0 103 2 151 0c11 -1 20 -10 21 -22c0 -11 0 -24 -1 -35c-2 -16 -15 -28 -30 -27
c-38 1 -106 3 -140 3c-12 0 -22 -10 -22 -22c0 -77 1 -135 1 -213c0 -12 9 -22 21 -23c39 -1 105 -1 129 0c6 0 4 13 4 26c0 9 6 21 18 21c13 0 24 0 36 -1c12 0 22 -10 22 -22c0 -23 -1 -49 -3 -85c-1 -11 -10 -20 -21 -20c-88 1 -227 0 -314 1c-6 1 -19 0 -27 0
c-12 0 -18 8 -18 21c-1 11 -1 27 -1 38c0 14 4 20 18 20c1 0 11 1 12 1c13 -1 20 11 20 24c1 159 2 332 2 495c0 13 -12 24 -25 22c-11 -1 -21 8 -22 20c0 12 -1 27 0 39c0 11 10 20 21 20c95 1 234 -1 341 0c13 0 22 -11 22 -24c-1 -33 -2 -67 -5 -92
c-2 -11 -11 -19 -22 -19zM174 787c-25 -17 -35 -31 -53 -15c-17 15 -5 33 13 51c32 31 54 47 70 61c8 7 16 15 34 15s22 -5 32 -15c32 -30 46 -39 81 -73c18 -17 17 -31 4 -42c-15 -14 -36 2 -51 14c-26 20 -45 31 -59 40c-5 2 -9 2 -13 0c-22 -12 -33 -19 -58 -36z" />
    <glyph glyph-name="Aacute" unicode="&#xc1;" 
d="M560 77c11 0 19 -9 19 -20v-39c0 -10 -9 -19 -20 -19l-162 1c-10 0 -19 8 -19 19v39c0 10 8 19 19 19h14c6 1 10 6 8 12c-10 27 -23 92 -37 133c-2 8 -10 12 -22 11c-38 -1 -91 1 -126 1c-8 0 -16 -5 -18 -13c-11 -33 -18 -58 -27 -92c-3 -11 -10 -27 -14 -39
c-2 -6 7 -13 13 -13l17 -1c13 0 23 -11 23 -24l-1 -28c0 -13 -11 -24 -24 -24h-164c-16 0 -29 13 -29 29l1 22c1 14 12 26 27 27h7c9 0 16 6 19 14c28 70 130 386 196 590c6 17 22 29 40 28h14c18 -1 34 -13 39 -30c46 -154 154 -512 182 -589c3 -8 10 -13 19 -14h6z
M347 311c9 0 15 8 13 16c-12 56 -44 171 -48 189c0 1 -2 3 -4 3h-7c-2 0 -4 -2 -4 -4c-6 -20 -39 -133 -52 -187c-2 -8 4 -16 12 -16c24 0 66 -1 90 -1zM300 805c22 37 30 53 66 109c17 24 39 25 60 10c22 -16 25 -39 6 -58c-47 -46 -55 -53 -98 -91c-10 -9 -26 -14 -36 -6
c-12 10 -2 30 2 36z" />
    <glyph glyph-name="Edieresis" unicode="&#xcb;" horiz-adv-x="469" 
d="M402 565c-10 0 -21 -1 -32 -1c-12 0 -22 9 -22 21l-2 18c-2 10 -11 18 -22 18c-30 0 -75 -1 -108 -1c-12 0 -22 -10 -22 -22c0 -43 -2 -112 -3 -157c0 -12 10 -22 23 -22c42 0 103 2 151 0c11 -1 20 -10 21 -22c0 -11 0 -24 -1 -35c-2 -16 -15 -28 -30 -27
c-38 1 -106 3 -140 3c-12 0 -22 -10 -22 -22c0 -77 1 -135 1 -213c0 -12 9 -22 21 -23c39 -1 105 -1 129 0c6 0 4 13 4 26c0 9 6 21 18 21c13 0 24 0 36 -1c12 0 22 -10 22 -22c0 -23 -1 -49 -3 -85c-1 -11 -10 -20 -21 -20c-88 1 -227 0 -314 1c-6 1 -19 0 -27 0
c-12 0 -18 8 -18 21c-1 11 -1 27 -1 38c0 14 4 20 18 20c1 0 11 1 12 1c13 -1 20 11 20 24c1 159 2 332 2 495c0 13 -12 24 -25 22c-11 -1 -21 8 -22 20c0 12 -1 27 0 39c0 11 10 20 21 20c95 1 234 -1 341 0c13 0 22 -11 22 -24c-1 -33 -2 -67 -5 -92
c-2 -11 -11 -19 -22 -19zM370 795c0 -24 -30 -30 -60 -29c-32 2 -42 13 -43 41c-2 37 15 51 57 49c57 -1 47 -46 46 -61zM214 795c0 -24 -31 -30 -60 -29c-32 2 -42 13 -44 41c-1 37 16 51 57 49c58 -1 47 -46 47 -61z" />
    <glyph glyph-name="Egrave" unicode="&#xc8;" horiz-adv-x="469" 
d="M402 565c-10 0 -21 -1 -32 -1c-12 0 -22 9 -22 21l-2 18c-2 10 -11 18 -22 18c-30 0 -75 -1 -108 -1c-12 0 -22 -10 -22 -22c0 -43 -2 -112 -3 -157c0 -12 10 -22 23 -22c42 0 103 2 151 0c11 -1 20 -10 21 -22c0 -11 0 -24 -1 -35c-2 -16 -15 -28 -30 -27
c-38 1 -106 3 -140 3c-12 0 -22 -10 -22 -22c0 -77 1 -135 1 -213c0 -12 9 -22 21 -23c39 -1 105 -1 129 0c6 0 4 13 4 26c0 9 6 21 18 21c13 0 24 0 36 -1c12 0 22 -10 22 -22c0 -23 -1 -49 -3 -85c-1 -11 -10 -20 -21 -20c-88 1 -227 0 -314 1c-6 1 -19 0 -27 0
c-12 0 -18 8 -18 21c-1 11 -1 27 -1 38c0 14 4 20 18 20c1 0 11 1 12 1c13 -1 20 11 20 24c1 159 2 332 2 495c0 13 -12 24 -25 22c-11 -1 -21 8 -22 20c0 12 -1 27 0 39c0 11 10 20 21 20c95 1 234 -1 341 0c13 0 22 -11 22 -24c-1 -33 -2 -67 -5 -92
c-2 -11 -11 -19 -22 -19zM271 808c4 -6 14 -26 2 -36c-11 -8 -26 -3 -36 6c-43 38 -51 45 -98 91c-19 19 -16 42 6 58c21 15 43 14 59 -10c37 -55 45 -72 67 -109z" />
    <glyph glyph-name="Iacute" unicode="&#xcd;" horiz-adv-x="244" 
d="M200 75c11 -1 20 -10 19 -21l-2 -35c-1 -11 -10 -19 -21 -19l-142 2c-11 0 -19 8 -20 19l-2 35c-1 11 7 20 18 21c10 1 18 10 18 21l-1 500c0 11 -8 20 -19 20l-10 1c-10 0 -18 8 -19 19l-1 41c0 11 8 20 18 21c5 1 5 -2 168 -1c11 0 20 -9 20 -20v-41
c0 -10 -8 -19 -19 -20l-13 -1c-10 -1 -18 -10 -18 -20v-301l1 -200c0 -11 9 -20 25 -21zM98 802c22 37 30 53 66 109c17 24 39 25 60 10c22 -16 25 -39 6 -58c-47 -46 -55 -53 -98 -91c-10 -9 -26 -14 -36 -6c-12 10 -2 30 2 36z" />
    <glyph glyph-name="Icircumflex" unicode="&#xce;" horiz-adv-x="265" 
d="M221 75c11 -1 20 -10 19 -21l-2 -35c-1 -11 -10 -19 -21 -19l-142 2c-11 0 -19 8 -20 19l-2 35c-1 11 7 20 18 21c10 1 18 10 18 21l-1 500c0 11 -8 20 -19 20l-10 1c-10 0 -18 8 -19 19l-1 41c0 11 8 20 18 21c5 1 5 -2 168 -1c11 0 20 -9 20 -20v-41
c0 -10 -8 -19 -19 -20l-13 -1c-10 -1 -18 -10 -18 -20v-301l1 -200c0 -11 9 -20 25 -21zM82 791c-25 -17 -35 -31 -53 -15c-17 15 -5 33 13 51c32 31 54 47 70 61c8 7 16 15 34 15s22 -5 32 -15c32 -30 46 -39 81 -73c18 -17 17 -31 4 -42c-15 -14 -36 2 -51 14
c-26 20 -45 31 -59 40c-5 2 -9 2 -13 0c-22 -12 -33 -19 -58 -36z" />
    <glyph glyph-name="Idieresis" unicode="&#xcf;" horiz-adv-x="256" 
d="M212 75c11 -1 20 -10 19 -21l-2 -35c-1 -11 -10 -19 -21 -19l-142 2c-11 0 -19 8 -20 19l-2 35c-1 11 7 20 18 21c10 1 18 10 18 21l-1 500c0 11 -8 20 -19 20l-10 1c-10 0 -18 8 -19 19l-1 41c0 11 8 20 18 21c5 1 5 -2 168 -1c11 0 20 -9 20 -20v-41
c0 -10 -8 -19 -19 -20l-13 -1c-10 -1 -18 -10 -18 -20v-301l1 -200c0 -11 9 -20 25 -21zM261 804c0 -24 -30 -30 -60 -29c-32 2 -42 13 -43 41c-2 37 15 51 57 49c57 -1 47 -46 46 -61zM105 804c0 -24 -31 -30 -60 -29c-32 2 -42 13 -44 41c-1 37 16 51 57 49
c58 -1 47 -46 47 -61z" />
    <glyph glyph-name="Igrave" unicode="&#xcc;" horiz-adv-x="251" 
d="M207 75c11 -1 20 -10 19 -21l-2 -35c-1 -11 -10 -19 -21 -19l-142 2c-11 0 -19 8 -20 19l-2 35c-1 11 7 20 18 21c10 1 18 10 18 21l-1 500c0 11 -8 20 -19 20l-10 1c-10 0 -18 8 -19 19l-1 41c0 11 8 20 18 21c5 1 5 -2 168 -1c11 0 20 -9 20 -20v-41
c0 -10 -8 -19 -19 -20l-13 -1c-10 -1 -18 -10 -18 -20v-301l1 -200c0 -11 9 -20 25 -21zM145 792c4 -6 14 -26 2 -36c-11 -8 -26 -3 -36 6c-43 38 -51 45 -98 91c-19 19 -16 42 6 58c21 15 43 14 59 -10c37 -55 45 -72 67 -109z" />
    <glyph glyph-name="Oacute" unicode="&#xd3;" horiz-adv-x="561" 
d="M281 -9c-184 0 -241 185 -241 371c0 160 59 332 234 345c195 0 247 -182 247 -341c0 -210 -74 -375 -240 -375zM274 629c-94 0 -135 -118 -135 -262c0 -173 49 -294 144 -294c104 0 138 112 138 292c0 158 -30 264 -147 264zM266 803c22 37 30 53 66 109
c17 24 39 25 60 10c22 -16 25 -39 6 -58c-47 -46 -55 -53 -98 -91c-10 -9 -26 -14 -36 -6c-12 10 -2 30 2 36z" />
    <glyph glyph-name="Ocircumflex" unicode="&#xd4;" horiz-adv-x="561" 
d="M281 -9c-184 0 -241 185 -241 371c0 160 59 332 234 345c195 0 247 -182 247 -341c0 -210 -74 -375 -240 -375zM274 629c-94 0 -135 -118 -135 -262c0 -173 49 -294 144 -294c104 0 138 112 138 292c0 158 -30 264 -147 264zM216 789c-25 -17 -35 -31 -53 -15
c-17 15 -5 33 13 51c32 31 54 47 70 61c8 7 16 15 34 15s22 -5 32 -15c32 -30 46 -39 81 -73c18 -17 17 -31 4 -42c-15 -14 -36 2 -51 14c-26 20 -45 31 -59 40c-5 2 -9 2 -13 0c-22 -12 -33 -19 -58 -36z" />
    <glyph glyph-name="Ograve" unicode="&#xd2;" horiz-adv-x="561" 
d="M281 -9c-184 0 -241 185 -241 371c0 160 59 332 234 345c195 0 247 -182 247 -341c0 -210 -74 -375 -240 -375zM274 629c-94 0 -135 -118 -135 -262c0 -173 49 -294 144 -294c104 0 138 112 138 292c0 158 -30 264 -147 264zM289 806c4 -6 14 -26 2 -36
c-11 -8 -26 -3 -36 6c-43 38 -51 45 -98 91c-19 19 -16 42 6 58c21 15 43 14 59 -10c37 -55 45 -72 67 -109z" />
    <glyph glyph-name="Uacute" unicode="&#xda;" horiz-adv-x="586" 
d="M542 700c13 0 24 -11 24 -24v-32c0 -13 -9 -23 -27 -25c-13 -1 -22 -11 -22 -24v-294c0 -241 -49 -310 -226 -310c-160 0 -222 45 -222 311c0 72 -2 280 0 294c0 13 -10 24 -25 24c-13 1 -23 11 -23 23l-1 31c0 13 9 24 22 26h159c14 0 25 -11 25 -24v-32
c0 -13 -10 -23 -22 -24c-18 -2 -28 -12 -28 -25c-2 -60 -4 -227 -4 -297c0 -150 4 -227 117 -227s121 89 121 230c0 100 0 234 -1 295c0 13 -10 24 -25 24c-12 1 -22 11 -23 23l-1 30c-1 13 8 24 21 26h3zM286 799c22 37 30 53 66 109c17 24 39 25 60 10
c22 -16 25 -39 6 -58c-47 -46 -55 -53 -98 -91c-10 -9 -26 -14 -36 -6c-12 10 -2 30 2 36z" />
    <glyph glyph-name="Ucircumflex" unicode="&#xdb;" horiz-adv-x="626" 
d="M562 700c13 0 24 -11 24 -24v-32c0 -13 -9 -23 -27 -25c-13 -1 -22 -11 -22 -24v-294c0 -241 -49 -310 -226 -310c-160 0 -222 45 -222 311c0 72 -2 280 0 294c0 13 -10 24 -25 24c-13 1 -23 11 -23 23l-1 31c0 13 9 24 22 26h159c14 0 25 -11 25 -24v-32
c0 -13 -10 -23 -22 -24c-18 -2 -28 -12 -28 -25c-2 -60 -4 -227 -4 -297c0 -150 4 -227 117 -227s121 89 121 230c0 100 0 234 -1 295c0 13 -10 24 -25 24c-12 1 -22 11 -23 23l-1 30c-1 13 8 24 21 26h3zM250 790c-25 -17 -35 -31 -53 -15c-17 15 -5 33 13 51
c32 31 54 47 70 61c8 7 16 15 34 15s22 -5 32 -15c32 -30 46 -39 81 -73c18 -17 17 -31 4 -42c-15 -14 -36 2 -51 14c-26 20 -45 31 -59 40c-5 2 -9 2 -13 0c-22 -12 -33 -19 -58 -36z" />
    <glyph glyph-name="Ugrave" unicode="&#xd9;" horiz-adv-x="626" 
d="M562 700c13 0 24 -11 24 -24v-32c0 -13 -9 -23 -27 -25c-13 -1 -22 -11 -22 -24v-294c0 -241 -49 -310 -226 -310c-160 0 -222 45 -222 311c0 72 -2 280 0 294c0 13 -10 24 -25 24c-13 1 -23 11 -23 23l-1 31c0 13 9 24 22 26h159c14 0 25 -11 25 -24v-32
c0 -13 -10 -23 -22 -24c-18 -2 -28 -12 -28 -25c-2 -60 -4 -227 -4 -297c0 -150 4 -227 117 -227s121 89 121 230c0 100 0 234 -1 295c0 13 -10 24 -25 24c-12 1 -22 11 -23 23l-1 30c-1 13 8 24 21 26h3zM326 800c4 -6 14 -26 2 -36c-11 -8 -26 -3 -36 6
c-43 38 -51 45 -98 91c-19 19 -16 42 6 58c21 15 43 14 59 -10c37 -55 45 -72 67 -109z" />
    <glyph glyph-name="cacute" unicode="&#x107;" horiz-adv-x="434" 
d="M340 153h43c20 0 35 -19 30 -38c-10 -46 -26 -70 -53 -92c-26 -21 -91 -34 -128 -30c-74 9 -143 39 -172 127c-17 47 -18 100 -20 158c3 113 33 256 148 278c78 16 224 -9 224 -107v-33c0 -20 -17 -37 -37 -37c-11 0 -22 1 -32 1c-20 0 -36 16 -36 36c0 44 -29 66 -82 60
c-70 -6 -75 -97 -79 -163c-6 -116 10 -244 105 -244c46 0 36 15 55 61c5 14 19 23 34 23zM218 658c22 37 30 53 66 109c17 24 39 25 60 10c22 -16 25 -39 6 -58c-47 -46 -55 -53 -98 -91c-10 -9 -26 -14 -36 -6c-12 10 -2 30 2 36z" />
    <glyph glyph-name="ccaron" unicode="&#x10d;" horiz-adv-x="439" 
d="M345 153h43c20 0 35 -19 30 -38c-10 -46 -26 -70 -53 -92c-26 -21 -91 -34 -128 -30c-74 9 -143 39 -172 127c-17 47 -18 100 -20 158c3 113 33 256 148 278c78 16 224 -9 224 -107v-33c0 -20 -17 -37 -37 -37c-11 0 -22 1 -32 1c-20 0 -36 16 -36 36c0 44 -29 66 -82 60
c-70 -6 -75 -97 -79 -163c-6 -116 10 -244 105 -244c46 0 36 15 55 61c5 14 19 23 34 23zM172 738c25 -18 36 -25 58 -36c4 -3 8 -3 13 0c14 8 33 19 59 40c15 11 36 27 51 14c13 -12 14 -26 -4 -43c-35 -34 -49 -43 -81 -73c-10 -9 -14 -14 -32 -15c-18 0 -26 9 -34 15
c-16 14 -38 31 -70 61c-18 18 -30 37 -13 52c18 15 28 2 53 -15z" />
    <glyph glyph-name="Cacute" unicode="&#x106;" horiz-adv-x="506" 
d="M445 219c17 0 30 -14 31 -31c0 -23 -1 -39 -1 -62c0 -7 -2 -15 -5 -22c-34 -96 -89 -112 -195 -112c-206 0 -241 222 -234 382c6 136 32 298 192 329c91 18 166 -7 228 -77c8 -9 12 -20 12 -32c0 -20 1 -29 1 -37c0 -20 -15 -36 -35 -37h-19c-19 -1 -35 13 -37 32
c-1 5 -1 9 -1 14c-1 13 -5 26 -14 35c-17 19 -45 34 -89 33c-133 -16 -114 -168 -120 -269c2 -139 -17 -298 138 -298c57 0 79 47 91 83c0 20 -1 27 -1 38c0 18 15 33 33 32c8 -1 16 -1 25 -1zM253 805c22 37 30 53 66 109c17 24 39 25 60 10c22 -16 25 -39 6 -58
c-47 -46 -55 -53 -98 -91c-10 -9 -26 -14 -36 -6c-12 10 -2 30 2 36z" />
    <glyph glyph-name="Ccaron" unicode="&#x10c;" horiz-adv-x="506" 
d="M445 219c17 0 30 -14 31 -31c0 -23 -1 -39 -1 -62c0 -7 -2 -15 -5 -22c-34 -96 -89 -112 -195 -112c-206 0 -241 222 -234 382c6 136 32 298 192 329c91 18 166 -7 228 -77c8 -9 12 -20 12 -32c0 -20 1 -29 1 -37c0 -20 -15 -36 -35 -37h-19c-19 -1 -35 13 -37 32
c-1 5 -1 9 -1 14c-1 13 -5 26 -14 35c-17 19 -45 34 -89 33c-133 -16 -114 -168 -120 -269c2 -139 -17 -298 138 -298c57 0 79 47 91 83c0 20 -1 27 -1 38c0 18 15 33 33 32c8 -1 16 -1 25 -1zM202 878c25 -18 36 -25 58 -36c4 -3 8 -3 13 0c14 8 33 19 59 40
c15 11 36 27 51 14c13 -12 14 -26 -4 -43c-35 -34 -49 -43 -81 -73c-10 -9 -14 -14 -32 -15c-18 0 -26 9 -34 15c-16 14 -38 31 -70 61c-18 18 -30 37 -13 52c18 15 28 2 53 -15z" />
    <glyph glyph-name="Dcroat" unicode="&#x110;" horiz-adv-x="531" 
d="M488 471c1 -12 6 -121 0 -221c-10 -171 -47 -247 -213 -251c-38 0 -142 1 -201 1c-14 0 -26 11 -26 25c-1 10 -1 23 -1 32c0 13 11 24 24 23h1c13 0 24 11 24 24c0 31 1 113 1 202c0 4 -4 8 -8 8h-28c-32 0 -41 5 -41 27c0 23 10 31 39 30h30c4 0 8 4 8 8
c0 88 1 180 0 218c-1 13 -13 24 -26 24s-24 11 -24 24v29c0 13 10 23 23 24c39 2 124 4 200 1c118 -5 213 -110 218 -228zM379 151c20 121 11 376 -16 432c-23 46 -88 44 -141 43c-13 0 -23 -11 -23 -24c0 -26 0 -127 -1 -222c0 -4 3 -8 8 -8c19 0 35 1 42 1
c22 0 30 -13 29 -28v-9c0 -15 -13 -22 -30 -22h-42c-5 0 -8 -4 -8 -8c-1 -105 -2 -200 -2 -200c0 -13 10 -23 23 -24c56 -2 83 -3 112 4c25 6 43 29 49 65z" />
    <glyph glyph-name="sacute" unicode="&#x15b;" horiz-adv-x="448" 
d="M406 172c11 -110 -38 -150 -103 -172c-61 -22 -155 -27 -237 42c-11 9 -17 22 -18 36c0 17 0 35 1 50c0 18 15 32 33 32l36 -2c16 0 30 -14 31 -30c0 -6 0 -11 1 -16c0 -9 4 -17 11 -23c21 -20 43 -23 72 -23c51 0 70 16 68 81c-2 42 -19 50 -83 75
c-68 27 -117 38 -158 111c-51 89 6 183 68 210c0 0 157 61 243 -57c5 -7 8 -15 9 -23c0 -11 1 -21 1 -31c1 -21 -16 -38 -37 -38h-25c-19 1 -35 16 -36 36v7c0 6 -2 11 -6 16c-22 29 -34 24 -66 24c-51 0 -91 -60 -65 -110c25 -50 65 -52 115 -68c66 -22 139 -55 145 -127z
M200 659c22 37 30 53 66 109c17 24 39 25 60 10c22 -16 25 -39 6 -58c-47 -46 -55 -53 -98 -91c-10 -9 -26 -14 -36 -6c-12 10 -2 30 2 36z" />
    <glyph glyph-name="tcaron" unicode="&#x165;" horiz-adv-x="447" 
d="M87 642c0 12 9 22 22 22h58c12 -1 21 -10 21 -22l-1 -72c0 -12 10 -22 21 -22h56c12 -1 21 -10 21 -22l-1 -32c1 -11 -9 -21 -21 -21l-52 -1c-12 0 -22 -10 -22 -21c0 -74 1 -319 4 -340c4 -34 34 -40 76 -31c11 2 22 -4 25 -15s7 -26 11 -38c4 -14 -4 -28 -18 -32
c-65 -16 -143 -21 -167 14c-27 39 -26 63 -28 109c-1 17 -1 261 -2 334c0 11 -9 21 -20 21l-28 1c-11 0 -21 9 -21 21l-1 31c0 12 10 22 22 22h24c12 0 22 10 22 22zM447 636c0 -21 -2 -38 -9 -52c-8 -15 -27 -45 -43 -69c-9 -15 -16 -26 -27 -39c-7 -8 -18 -10 -24 -5
c-7 5 -9 13 -7 22c4 11 32 72 19 77c-9 2 -17 6 -23 13c-9 13 -8 59 -6 75c5 36 30 37 68 37c27 0 52 -11 52 -59z" />
    <glyph glyph-name="zacute" unicode="&#x17a;" horiz-adv-x="464" 
d="M176 96h140c11 0 20 8 20 19v1c1 11 10 19 21 19l42 -2c11 0 19 -9 19 -20l-1 -92c0 -11 -9 -20 -20 -20l-154 1h-179c-12 0 -22 9 -23 22l-1 39c0 9 2 18 7 25l248 364c3 6 -1 14 -8 13l-148 -2c-10 0 -18 -7 -19 -17v-16c-1 -10 -10 -17 -20 -17l-39 1
c-11 0 -20 9 -20 20l2 95c0 10 8 19 19 19h338c12 0 23 -10 23 -22l1 -30c0 -9 -2 -18 -7 -25l-248 -363c-3 -5 1 -12 7 -12zM205 659c22 37 30 53 66 109c17 24 39 25 60 10c22 -16 25 -39 6 -58c-47 -46 -55 -53 -98 -91c-10 -9 -26 -14 -36 -6c-12 10 -2 30 2 36z" />
    <glyph glyph-name="Aogonek" unicode="&#x104;" 
d="M560 77c11 0 19 -9 19 -20v-39c0 -10 -9 -19 -20 -19h-13c-16 -14 -34 -36 -34 -74c0 -29 22 -56 51 -54c8 0 14 2 20 4c10 4 22 -1 27 -11l3 -7c6 -11 0 -25 -11 -30c-9 -3 -21 -6 -39 -9c-48 -6 -122 20 -122 97c0 52 34 75 55 85h-99c-10 0 -19 8 -19 19v39
c0 10 8 19 19 19h14c6 1 10 6 8 12c-10 27 -23 92 -37 133c-2 8 -10 12 -22 11c-38 -1 -91 1 -126 1c-8 0 -16 -5 -18 -13c-11 -33 -18 -58 -27 -92c-3 -11 -10 -27 -14 -39c-2 -6 7 -13 13 -13l17 -1c13 0 23 -11 23 -24l-1 -28c0 -13 -11 -24 -24 -24h-164
c-16 0 -29 13 -29 29l1 22c1 14 12 26 27 27h7c9 0 16 6 19 14c28 70 130 386 196 590c6 17 22 29 40 28h14c18 -1 34 -13 39 -30c46 -154 154 -512 182 -589c3 -8 10 -13 19 -14h6zM347 311c9 0 15 8 13 16c-12 56 -44 171 -48 189c0 1 -2 3 -4 3h-7c-2 0 -4 -2 -4 -4
c-6 -20 -39 -133 -52 -187c-2 -8 4 -16 12 -16c24 0 66 -1 90 -1z" />
    <glyph glyph-name="Scedilla" unicode="&#x15e;" horiz-adv-x="505" 
d="M271 -197c-10 0 -32 3 -48 8c-12 5 -18 17 -13 28l1 5c4 10 14 15 24 13c21 -6 57 -11 69 6c6 10 7 23 5 29c-15 53 -106 20 -106 20c-4 -1 -7 2 -6 6l4 31c1 1 1 2 1 3l12 38c-55 4 -116 21 -161 66c-6 6 -10 14 -11 22l-2 59c0 18 14 32 32 33h38c17 1 32 -13 33 -30
v-17c1 -10 6 -20 15 -27c29 -21 65 -27 94 -27c51 0 108 26 105 114c-2 55 -56 77 -120 104c-82 34 -183 103 -191 196c-10 125 21 185 100 215c0 0 150 54 280 -66c6 -6 10 -14 11 -23l2 -62c0 -17 -14 -32 -32 -31h-40c-16 0 -30 13 -30 30l-2 22c0 8 -4 15 -10 19
c-32 23 -66 29 -97 29c-51 0 -115 -43 -76 -124c31 -63 120 -100 137 -104c75 -29 165 -63 174 -183c9 -109 -16 -146 -82 -186c-24 -14 -50 -23 -77 -26l-34 -3l-9 -21c-2 -4 -1 -9 2 -9c49 8 87 -9 98 -54c8 -31 -2 -61 -24 -81c-11 -10 -32 -22 -66 -22z" />
    <glyph glyph-name="Zdotaccent" unicode="&#x17b;" horiz-adv-x="496" 
d="M162 95l206 -1c10 0 19 8 20 19v2c0 11 10 20 21 19l42 -3c11 0 19 -9 19 -20l-2 -92c0 -10 -9 -19 -20 -19h-396c-16 0 -30 13 -31 30l-1 32c0 8 2 16 7 24l318 516c3 6 -1 13 -8 13l-214 -1c-11 0 -19 -8 -20 -19l-1 -23c-1 -11 -10 -19 -21 -19l-40 2
c-11 0 -20 9 -19 20l1 106c0 10 9 19 20 19h408c13 -1 23 -11 24 -24v-31c1 -8 -2 -17 -6 -24l-313 -514c-3 -5 1 -11 6 -12zM307 805c-1 -29 -36 -36 -72 -34c-37 2 -49 15 -51 48c-2 44 19 60 67 59c69 -2 56 -56 56 -73z" />
    <glyph glyph-name="aogonek" unicode="&#x105;" horiz-adv-x="463" 
d="M399 74h13c16 0 21 -13 21 -26v-26c0 -12 -6 -18 -14 -21c-16 -14 -35 -36 -35 -74c0 -29 22 -56 51 -54c8 0 14 2 20 4c10 4 22 -1 27 -11l3 -7c6 -11 0 -25 -11 -30c-9 -3 -21 -6 -39 -9c-48 -6 -122 20 -122 97c0 49 31 73 52 83h-43c-15 0 -26 13 -27 26
c-1 11 -2 18 -2 24v8c-1 4 -4 4 -6 0c-7 -12 -15 -23 -24 -33c-23 -25 -71 -30 -92 -30c-20 0 -32 -2 -51 5c-8 3 -15 7 -23 12c-5 3 -18 14 -20 17c-41 39 -46 124 -23 181c29 73 85 104 168 105c23 0 39 0 48 -1c8 -1 15 6 15 14c1 17 1 47 -3 69c-6 43 -16 72 -67 73
c-58 1 -72 -36 -78 -44c-2 -3 -3 -26 -3 -31c0 -13 -7 -18 -17 -18c-2 0 -44 -1 -48 0c-11 0 -20 5 -19 20c0 1 -1 34 -1 46c1 3 1 7 3 10c9 20 50 89 161 91c92 2 119 -41 147 -90c15 -26 19 -59 21 -95c2 -43 5 -258 5 -262c0 -14 4 -23 13 -23zM179 84
c39 -5 105 29 108 65c1 17 0 54 -1 77c0 8 -6 13 -13 14c-27 1 -66 1 -91 -5c-55 -15 -51 -58 -51 -91s16 -55 48 -60z" />
    <glyph glyph-name="scedilla" unicode="&#x15f;" horiz-adv-x="448" 
d="M249 -195c-10 0 -32 3 -48 8c-12 5 -18 17 -13 28l1 5c4 10 14 15 24 13c21 -6 57 -11 69 6c6 10 7 23 5 29c-15 53 -106 20 -106 20c-4 -1 -7 2 -6 6l4 31c1 1 1 2 1 3l11 33c-41 5 -85 21 -125 55c-11 9 -17 22 -18 36c0 17 0 35 1 50c0 18 15 32 33 32l36 -2
c16 0 30 -14 31 -30c0 -6 0 -11 1 -16c0 -9 4 -17 11 -23c21 -20 43 -23 72 -23c51 0 70 16 68 81c-2 42 -19 50 -83 75c-68 27 -117 38 -158 111c-51 89 6 183 68 210c0 0 157 61 243 -57c5 -7 8 -15 9 -23c0 -11 1 -21 1 -31c1 -21 -16 -38 -37 -38h-25
c-19 1 -35 16 -36 36v7c0 6 -2 11 -6 16c-22 29 -34 24 -66 24c-51 0 -91 -60 -65 -110c25 -50 65 -52 115 -68c66 -22 139 -55 145 -127c11 -110 -38 -150 -103 -172c-17 -6 -36 -10 -57 -13l-7 -16c-2 -4 -1 -9 2 -9c49 8 87 -9 98 -54c8 -31 -2 -61 -24 -81
c-11 -10 -32 -22 -66 -22z" />
    <glyph glyph-name="Lcaron" unicode="&#x13d;" horiz-adv-x="479" 
d="M217 616c-13 -1 -22 -11 -22 -23l-2 -472c0 -12 10 -23 23 -23l144 -1c11 0 21 8 23 19l1 7c2 12 12 20 23 20h29c13 0 23 -11 23 -24l-2 -95c0 -13 -10 -23 -23 -23h-348l-23 1c-13 0 -23 10 -23 23v48c0 12 10 23 23 23h4c13 0 23 10 23 23l2 474c0 12 -8 22 -20 23h-3
c-12 2 -21 12 -21 24v36c0 12 10 23 23 22l144 2c14 0 25 -12 23 -25l1 -39c-1 -11 -11 -20 -22 -20zM392 643c0 -21 -2 -38 -9 -52c-8 -15 -27 -45 -43 -69c-9 -15 -16 -26 -27 -39c-7 -8 -18 -10 -24 -5c-7 5 -9 13 -7 22c4 11 32 72 19 77c-9 2 -17 6 -23 13
c-9 13 -8 59 -6 75c5 36 30 37 68 37c27 0 52 -11 52 -59z" />
    <glyph glyph-name="lcaron" unicode="&#x13e;" horiz-adv-x="346" 
d="M46 73l18 4c9 2 16 10 16 20l-4 543c0 11 -8 19 -19 20c-10 1 -18 9 -18 19l-3 33c-1 12 9 22 20 22l107 1c11 0 21 -9 21 -20v-144l4 -479c0 -10 8 -19 19 -20l16 -1c11 0 19 -9 19 -20v-34c0 -11 -9 -20 -20 -20l-171 1c-11 0 -20 8 -20 20v35c-1 9 6 18 15 20z
M366 674c0 -21 -2 -38 -9 -52c-8 -15 -27 -45 -43 -69c-9 -15 -16 -26 -27 -39c-7 -8 -18 -10 -24 -5c-7 5 -9 13 -7 22c4 11 32 72 19 77c-9 2 -17 6 -23 13c-9 13 -8 59 -6 75c5 36 30 37 68 37c27 0 52 -11 52 -59z" />
    <glyph glyph-name="zdotaccent" unicode="&#x17c;" horiz-adv-x="464" 
d="M176 96h140c11 0 20 8 20 19v1c1 11 10 19 21 19l42 -2c11 0 19 -9 19 -20l-1 -92c0 -11 -9 -20 -20 -20l-154 1h-179c-12 0 -22 9 -23 22l-1 39c0 9 2 18 7 25l248 364c3 6 -1 14 -8 13l-148 -2c-10 0 -18 -7 -19 -17v-16c-1 -10 -10 -17 -20 -17l-39 1
c-11 0 -20 9 -20 20l2 95c0 10 8 19 19 19h338c12 0 23 -10 23 -22l1 -30c0 -9 -2 -18 -7 -25l-248 -363c-3 -5 1 -12 7 -12zM299 651c-1 -29 -36 -36 -72 -34c-37 2 -49 15 -51 48c-2 44 19 60 67 59c69 -2 56 -56 56 -73z" />
    <glyph glyph-name="Racute" unicode="&#x154;" horiz-adv-x="552" 
d="M46 73c9 1 17 8 17 18c1 21 2 56 2 69c1 124 1 364 2 436c0 12 -10 21 -21 21h-5c-12 0 -21 10 -21 21l1 43c0 11 9 20 20 20c60 1 239 5 294 1c81 -3 158 -84 160 -192c4 -107 -21 -163 -112 -191c-3 -1 -3 -6 0 -7c94 -32 58 -194 89 -214c20 -13 31 -17 42 -21
c11 -3 18 -14 17 -26c-1 -17 -4 -25 -6 -37c-1 -10 -9 -18 -20 -20c-54 -6 -109 -6 -133 16c-21 22 -24 85 -24 156c-2 65 -50 117 -95 117c-19 2 -53 1 -72 1c-8 0 -15 -7 -15 -15v-177c0 -10 8 -18 24 -19c9 0 17 -8 17 -17l2 -38c1 -10 -7 -19 -18 -19
c-119 -2 -119 -2 -149 -1c-10 0 -18 9 -18 19l2 39c0 9 8 17 20 17zM272 374c50 0 120 32 116 127c-3 77 -23 97 -98 112c-13 2 -73 3 -106 2c-11 0 -21 -9 -21 -20l-1 -202c0 -12 10 -21 22 -21c25 1 65 2 88 2zM227 810c22 37 30 53 66 109c17 24 39 25 60 10
c22 -16 25 -39 6 -58c-47 -46 -55 -53 -98 -91c-10 -9 -26 -14 -36 -6c-12 10 -2 30 2 36z" />
    <glyph glyph-name="Abreve" unicode="&#x102;" 
d="M560 77c11 0 19 -9 19 -20v-39c0 -10 -9 -19 -20 -19l-162 1c-10 0 -19 8 -19 19v39c0 10 8 19 19 19h14c6 1 10 6 8 12c-10 27 -23 92 -37 133c-2 8 -10 12 -22 11c-38 -1 -91 1 -126 1c-8 0 -16 -5 -18 -13c-11 -33 -18 -58 -27 -92c-3 -11 -10 -27 -14 -39
c-2 -6 7 -13 13 -13l17 -1c13 0 23 -11 23 -24l-1 -28c0 -13 -11 -24 -24 -24h-164c-16 0 -29 13 -29 29l1 22c1 14 12 26 27 27h7c9 0 16 6 19 14c28 70 130 386 196 590c6 17 22 29 40 28h14c18 -1 34 -13 39 -30c46 -154 154 -512 182 -589c3 -8 10 -13 19 -14h6z
M347 311c9 0 15 8 13 16c-12 56 -44 171 -48 189c0 1 -2 3 -4 3h-7c-2 0 -4 -2 -4 -4c-6 -20 -39 -133 -52 -187c-2 -8 4 -16 12 -16c24 0 66 -1 90 -1zM188 869h21c7 0 13 -4 15 -9l7 -14c0 -2 19 -29 62 -28c27 0 44 -2 56 10c11 10 19 22 22 32c1 7 8 11 15 12h17
c10 0 18 -9 16 -19c-2 -15 -8 -38 -23 -53c-31 -33 -47 -37 -97 -37c-43 0 -66 8 -89 23c-27 18 -34 43 -37 64c-2 10 6 19 15 19z" />
    <glyph glyph-name="Lacute" unicode="&#x139;" horiz-adv-x="459" 
d="M217 616c-13 -1 -22 -11 -22 -23l-2 -472c0 -12 10 -23 23 -23l144 -1c11 0 21 8 23 19l1 7c2 12 12 20 23 20h29c13 0 23 -11 23 -24l-2 -95c0 -13 -10 -23 -23 -23h-348l-23 1c-13 0 -23 10 -23 23v48c0 12 10 23 23 23h4c13 0 23 10 23 23l2 474c0 12 -8 22 -20 23h-3
c-12 2 -21 12 -21 24v36c0 12 10 23 23 22l144 2c14 0 25 -12 23 -25l1 -39c-1 -11 -11 -20 -22 -20zM135 799c22 37 30 53 66 109c17 24 39 25 60 10c22 -16 25 -39 6 -58c-47 -46 -55 -53 -98 -91c-10 -9 -26 -14 -36 -6c-12 10 -2 30 2 36z" />
    <glyph glyph-name="Eogonek" unicode="&#x118;" horiz-adv-x="469" 
d="M402 565c-10 0 -21 -1 -32 -1c-12 0 -22 9 -22 21l-2 18c-2 10 -11 18 -22 18c-30 0 -75 -1 -108 -1c-12 0 -22 -10 -22 -22c0 -43 -2 -112 -3 -157c0 -12 10 -22 23 -22c42 0 103 2 151 0c11 -1 20 -10 21 -22c0 -11 0 -24 -1 -35c-2 -16 -15 -28 -30 -27
c-38 1 -106 3 -140 3c-12 0 -22 -10 -22 -22c0 -77 1 -135 1 -213c0 -12 9 -22 21 -23c39 -1 105 -1 129 0c6 0 4 13 4 26c0 9 6 21 18 21c13 0 24 0 36 -1c12 0 22 -10 22 -22c0 -23 -1 -49 -3 -85c-1 -11 -10 -20 -21 -20c-18 1 -137 2 -96 0c-17 -14 -39 -37 -39 -78
c0 -29 22 -56 51 -54c8 0 14 2 20 4c10 4 22 -1 27 -11l3 -7c6 -11 0 -25 -11 -30c-9 -3 -21 -6 -39 -9c-48 -6 -122 20 -122 97c0 61 48 83 65 89h-173c-6 1 -19 0 -27 0c-12 0 -18 8 -18 21c-1 11 -1 27 -1 38c0 14 4 20 18 20c1 0 11 1 12 1c13 -1 20 11 20 24
c1 159 2 332 2 495c0 13 -12 24 -25 22c-11 -1 -21 8 -22 20c0 12 -1 27 0 39c0 11 10 20 21 20c95 1 234 -1 341 0c13 0 22 -11 22 -24c-1 -33 -2 -67 -5 -92c-2 -11 -11 -19 -22 -19z" />
    <glyph glyph-name="Ecaron" unicode="&#x11a;" horiz-adv-x="469" 
d="M402 565c-10 0 -21 -1 -32 -1c-12 0 -22 9 -22 21l-2 18c-2 10 -11 18 -22 18c-30 0 -75 -1 -108 -1c-12 0 -22 -10 -22 -22c0 -43 -2 -112 -3 -157c0 -12 10 -22 23 -22c42 0 103 2 151 0c11 -1 20 -10 21 -22c0 -11 0 -24 -1 -35c-2 -16 -15 -28 -30 -27
c-38 1 -106 3 -140 3c-12 0 -22 -10 -22 -22c0 -77 1 -135 1 -213c0 -12 9 -22 21 -23c39 -1 105 -1 129 0c6 0 4 13 4 26c0 9 6 21 18 21c13 0 24 0 36 -1c12 0 22 -10 22 -22c0 -23 -1 -49 -3 -85c-1 -11 -10 -20 -21 -20c-88 1 -227 0 -314 1c-6 1 -19 0 -27 0
c-12 0 -18 8 -18 21c-1 11 -1 27 -1 38c0 14 4 20 18 20c1 0 11 1 12 1c13 -1 20 11 20 24c1 159 2 332 2 495c0 13 -12 24 -25 22c-11 -1 -21 8 -22 20c0 12 -1 27 0 39c0 11 10 20 21 20c95 1 234 -1 341 0c13 0 22 -11 22 -24c-1 -33 -2 -67 -5 -92
c-2 -11 -11 -19 -22 -19zM182 875c25 -18 36 -25 58 -36c4 -3 8 -3 13 0c14 8 33 19 59 40c15 11 36 27 51 14c13 -12 14 -26 -4 -43c-35 -34 -49 -43 -81 -73c-10 -9 -14 -14 -32 -15c-18 0 -26 9 -34 15c-16 14 -38 31 -70 61c-18 18 -30 37 -13 52c18 15 28 2 53 -15z
" />
    <glyph glyph-name="Dcaron" unicode="&#x10e;" horiz-adv-x="522" 
d="M479 252c-11 -173 -48 -247 -216 -251c-39 -1 -145 0 -204 0c-14 1 -26 12 -27 26c0 10 -1 20 -1 29c0 14 11 24 25 24s25 11 25 24c1 71 2 403 -1 492c0 13 -10 24 -23 24h-3c-13 0 -24 11 -23 24v30c0 13 10 24 23 24c40 2 126 5 203 1c120 -5 216 -103 222 -223
c0 -11 6 -122 0 -224zM318 86c25 6 44 29 50 66c20 123 11 368 -16 425c-23 46 -89 45 -143 43c-13 0 -24 -11 -24 -24c1 -62 -4 -489 -4 -489c0 -13 10 -24 24 -24c56 -2 84 -4 113 3zM185 872c25 -18 36 -25 58 -36c4 -3 8 -3 13 0c14 8 33 19 59 40c15 11 36 27 51 14
c13 -12 14 -26 -4 -43c-35 -34 -49 -43 -81 -73c-10 -9 -14 -14 -32 -15c-18 0 -26 9 -34 15c-16 14 -38 31 -70 61c-18 18 -30 37 -13 52c18 15 28 2 53 -15z" />
    <glyph glyph-name="Nacute" unicode="&#x143;" horiz-adv-x="564" 
d="M395 239l3 360c0 10 -8 18 -18 18h-5c-10 0 -18 8 -18 18v47c0 10 8 18 18 18l142 -1c9 0 17 -8 17 -17v-46c0 -10 -8 -18 -17 -18h-10c-10 -1 -17 -8 -17 -18v-336l3 -246c1 -10 -8 -18 -18 -18h-42c-11 0 -21 5 -26 15l-234 463c-2 3 -6 2 -6 -1l1 -384
c0 -10 9 -19 19 -19h4c11 0 19 -9 19 -20l-1 -36c0 -11 -8 -19 -19 -19l-129 1c-11 0 -19 8 -19 19l-1 35c0 10 8 19 19 19c10 0 19 9 19 19l-1 511c0 8 -7 14 -15 14h-18c-8 0 -15 6 -15 14v55c0 8 7 14 15 14h94c11 1 21 -6 27 -16l221 -447c2 -4 8 -3 8 2zM253 803
c22 37 30 53 66 109c17 24 39 25 60 10c22 -16 25 -39 6 -58c-47 -46 -55 -53 -98 -91c-10 -9 -26 -14 -36 -6c-12 10 -2 30 2 36z" />
    <glyph glyph-name="Ncaron" unicode="&#x147;" horiz-adv-x="564" 
d="M395 239l3 360c0 10 -8 18 -18 18h-5c-10 0 -18 8 -18 18v47c0 10 8 18 18 18l142 -1c9 0 17 -8 17 -17v-46c0 -10 -8 -18 -17 -18h-10c-10 -1 -17 -8 -17 -18v-336l3 -246c1 -10 -8 -18 -18 -18h-42c-11 0 -21 5 -26 15l-234 463c-2 3 -6 2 -6 -1l1 -384
c0 -10 9 -19 19 -19h4c11 0 19 -9 19 -20l-1 -36c0 -11 -8 -19 -19 -19l-129 1c-11 0 -19 8 -19 19l-1 35c0 10 8 19 19 19c10 0 19 9 19 19l-1 511c0 8 -7 14 -15 14h-18c-8 0 -15 6 -15 14v55c0 8 7 14 15 14h94c11 1 21 -6 27 -16l221 -447c2 -4 8 -3 8 2zM215 874
c25 -18 36 -25 58 -36c4 -3 8 -3 13 0c14 8 33 19 59 40c15 11 36 27 51 14c13 -12 14 -26 -4 -43c-35 -34 -49 -43 -81 -73c-10 -9 -14 -14 -32 -15c-18 0 -26 9 -34 15c-16 14 -38 31 -70 61c-18 18 -30 37 -13 52c18 15 28 2 53 -15z" />
    <glyph glyph-name="Ohungarumlaut" unicode="&#x150;" horiz-adv-x="561" 
d="M281 -9c-184 0 -241 185 -241 371c0 160 59 332 234 345c195 0 247 -182 247 -341c0 -210 -74 -375 -240 -375zM274 629c-94 0 -135 -118 -135 -262c0 -173 49 -294 144 -294c104 0 138 112 138 292c0 158 -30 264 -147 264zM209 811c22 38 27 52 60 109
c15 26 39 29 60 14c22 -16 14 -32 -3 -50c-40 -46 -46 -58 -85 -98c-9 -10 -21 -15 -31 -7c-13 10 -5 26 -1 32zM300 815c25 34 48 58 91 109c19 23 40 26 59 8c21 -19 20 -39 0 -56c-54 -44 -76 -62 -116 -91c-11 -8 -26 -14 -36 -5c-13 9 -3 30 2 35z" />
    <glyph glyph-name="Rcaron" unicode="&#x158;" horiz-adv-x="572" 
d="M66 73c9 1 17 8 17 18c1 21 2 56 2 69c1 124 1 364 2 436c0 12 -10 21 -21 21h-5c-12 0 -21 10 -21 21l1 43c0 11 9 20 20 20c60 1 239 5 294 1c81 -3 158 -84 160 -192c4 -107 -21 -163 -112 -191c-3 -1 -3 -6 0 -7c94 -32 58 -194 89 -214c20 -13 31 -17 42 -21
c11 -3 18 -14 17 -26c-1 -17 -4 -25 -6 -37c-1 -10 -9 -18 -20 -20c-54 -6 -109 -6 -133 16c-21 22 -24 85 -24 156c-2 65 -50 117 -95 117c-19 2 -53 1 -72 1c-8 0 -15 -7 -15 -15v-177c0 -10 8 -18 24 -19c9 0 17 -8 17 -17l2 -38c1 -10 -7 -19 -18 -19
c-119 -2 -119 -2 -149 -1c-10 0 -18 9 -18 19l2 39c0 9 8 17 20 17zM292 374c50 0 120 32 116 127c-3 77 -23 97 -98 112c-13 2 -73 3 -106 2c-11 0 -21 -9 -21 -20l-1 -202c0 -12 10 -21 22 -21c25 1 65 2 88 2zM205 878c25 -18 36 -25 58 -36c4 -3 8 -3 13 0
c14 8 33 19 59 40c15 11 36 27 51 14c13 -12 14 -26 -4 -43c-35 -34 -49 -43 -81 -73c-10 -9 -14 -14 -32 -15c-18 0 -26 9 -34 15c-16 14 -38 31 -70 61c-18 18 -30 37 -13 52c18 15 28 2 53 -15z" />
    <glyph glyph-name="Uring" unicode="&#x16e;" horiz-adv-x="626" 
d="M562 700c13 0 24 -11 24 -24v-32c0 -13 -9 -23 -27 -25c-13 -1 -22 -11 -22 -24v-294c0 -241 -49 -310 -226 -310c-160 0 -222 45 -222 311c0 72 -2 280 0 294c0 13 -10 24 -25 24c-13 1 -23 11 -23 23l-1 31c0 13 9 24 22 26h159c14 0 25 -11 25 -24v-32
c0 -13 -10 -23 -22 -24c-18 -2 -28 -12 -28 -25c-2 -60 -4 -227 -4 -297c0 -150 4 -227 117 -227s121 89 121 230c0 100 0 234 -1 295c0 13 -10 24 -25 24c-12 1 -22 11 -23 23l-1 30c-1 13 8 24 21 26h3zM382 822c-5 -54 -57 -77 -106 -67c-52 11 -75 66 -61 110
c16 48 56 60 99 56c51 -6 72 -52 68 -99zM299 798c27 0 34 19 34 39c1 24 -5 44 -31 47c-53 7 -57 -86 -3 -86z" />
    <glyph glyph-name="Uhungarumlaut" unicode="&#x170;" horiz-adv-x="626" 
d="M562 700c13 0 24 -11 24 -24v-32c0 -13 -9 -23 -27 -25c-13 -1 -22 -11 -22 -24v-294c0 -241 -49 -310 -226 -310c-160 0 -222 45 -222 311c0 72 -2 280 0 294c0 13 -10 24 -25 24c-13 1 -23 11 -23 23l-1 31c0 13 9 24 22 26h159c14 0 25 -11 25 -24v-32
c0 -13 -10 -23 -22 -24c-18 -2 -28 -12 -28 -25c-2 -60 -4 -227 -4 -297c0 -150 4 -227 117 -227s121 89 121 230c0 100 0 234 -1 295c0 13 -10 24 -25 24c-12 1 -22 11 -23 23l-1 30c-1 13 8 24 21 26h3zM248 804c22 38 27 52 60 109c15 26 39 29 60 14
c22 -16 14 -32 -3 -50c-40 -46 -46 -58 -85 -98c-9 -10 -21 -15 -31 -7c-13 10 -5 26 -1 32zM339 808c25 34 48 58 91 109c19 23 40 26 59 8c21 -19 20 -39 0 -56c-54 -44 -76 -62 -116 -91c-11 -8 -26 -14 -36 -5c-13 9 -3 30 2 35z" />
    <glyph glyph-name="racute" unicode="&#x155;" horiz-adv-x="332" 
d="M331 532c-3 -21 -9 -58 -15 -84c-2 -8 -11 -12 -18 -8c-35 21 -76 21 -111 -2c-3 -3 -5 -7 -5 -11v-337c0 -8 7 -16 16 -16l15 -1c9 0 16 -6 16 -14v-43c1 -10 -7 -17 -16 -17h-157c-9 0 -16 8 -16 17v42c0 9 7 15 16 15h10c9 0 16 7 16 17l-2 354c0 13 -11 24 -24 24h-3
c-13 1 -23 12 -23 25v30c0 14 11 25 24 25h106c11 0 19 -8 20 -19v-3c0 -3 3 -5 6 -3c27 26 56 35 93 35c11 0 29 -6 41 -10c7 -3 12 -9 11 -16zM152 661c22 37 30 53 66 109c17 24 39 25 60 10c22 -16 25 -39 6 -58c-47 -46 -55 -53 -98 -91c-10 -9 -26 -14 -36 -6
c-12 10 -2 30 2 36z" />
    <glyph glyph-name="uhungarumlaut" unicode="&#x171;" horiz-adv-x="534" 
d="M80 130c-1 46 1 254 2 321c0 12 -9 21 -21 21h-10c-11 0 -21 9 -21 21v35c0 12 10 21 21 21l115 -1c12 0 21 -9 21 -21c-1 -52 -1 -188 -2 -216c1 -32 -4 -141 -2 -186c3 -68 97 -73 151 -42c7 4 11 12 11 20v350c0 11 -9 20 -20 20h-1c-11 1 -20 10 -20 21v34
c0 12 10 21 21 21h97c12 0 21 -9 21 -20l5 -433c0 -12 10 -21 22 -21h13c11 0 21 -10 21 -21v-31c0 -11 -9 -21 -21 -21l-114 -3c-12 -1 -21 9 -22 21v1c0 4 -4 6 -7 3c-29 -25 -68 -31 -105 -31c-134 0 -154 87 -155 137zM181 661c22 38 27 52 60 109c15 26 39 29 60 14
c22 -16 14 -32 -3 -50c-40 -46 -46 -58 -85 -98c-9 -10 -21 -15 -31 -7c-13 10 -5 26 -1 32zM272 665c25 34 48 58 91 109c19 23 40 26 59 8c21 -19 20 -39 0 -56c-54 -44 -76 -62 -116 -91c-11 -8 -26 -14 -36 -5c-13 9 -3 30 2 35z" />
    <glyph glyph-name="uring" unicode="&#x16f;" horiz-adv-x="534" 
d="M80 130c-1 46 1 254 2 321c0 12 -9 21 -21 21h-10c-11 0 -21 9 -21 21v35c0 12 10 21 21 21l115 -1c12 0 21 -9 21 -21c-1 -52 -1 -188 -2 -216c1 -32 -4 -141 -2 -186c3 -68 97 -73 151 -42c7 4 11 12 11 20v350c0 11 -9 20 -20 20h-1c-11 1 -20 10 -20 21v34
c0 12 10 21 21 21h97c12 0 21 -9 21 -20l5 -433c0 -12 10 -21 22 -21h13c11 0 21 -10 21 -21v-31c0 -11 -9 -21 -21 -21l-114 -3c-12 -1 -21 9 -22 21v1c0 4 -4 6 -7 3c-29 -25 -68 -31 -105 -31c-134 0 -154 87 -155 137zM332 691c-5 -54 -57 -77 -106 -67
c-52 11 -75 66 -61 110c16 48 56 60 99 56c51 -6 72 -52 68 -99zM249 667c27 0 34 19 34 39c1 24 -5 44 -31 47c-53 7 -57 -86 -3 -86z" />
    <glyph glyph-name="rcaron" unicode="&#x159;" horiz-adv-x="332" 
d="M331 532c-3 -21 -9 -58 -15 -84c-2 -8 -11 -12 -18 -8c-35 21 -76 21 -111 -2c-3 -3 -5 -7 -5 -11v-337c0 -8 7 -16 16 -16l15 -1c9 0 16 -6 16 -14v-43c1 -10 -7 -17 -16 -17h-157c-9 0 -16 8 -16 17v42c0 9 7 15 16 15h10c9 0 16 7 16 17l-2 354c0 13 -11 24 -24 24h-3
c-13 1 -23 12 -23 25v30c0 14 11 25 24 25h106c11 0 19 -8 20 -19v-3c0 -3 3 -5 6 -3c27 26 56 35 93 35c11 0 29 -6 41 -10c7 -3 12 -9 11 -16zM118 737c25 -18 36 -25 58 -36c4 -3 8 -3 13 0c14 8 33 19 59 40c15 11 36 27 51 14c13 -12 14 -26 -4 -43
c-35 -34 -49 -43 -81 -73c-10 -9 -14 -14 -32 -15c-18 0 -26 9 -34 15c-16 14 -38 31 -70 61c-18 18 -30 37 -13 52c18 15 28 2 53 -15z" />
    <glyph glyph-name="ohungarumlaut" unicode="&#x151;" horiz-adv-x="468" 
d="M424 193c-20 -178 -132 -233 -245 -196c-199 66 -186 563 57 563c182 0 203 -239 188 -367zM233 69c77 0 98 80 98 230c0 134 -50 179 -98 179c-61 0 -99 -91 -99 -178c0 -102 28 -231 99 -231zM176 659c22 38 27 52 60 109c15 26 39 29 60 14c22 -16 14 -32 -3 -50
c-40 -46 -46 -58 -85 -98c-9 -10 -21 -15 -31 -7c-13 10 -5 26 -1 32zM267 663c25 34 48 58 91 109c19 23 40 26 59 8c21 -19 20 -39 0 -56c-54 -44 -76 -62 -116 -91c-11 -8 -26 -14 -36 -5c-13 9 -3 30 2 35z" />
    <glyph glyph-name="ncaron" unicode="&#x148;" horiz-adv-x="513" 
d="M426 413c1 -47 5 -256 7 -321c0 -10 8 -18 19 -18l12 -1c10 0 18 -8 18 -18l1 -36c0 -11 -9 -19 -19 -19h-160c-10 0 -19 8 -19 19v36c0 10 8 19 19 19h6c10 0 19 8 19 19l-6 326c-3 68 -84 72 -136 39c-5 -3 -8 -9 -8 -15v-351c0 -10 8 -18 19 -18l13 -1
c11 0 19 -8 19 -19v-35c0 -11 -9 -19 -19 -19h-155c-10 0 -19 8 -19 19l1 36c0 10 8 18 18 18h5c11 0 19 9 19 19l-3 361c0 12 -9 21 -20 22h-6c-11 1 -21 10 -21 22v29c0 13 10 22 22 22h100c13 0 24 -11 25 -24v-6c0 -2 2 -3 4 -2c27 28 50 36 88 36
c134 0 155 -89 157 -139zM176 739c25 -18 36 -25 58 -36c4 -3 8 -3 13 0c14 8 33 19 59 40c15 11 36 27 51 14c13 -12 14 -26 -4 -43c-35 -34 -49 -43 -81 -73c-10 -9 -14 -14 -32 -15c-18 0 -26 9 -34 15c-16 14 -38 31 -70 61c-18 18 -30 37 -13 52c18 15 28 2 53 -15z
" />
    <glyph glyph-name="nacute" unicode="&#x144;" horiz-adv-x="513" 
d="M426 413c1 -47 5 -256 7 -321c0 -10 8 -18 19 -18l12 -1c10 0 18 -8 18 -18l1 -36c0 -11 -9 -19 -19 -19h-160c-10 0 -19 8 -19 19v36c0 10 8 19 19 19h6c10 0 19 8 19 19l-6 326c-3 68 -84 72 -136 39c-5 -3 -8 -9 -8 -15v-351c0 -10 8 -18 19 -18l13 -1
c11 0 19 -8 19 -19v-35c0 -11 -9 -19 -19 -19h-155c-10 0 -19 8 -19 19l1 36c0 10 8 18 18 18h5c11 0 19 9 19 19l-3 361c0 12 -9 21 -20 22h-6c-11 1 -21 10 -21 22v29c0 13 10 22 22 22h100c13 0 24 -11 25 -24v-6c0 -2 2 -3 4 -2c27 28 50 36 88 36
c134 0 155 -89 157 -139zM225 659c22 37 30 53 66 109c17 24 39 25 60 10c22 -16 25 -39 6 -58c-47 -46 -55 -53 -98 -91c-10 -9 -26 -14 -36 -6c-12 10 -2 30 2 36z" />
    <glyph glyph-name="dcroat" unicode="&#x111;" horiz-adv-x="459" 
d="M407 71c12 0 22 -10 22 -22v-28c0 -12 -10 -22 -23 -22l-98 1c-12 0 -21 8 -22 20v3c-1 4 -5 6 -7 3c-25 -25 -44 -32 -96 -32c-64 3 -123 44 -139 166c-2 72 -12 179 12 248c26 74 63 136 135 136c34 0 60 -8 82 -24c5 -4 12 0 12 6v28c0 4 -4 8 -9 8h-72
c-31 1 -41 5 -41 28c0 22 10 31 39 30h77c3 0 6 3 6 7v1c0 11 -9 17 -22 17h-15c-13 0 -22 10 -22 23l1 31c0 13 10 22 22 22h111c13 0 23 -10 23 -22l-1 -69c0 -5 4 -9 9 -9h1c21 0 29 -13 28 -27v-10c0 -14 -13 -21 -30 -21c-5 0 -9 -4 -9 -9l-4 -460c0 -12 9 -22 22 -23
h8zM272 89c8 6 12 16 12 26c0 88 -1 234 -1 323c0 8 -5 15 -13 18c-35 13 -80 15 -112 -34c-24 -38 -22 -159 -23 -190c1 -35 9 -72 27 -111c15 -55 75 -63 110 -32z" />
    <glyph glyph-name="dcaron" unicode="&#x10f;" horiz-adv-x="538" 
d="M553 663c-18 -74 -72 -140 -83 -153c-6 -7 -17 -9 -24 -4c-6 5 -8 13 -6 21c22 77 13 135 15 152c5 36 29 63 66 56c32 -7 43 -26 32 -72zM404 76h8c13 0 23 -10 23 -23v-28c0 -13 -11 -23 -23 -23l-100 1c-11 0 -21 9 -22 21v3c-1 4 -5 5 -8 3c-25 -25 -44 -32 -96 -32
c-65 2 -125 45 -141 167c-2 74 -13 183 12 252c26 75 64 138 137 138c34 0 60 -8 83 -24c5 -4 12 0 12 6v98c1 12 -9 22 -22 22l-16 1c-12 0 -22 10 -22 23l1 32c0 12 10 22 22 22h113c13 0 23 -10 23 -23l-6 -613c0 -13 10 -23 22 -23zM288 120c0 90 -1 237 -1 327
c0 9 -5 16 -13 19c-36 13 -82 15 -113 -34c-25 -39 -23 -162 -24 -193c1 -35 9 -73 27 -112c16 -57 77 -65 112 -34c8 7 12 17 12 27z" />
    <glyph glyph-name="ecaron" unicode="&#x11b;" horiz-adv-x="435" 
d="M326 176c13 1 28 2 42 1c12 0 22 -10 22 -22c-1 -15 0 -26 0 -40c0 -29 -29 -66 -51 -85c-60 -48 -136 -33 -172 -25c-157 36 -136 322 -105 427c27 90 83 127 160 129c47 2 122 -25 159 -135c11 -33 15 -96 13 -145c0 -20 -16 -35 -36 -36c-64 -1 -199 -2 -199 -2
c-12 -1 -19 -10 -19 -22c0 -45 16 -147 78 -148c50 -1 65 21 76 44c2 5 4 19 5 32c1 15 12 26 27 27zM259 464c-29 18 -79 15 -100 -26c-10 -21 -13 -57 -16 -90c-1 -13 9 -24 23 -24h108c16 0 26 15 24 32c0 34 -2 86 -39 108zM154 729c25 -18 36 -25 58 -36
c4 -3 8 -3 13 0c14 8 33 19 59 40c15 11 36 27 51 14c13 -12 14 -26 -4 -43c-35 -34 -49 -43 -81 -73c-10 -9 -14 -14 -32 -15c-18 0 -26 9 -34 15c-16 14 -38 31 -70 61c-18 18 -30 37 -13 52c18 15 28 2 53 -15z" />
    <glyph glyph-name="eogonek" unicode="&#x119;" horiz-adv-x="435" 
d="M326 176c13 1 28 2 42 1c12 0 22 -10 22 -22c-1 -15 0 -26 0 -40c0 -29 -29 -66 -51 -85c-28 -22 -58 -30 -87 -33c-17 -14 -36 -37 -36 -76c0 -29 22 -56 51 -54c8 0 14 2 20 4c10 4 22 -1 27 -11l3 -7c6 -11 0 -25 -11 -30c-9 -3 -21 -6 -39 -9c-48 -6 -122 20 -122 97
c0 58 43 80 62 87c-16 2 -30 4 -40 7c-157 36 -136 322 -105 427c27 90 83 127 160 129c47 2 122 -25 159 -135c11 -33 15 -96 13 -145c0 -20 -16 -35 -36 -36c-64 -1 -199 -2 -199 -2c-12 -1 -19 -10 -19 -22c0 -45 16 -147 78 -148c50 -1 65 21 76 44c2 5 4 19 5 32
c1 15 12 26 27 27zM259 464c-29 18 -79 15 -100 -26c-10 -21 -13 -57 -16 -90c-1 -13 9 -24 23 -24h108c16 0 26 15 24 32c0 34 -2 86 -39 108z" />
    <glyph glyph-name="lacute" unicode="&#x13a;" horiz-adv-x="272" 
d="M46 73l18 4c9 2 16 10 16 20l-4 543c0 11 -8 19 -19 20c-10 1 -18 9 -18 19l-3 33c-1 12 9 22 20 22l107 1c11 0 21 -9 21 -20v-144l4 -479c0 -10 8 -19 19 -20l16 -1c11 0 19 -9 19 -20v-34c0 -11 -9 -20 -20 -20l-171 1c-11 0 -20 8 -20 20v35c-1 9 6 18 15 20z
M117 833c22 37 30 53 66 109c17 24 39 25 60 10c22 -16 25 -39 6 -58c-47 -46 -55 -53 -98 -91c-10 -9 -26 -14 -36 -6c-12 10 -2 30 2 36z" />
    <glyph glyph-name="abreve" unicode="&#x103;" horiz-adv-x="463" 
d="M399 74h13c16 0 21 -13 21 -26v-26c0 -17 -14 -22 -26 -22h-85c-15 0 -26 13 -27 26c-1 11 -2 18 -2 24v8c-1 4 -4 4 -6 0c-7 -12 -15 -23 -24 -33c-23 -25 -71 -30 -92 -30c-20 0 -32 -2 -51 5c-8 3 -15 7 -23 12c-5 3 -18 14 -20 17c-41 39 -46 124 -23 181
c29 73 85 104 168 105c23 0 39 0 48 -1c8 -1 15 6 15 14c1 17 1 47 -3 69c-6 43 -16 72 -67 73c-58 1 -72 -36 -78 -44c-2 -3 -3 -26 -3 -31c0 -13 -7 -18 -17 -18c-2 0 -44 -1 -48 0c-11 0 -20 5 -19 20c0 1 -1 34 -1 46c1 3 1 7 3 10c9 20 50 89 161 91
c92 2 119 -41 147 -90c15 -26 19 -59 21 -95c2 -43 5 -258 5 -262c0 -14 4 -23 13 -23zM179 84c39 -5 105 29 108 65c1 17 0 54 -1 77c0 8 -6 13 -13 14c-27 1 -66 1 -91 -5c-55 -15 -51 -58 -51 -91s16 -55 48 -60zM105 727h21c7 0 13 -4 15 -9l7 -14c0 -2 19 -29 62 -28
c27 0 44 -2 56 10c11 10 19 22 22 32c1 7 8 11 15 12h17c10 0 18 -9 16 -19c-2 -15 -8 -38 -23 -53c-31 -33 -47 -37 -97 -37c-43 0 -66 8 -89 23c-27 18 -34 43 -37 64c-2 10 6 19 15 19z" />
    <glyph glyph-name="Sacute" unicode="&#x15a;" horiz-adv-x="505" 
d="M463 205c9 -109 -16 -146 -82 -186c-24 -14 -50 -23 -77 -26c-62 -8 -178 -10 -251 63c-6 6 -10 14 -11 22l-2 59c0 18 14 32 32 33h38c17 1 32 -13 33 -30v-17c1 -10 6 -20 15 -27c29 -21 65 -27 94 -27c51 0 108 26 105 114c-2 55 -56 77 -120 104
c-82 34 -183 103 -191 196c-10 125 21 185 100 215c0 0 150 54 280 -66c6 -6 10 -14 11 -23l2 -62c0 -17 -14 -32 -32 -31h-40c-16 0 -30 13 -30 30l-2 22c0 8 -4 15 -10 19c-32 23 -66 29 -97 29c-51 0 -115 -43 -76 -124c31 -63 120 -100 137 -104
c75 -29 165 -63 174 -183zM234 808c22 37 30 53 66 109c17 24 39 25 60 10c22 -16 25 -39 6 -58c-47 -46 -55 -53 -98 -91c-10 -9 -26 -14 -36 -6c-12 10 -2 30 2 36z" />
    <glyph glyph-name="Tcaron" unicode="&#x164;" horiz-adv-x="481" 
d="M288 604l5 -507c0 -11 9 -20 20 -20l18 -1c11 -1 20 -10 20 -21l1 -33c0 -12 -10 -21 -21 -21l-171 -1c-11 0 -20 9 -21 20l-1 33c-1 12 8 21 20 22l12 1c11 0 20 10 20 21l-2 505c0 11 -8 19 -18 19h-59c-10 0 -18 -8 -19 -17l-1 -9c0 -10 -9 -17 -19 -17l-43 1
c-10 0 -18 8 -18 19l-1 82c0 11 9 19 19 19l414 1c15 0 28 -9 27 -24l-2 -79c-1 -15 -13 -27 -28 -26h-28c-13 1 -24 11 -26 24l-1 13c-1 8 -9 15 -18 15h-60c-10 0 -19 -8 -19 -19zM176 879c25 -18 36 -25 58 -36c4 -3 8 -3 13 0c14 8 33 19 59 40c15 11 36 27 51 14
c13 -12 14 -26 -4 -43c-35 -34 -49 -43 -81 -73c-10 -9 -14 -14 -32 -15c-18 0 -26 9 -34 15c-16 14 -38 31 -70 61c-18 18 -30 37 -13 52c18 15 28 2 53 -15z" />
    <glyph glyph-name="Zacute" unicode="&#x179;" horiz-adv-x="496" 
d="M162 95l206 -1c10 0 19 8 20 19v2c0 11 10 20 21 19l42 -3c11 0 19 -9 19 -20l-2 -92c0 -10 -9 -19 -20 -19h-396c-16 0 -30 13 -31 30l-1 32c0 8 2 16 7 24l318 516c3 6 -1 13 -8 13l-214 -1c-11 0 -19 -8 -20 -19l-1 -23c-1 -11 -10 -19 -21 -19l-40 2
c-11 0 -20 9 -19 20l1 106c0 10 9 19 20 19h408c13 -1 23 -11 24 -24v-31c1 -8 -2 -17 -6 -24l-313 -514c-3 -5 1 -11 6 -12zM226 798c22 37 30 53 66 109c17 24 39 25 60 10c22 -16 25 -39 6 -58c-47 -46 -55 -53 -98 -91c-10 -9 -26 -14 -36 -6c-12 10 -2 30 2 36z" />
    <glyph glyph-name="cent" unicode="&#xa2;" horiz-adv-x="458" 
d="M408 143c19 0 33 -18 29 -37c-10 -45 -25 -70 -53 -91c-15 -12 -49 -21 -82 -26c-7 -1 -11 -6 -11 -13c0 -22 -1 -50 -1 -73c0 -22 -22 -24 -45 -25c-23 0 -34 8 -35 31c-1 19 -1 54 -1 71c0 6 -4 11 -9 12c-60 14 -117 47 -141 119c-3 11 -6 22 -8 33
c-7 32 -10 60 -11 122c3 95 10 130 44 181c24 37 71 75 111 83c9 2 15 10 14 18v60c1 32 13 35 38 37c25 1 44 -1 44 -35c0 -16 0 -38 -1 -60c0 -8 6 -16 14 -17c42 -9 77 -30 111 -61c13 -13 20 -30 21 -47v-33c0 -20 -17 -36 -37 -36c-10 0 -21 1 -31 1
c-20 0 -35 16 -36 35v1c0 13 4 23 -6 32c-30 28 -50 32 -94 26c-69 -6 -84 -86 -88 -151c-5 -89 -1 -121 26 -178c14 -29 54 -67 87 -62c39 2 56 15 74 60c6 14 19 23 34 23h43z" />
    <glyph glyph-name="imacron" unicode="&#x12b;" horiz-adv-x="278" 
d="M54 20l4 46c0 7 7 13 14 13h16c8 0 15 7 15 15v368c0 8 -6 14 -14 14l-14 1c-8 0 -14 6 -14 14l-2 46c0 8 6 15 14 15h115c8 0 15 -6 15 -14l8 -444c1 -8 7 -14 15 -14l12 -1c7 0 14 -6 14 -14l1 -46c0 -9 -7 -15 -15 -15h-153c-9 0 -31 7 -31 16zM267 671v-16
c0 -14 -13 -22 -30 -22h-186c-32 0 -41 8 -41 31c0 22 10 33 39 33c23 -1 164 1 189 1c22 0 30 -12 29 -27z" />
    <glyph glyph-name="omacron" unicode="&#x14d;" horiz-adv-x="468" 
d="M424 193c-20 -178 -132 -233 -245 -196c-199 66 -186 563 57 563c182 0 203 -239 188 -367zM233 69c77 0 98 80 98 230c0 134 -50 179 -98 179c-61 0 -99 -91 -99 -178c0 -102 28 -231 99 -231zM363 673v-16c0 -14 -13 -22 -30 -22h-186c-32 0 -41 8 -41 31
c0 22 10 33 39 33c23 -1 164 1 189 1c22 0 30 -12 29 -27z" />
    <glyph glyph-name="uogonek" unicode="&#x173;" horiz-adv-x="547" 
d="M80 130c-1 46 1 254 2 321c0 12 -9 21 -21 21h-10c-11 0 -21 9 -21 21v35c0 12 10 21 21 21l115 -1c12 0 21 -9 21 -21c-1 -52 -1 -188 -2 -216c1 -32 -4 -141 -2 -186c3 -68 97 -73 151 -42c7 4 11 12 11 20v350c0 11 -9 20 -20 20h-1c-11 1 -20 10 -20 21v34
c0 12 10 21 21 21h97c12 0 21 -9 21 -20l5 -433c0 -12 10 -21 22 -21h13c11 0 21 -10 21 -21v-31c0 -11 -9 -21 -21 -21h-4c-16 -14 -36 -37 -36 -76c0 -29 22 -56 51 -54c8 0 14 2 20 4c10 4 22 -1 27 -11l3 -7c6 -11 0 -25 -11 -30c-9 -3 -21 -6 -39 -9
c-48 -6 -122 20 -122 97c0 52 34 75 55 84l-58 -1c-12 -1 -21 9 -22 21v1c0 4 -4 6 -7 3c-29 -25 -68 -31 -105 -31c-134 0 -154 87 -155 137z" />
    <glyph glyph-name="umacron" unicode="&#x16b;" horiz-adv-x="534" 
d="M80 130c-1 46 1 254 2 321c0 12 -9 21 -21 21h-10c-11 0 -21 9 -21 21v35c0 12 10 21 21 21l115 -1c12 0 21 -9 21 -21c-1 -52 -1 -188 -2 -216c1 -32 -4 -141 -2 -186c3 -68 97 -73 151 -42c7 4 11 12 11 20v350c0 11 -9 20 -20 20h-1c-11 1 -20 10 -20 21v34
c0 12 10 21 21 21h97c12 0 21 -9 21 -20l5 -433c0 -12 10 -21 22 -21h13c11 0 21 -10 21 -21v-31c0 -11 -9 -21 -21 -21l-114 -3c-12 -1 -21 9 -22 21v1c0 4 -4 6 -7 3c-29 -25 -68 -31 -105 -31c-134 0 -154 87 -155 137zM380 682v-16c0 -14 -13 -22 -30 -22h-186
c-32 0 -41 8 -41 31c0 22 10 33 39 33c23 -1 164 1 189 1c22 0 30 -12 29 -27z" />
    <glyph glyph-name="Amacron" unicode="&#x100;" 
d="M560 77c11 0 19 -9 19 -20v-39c0 -10 -9 -19 -20 -19l-162 1c-10 0 -19 8 -19 19v39c0 10 8 19 19 19h14c6 1 10 6 8 12c-10 27 -23 92 -37 133c-2 8 -10 12 -22 11c-38 -1 -91 1 -126 1c-8 0 -16 -5 -18 -13c-11 -33 -18 -58 -27 -92c-3 -11 -10 -27 -14 -39
c-2 -6 7 -13 13 -13l17 -1c13 0 23 -11 23 -24l-1 -28c0 -13 -11 -24 -24 -24h-164c-16 0 -29 13 -29 29l1 22c1 14 12 26 27 27h7c9 0 16 6 19 14c28 70 130 386 196 590c6 17 22 29 40 28h14c18 -1 34 -13 39 -30c46 -154 154 -512 182 -589c3 -8 10 -13 19 -14h6z
M347 311c9 0 15 8 13 16c-12 56 -44 171 -48 189c0 1 -2 3 -4 3h-7c-2 0 -4 -2 -4 -4c-6 -20 -39 -133 -52 -187c-2 -8 4 -16 12 -16c24 0 66 -1 90 -1zM436 827v-16c0 -14 -13 -22 -30 -22h-186c-32 0 -41 8 -41 31c0 22 10 33 39 33c23 -1 164 1 189 1c22 0 30 -12 29 -27
z" />
    <glyph glyph-name="Iogonek" unicode="&#x12e;" horiz-adv-x="255" 
d="M211 75c11 -1 20 -10 19 -21l-2 -35c-1 -11 -10 -19 -21 -19h-21c-16 -13 -35 -36 -35 -75c0 -29 22 -56 51 -54c8 0 14 2 20 4c10 4 22 -1 27 -11l3 -7c6 -11 0 -25 -11 -30c-9 -3 -21 -6 -39 -9c-48 -6 -122 20 -122 97c0 55 39 78 59 86l-74 1c-11 0 -19 8 -20 19
l-2 35c-1 11 7 20 18 21c10 1 18 10 18 21l-1 500c0 11 -8 20 -19 20l-10 1c-10 0 -18 8 -19 19l-1 41c0 11 8 20 18 21c5 1 5 -2 168 -1c11 0 20 -9 20 -20v-41c0 -10 -8 -19 -19 -20l-13 -1c-10 -1 -18 -10 -18 -20v-301l1 -200c0 -11 9 -20 25 -21z" />
    <glyph glyph-name="Edotaccent" unicode="&#x116;" horiz-adv-x="469" 
d="M402 565c-10 0 -21 -1 -32 -1c-12 0 -22 9 -22 21l-2 18c-2 10 -11 18 -22 18c-30 0 -75 -1 -108 -1c-12 0 -22 -10 -22 -22c0 -43 -2 -112 -3 -157c0 -12 10 -22 23 -22c42 0 103 2 151 0c11 -1 20 -10 21 -22c0 -11 0 -24 -1 -35c-2 -16 -15 -28 -30 -27
c-38 1 -106 3 -140 3c-12 0 -22 -10 -22 -22c0 -77 1 -135 1 -213c0 -12 9 -22 21 -23c39 -1 105 -1 129 0c6 0 4 13 4 26c0 9 6 21 18 21c13 0 24 0 36 -1c12 0 22 -10 22 -22c0 -23 -1 -49 -3 -85c-1 -11 -10 -20 -21 -20c-88 1 -227 0 -314 1c-6 1 -19 0 -27 0
c-12 0 -18 8 -18 21c-1 11 -1 27 -1 38c0 14 4 20 18 20c1 0 11 1 12 1c13 -1 20 11 20 24c1 159 2 332 2 495c0 13 -12 24 -25 22c-11 -1 -21 8 -22 20c0 12 -1 27 0 39c0 11 10 20 21 20c95 1 234 -1 341 0c13 0 22 -11 22 -24c-1 -33 -2 -67 -5 -92
c-2 -11 -11 -19 -22 -19zM305 803c-1 -29 -36 -36 -72 -34c-37 2 -49 15 -51 48c-2 44 19 60 67 59c69 -2 56 -56 56 -73z" />
    <glyph glyph-name="Imacron" unicode="&#x12a;" horiz-adv-x="249" 
d="M205 75c11 -1 20 -10 19 -21l-2 -35c-1 -11 -10 -19 -21 -19l-142 2c-11 0 -19 8 -20 19l-2 35c-1 11 7 20 18 21c10 1 18 10 18 21l-1 500c0 11 -8 20 -19 20l-10 1c-10 0 -18 8 -19 19l-1 41c0 11 8 20 18 21c5 1 5 -2 168 -1c11 0 20 -9 20 -20v-41
c0 -10 -8 -19 -19 -20l-13 -1c-10 -1 -18 -10 -18 -20v-301l1 -200c0 -11 9 -20 25 -21zM247 809v-16c0 -14 -13 -22 -30 -22h-186c-32 0 -41 8 -41 31c0 22 10 33 39 33c23 -1 164 1 189 1c22 0 30 -12 29 -27z" />
    <glyph glyph-name="Omacron" unicode="&#x14c;" horiz-adv-x="561" 
d="M281 -9c-184 0 -241 185 -241 371c0 160 59 332 234 345c195 0 247 -182 247 -341c0 -210 -74 -375 -240 -375zM274 629c-94 0 -135 -118 -135 -262c0 -173 49 -294 144 -294c104 0 138 112 138 292c0 158 -30 264 -147 264zM398 811v-16c0 -14 -13 -22 -30 -22h-186
c-32 0 -41 8 -41 31c0 22 10 33 39 33c23 -1 164 1 189 1c22 0 30 -12 29 -27z" />
    <glyph glyph-name="Uogonek" unicode="&#x172;" horiz-adv-x="626" 
d="M562 700c13 0 24 -11 24 -24v-32c0 -13 -9 -23 -27 -25c-13 -1 -22 -11 -22 -24v-294c0 -214 -39 -292 -170 -307c-16 -14 -33 -36 -33 -73c0 -29 22 -56 51 -54c8 0 14 2 20 4c10 4 22 -1 27 -11l3 -7c6 -11 0 -25 -11 -30c-9 -3 -21 -6 -39 -9c-48 -6 -122 20 -122 97
c0 45 26 69 47 80c-160 0 -221 45 -221 311c0 72 -2 280 0 294c0 13 -10 24 -25 24c-13 1 -23 11 -23 23l-1 31c0 13 9 24 22 26h159c14 0 25 -11 25 -24v-32c0 -13 -10 -23 -22 -24c-18 -2 -28 -12 -28 -25c-2 -60 -4 -227 -4 -297c0 -150 4 -227 117 -227s121 89 121 230
c0 100 0 234 -1 295c0 13 -10 24 -25 24c-12 1 -22 11 -23 23l-1 30c-1 13 8 24 21 26h3z" />
    <glyph glyph-name="Umacron" unicode="&#x16a;" horiz-adv-x="626" 
d="M562 700c13 0 24 -11 24 -24v-32c0 -13 -9 -23 -27 -25c-13 -1 -22 -11 -22 -24v-294c0 -241 -49 -310 -226 -310c-160 0 -222 45 -222 311c0 72 -2 280 0 294c0 13 -10 24 -25 24c-13 1 -23 11 -23 23l-1 31c0 13 9 24 22 26h159c14 0 25 -11 25 -24v-32
c0 -13 -10 -23 -22 -24c-18 -2 -28 -12 -28 -25c-2 -60 -4 -227 -4 -297c0 -150 4 -227 117 -227s121 89 121 230c0 100 0 234 -1 295c0 13 -10 24 -25 24c-12 1 -22 11 -23 23l-1 30c-1 13 8 24 21 26h3zM440 818v-16c0 -14 -13 -22 -30 -22h-186c-32 0 -41 8 -41 31
c0 22 10 33 39 33c23 -1 164 1 189 1c22 0 30 -12 29 -27z" />
    <glyph glyph-name="amacron" unicode="&#x101;" horiz-adv-x="463" 
d="M399 74h13c16 0 21 -13 21 -26v-26c0 -17 -14 -22 -26 -22h-85c-15 0 -26 13 -27 26c-1 11 -2 18 -2 24v8c-1 4 -4 4 -6 0c-7 -12 -15 -23 -24 -33c-23 -25 -71 -30 -92 -30c-20 0 -32 -2 -51 5c-8 3 -15 7 -23 12c-5 3 -18 14 -20 17c-41 39 -46 124 -23 181
c29 73 85 104 168 105c23 0 39 0 48 -1c8 -1 15 6 15 14c1 17 1 47 -3 69c-6 43 -16 72 -67 73c-58 1 -72 -36 -78 -44c-2 -3 -3 -26 -3 -31c0 -13 -7 -18 -17 -18c-2 0 -44 -1 -48 0c-11 0 -20 5 -19 20c0 1 -1 34 -1 46c1 3 1 7 3 10c9 20 50 89 161 91
c92 2 119 -41 147 -90c15 -26 19 -59 21 -95c2 -43 5 -258 5 -262c0 -14 4 -23 13 -23zM179 84c39 -5 105 29 108 65c1 17 0 54 -1 77c0 8 -6 13 -13 14c-27 1 -66 1 -91 -5c-55 -15 -51 -58 -51 -91s16 -55 48 -60zM349 670v-16c0 -14 -13 -22 -30 -22h-186
c-32 0 -41 8 -41 31c0 22 10 33 39 33c23 -1 164 1 189 1c22 0 30 -12 29 -27z" />
    <glyph glyph-name="Emacron" unicode="&#x112;" horiz-adv-x="469" 
d="M402 565c-10 0 -21 -1 -32 -1c-12 0 -22 9 -22 21l-2 18c-2 10 -11 18 -22 18c-30 0 -75 -1 -108 -1c-12 0 -22 -10 -22 -22c0 -43 -2 -112 -3 -157c0 -12 10 -22 23 -22c42 0 103 2 151 0c11 -1 20 -10 21 -22c0 -11 0 -24 -1 -35c-2 -16 -15 -28 -30 -27
c-38 1 -106 3 -140 3c-12 0 -22 -10 -22 -22c0 -77 1 -135 1 -213c0 -12 9 -22 21 -23c39 -1 105 -1 129 0c6 0 4 13 4 26c0 9 6 21 18 21c13 0 24 0 36 -1c12 0 22 -10 22 -22c0 -23 -1 -49 -3 -85c-1 -11 -10 -20 -21 -20c-88 1 -227 0 -314 1c-6 1 -19 0 -27 0
c-12 0 -18 8 -18 21c-1 11 -1 27 -1 38c0 14 4 20 18 20c1 0 11 1 12 1c13 -1 20 11 20 24c1 159 2 332 2 495c0 13 -12 24 -25 22c-11 -1 -21 8 -22 20c0 12 -1 27 0 39c0 11 10 20 21 20c95 1 234 -1 341 0c13 0 22 -11 22 -24c-1 -33 -2 -67 -5 -92
c-2 -11 -11 -19 -22 -19zM362 825v-16c0 -14 -13 -22 -30 -22h-186c-32 0 -41 8 -41 31c0 22 10 33 39 33c23 -1 164 1 189 1c22 0 30 -12 29 -27z" />
    <glyph glyph-name="iogonek" unicode="&#x12f;" horiz-adv-x="239" 
d="M20 20l4 46c0 7 7 13 14 13h16c8 0 15 7 15 15v368c0 8 -6 14 -14 14l-14 1c-8 0 -14 6 -14 14l-2 46c0 8 6 15 14 15h115c8 0 15 -6 15 -14l8 -444c1 -8 7 -14 15 -14l12 -1c7 0 14 -6 14 -14l1 -46c0 -9 -7 -15 -15 -15h-33c-16 -14 -32 -36 -32 -72
c0 -29 22 -56 51 -54c8 0 14 2 20 4c10 4 22 -1 27 -11l3 -7c6 -11 0 -25 -11 -30c-9 -3 -21 -6 -39 -9c-48 -6 -122 20 -122 97c0 48 29 71 50 82h-67c-9 0 -31 7 -31 16zM168 658c-1 -29 -37 -37 -73 -35c-38 3 -50 16 -52 49c-2 45 19 61 69 60c69 -2 56 -57 56 -74z" />
    <glyph glyph-name="edotaccent" unicode="&#x117;" horiz-adv-x="435" 
d="M326 176c13 1 28 2 42 1c12 0 22 -10 22 -22c-1 -15 0 -26 0 -40c0 -29 -29 -66 -51 -85c-60 -48 -136 -33 -172 -25c-157 36 -136 322 -105 427c27 90 83 127 160 129c47 2 122 -25 159 -135c11 -33 15 -96 13 -145c0 -20 -16 -35 -36 -36c-64 -1 -199 -2 -199 -2
c-12 -1 -19 -10 -19 -22c0 -45 16 -147 78 -148c50 -1 65 21 76 44c2 5 4 19 5 32c1 15 12 26 27 27zM259 464c-29 18 -79 15 -100 -26c-10 -21 -13 -57 -16 -90c-1 -13 9 -24 23 -24h108c16 0 26 15 24 32c0 34 -2 86 -39 108zM276 654c-1 -29 -36 -36 -72 -34
c-37 2 -49 15 -51 48c-2 44 19 60 67 59c69 -2 56 -56 56 -73z" />
    <glyph glyph-name="emacron" unicode="&#x113;" horiz-adv-x="435" 
d="M326 176c13 1 28 2 42 1c12 0 22 -10 22 -22c-1 -15 0 -26 0 -40c0 -29 -29 -66 -51 -85c-60 -48 -136 -33 -172 -25c-157 36 -136 322 -105 427c27 90 83 127 160 129c47 2 122 -25 159 -135c11 -33 15 -96 13 -145c0 -20 -16 -35 -36 -36c-64 -1 -199 -2 -199 -2
c-12 -1 -19 -10 -19 -22c0 -45 16 -147 78 -148c50 -1 65 21 76 44c2 5 4 19 5 32c1 15 12 26 27 27zM259 464c-29 18 -79 15 -100 -26c-10 -21 -13 -57 -16 -90c-1 -13 9 -24 23 -24h108c16 0 26 15 24 32c0 34 -2 86 -39 108zM348 672v-16c0 -14 -13 -22 -30 -22h-186
c-32 0 -41 8 -41 31c0 22 10 33 39 33c23 -1 164 1 189 1c22 0 30 -12 29 -27z" />
    <glyph glyph-name="quoteleft" unicode="&#x2018;" horiz-adv-x="202" 
d="M40 540c0 21 2 38 9 52c8 15 27 45 43 69c9 15 16 26 27 39c7 8 18 10 24 5c7 -5 9 -13 7 -22c-4 -11 -32 -72 -19 -77c9 -2 17 -6 23 -13c9 -13 8 -59 6 -75c-5 -36 -30 -37 -68 -37c-27 0 -52 11 -52 59z" />
    <glyph glyph-name="A" unicode="A" 
d="M560 77c11 0 19 -9 19 -20v-39c0 -10 -9 -19 -20 -19l-162 1c-10 0 -19 8 -19 19v39c0 10 8 19 19 19h14c6 1 10 6 8 12c-10 27 -23 92 -37 133c-2 8 -10 12 -22 11c-38 -1 -91 1 -126 1c-8 0 -16 -5 -18 -13c-11 -33 -18 -58 -27 -92c-3 -11 -10 -27 -14 -39
c-2 -6 7 -13 13 -13l17 -1c13 0 23 -11 23 -24l-1 -28c0 -13 -11 -24 -24 -24h-164c-16 0 -29 13 -29 29l1 22c1 14 12 26 27 27h7c9 0 16 6 19 14c28 70 130 386 196 590c6 17 22 29 40 28h14c18 -1 34 -13 39 -30c46 -154 154 -512 182 -589c3 -8 10 -13 19 -14h6z
M347 311c9 0 15 8 13 16c-12 56 -44 171 -48 189c0 1 -2 3 -4 3h-7c-2 0 -4 -2 -4 -4c-6 -20 -39 -133 -52 -187c-2 -8 4 -16 12 -16c24 0 66 -1 90 -1z" />
    <glyph glyph-name="B" unicode="B" horiz-adv-x="547" 
d="M72 80l18 1c12 1 22 11 22 23c1 48 4 160 4 219c0 110 5 186 1 279c0 9 -8 17 -17 17c-6 0 -11 1 -15 1c-10 0 -18 7 -18 17l-2 45c0 10 8 18 18 18c45 1 162 3 230 2c205 -4 191 -205 157 -269c-9 -16 -19 -24 -29 -30c-8 -5 -8 -16 -1 -22c52 -37 65 -82 66 -173
c1 -107 -44 -205 -174 -208c-78 -2 -206 0 -258 1c-13 0 -23 11 -24 24v31c0 13 10 23 22 24zM219 331v-234c0 -9 8 -17 18 -18c65 -3 118 -8 141 38c25 51 30 112 0 176c-27 59 -65 55 -141 56c-10 0 -18 -8 -18 -18zM222 603l1 -152c0 -9 8 -17 18 -17c39 0 127 5 134 34
c8 31 12 122 -21 142c-19 11 -83 12 -115 11c-9 0 -17 -8 -17 -18z" />
    <glyph glyph-name="C" unicode="C" horiz-adv-x="496" 
d="M445 219c17 0 30 -14 31 -31c0 -23 -1 -39 -1 -62c0 -7 -2 -15 -5 -22c-34 -96 -89 -112 -195 -112c-206 0 -241 222 -234 382c6 136 32 298 192 329c91 18 166 -7 228 -77c8 -9 12 -20 12 -32c0 -20 1 -29 1 -37c0 -20 -15 -36 -35 -37h-19c-19 -1 -35 13 -37 32
c-1 5 -1 9 -1 14c-1 13 -5 26 -14 35c-17 19 -45 34 -89 33c-133 -16 -114 -168 -120 -269c2 -139 -17 -298 138 -298c57 0 79 47 91 83c0 20 -1 27 -1 38c0 18 15 33 33 32c8 -1 16 -1 25 -1z" />
    <glyph glyph-name="afii10017" unicode="&#x410;" 
d="M300 716h14c18 -1 34 -13 39 -30c46 -154 153 -520 182 -598c3 -8 10 -13 19 -13h6c11 -1 19 -9 19 -20v-35c0 -11 -9 -19 -20 -19h-162c-11 0 -19 9 -19 20v34c-1 11 8 20 19 20h14c6 0 10 6 8 12c-10 26 -23 95 -37 137c-3 7 -11 11 -22 11c-38 -1 -92 0 -127 0
c-8 0 -15 -5 -17 -12c-11 -34 -18 -58 -27 -92c-3 -11 -10 -30 -14 -43c-2 -6 7 -12 13 -13h16c13 -1 24 -12 23 -25v-24c0 -13 -11 -24 -24 -24l-164 -1c-16 0 -29 14 -29 30l1 18c1 15 12 27 27 27l7 1c8 0 16 5 19 13c28 71 130 394 196 597c5 18 22 29 40 29zM360 329
c-12 55 -44 171 -48 189c0 1 -2 3 -4 3l-7 -1c-2 0 -4 -1 -5 -3c-5 -20 -38 -134 -51 -187c-3 -9 4 -17 12 -17h90c9 0 15 7 13 16z" />
    <glyph glyph-name="afii10018" unicode="&#x411;" horiz-adv-x="500" 
d="M439 682l-2 -75c0 -10 -8 -18 -17 -18h-37c-10 0 -18 8 -18 17c0 10 -8 18 -18 18l-131 -3c-10 0 -18 -8 -18 -17c0 -23 -2 -74 -2 -110c0 -11 8 -20 19 -20c9 0 19 1 29 1c77 4 153 -22 188 -90c16 -32 28 -79 27 -116c-1 -53 5 -113 -8 -164c-18 -68 -85 -98 -148 -105
c-56 -7 -196 -2 -244 -1c-9 1 -18 6 -18 15v46c-1 10 6 15 16 15l16 1c10 1 17 9 17 18c0 71 -2 353 -1 511c0 10 -7 17 -17 18h-9c-10 0 -17 8 -17 17l-2 40c0 10 8 19 18 19l359 1c10 0 18 -8 18 -18zM354 147c0 31 0 65 -1 100c-1 39 -1 81 -28 111
c-24 26 -84 35 -118 23c-8 -3 -13 -10 -13 -17c-4 -90 2 -177 3 -264c1 -9 7 -16 16 -17c61 -4 135 1 141 64z" />
    <glyph glyph-name="afii10019" unicode="&#x412;" horiz-adv-x="537" 
d="M62 75l18 1c12 1 22 11 22 24c1 48 4 164 4 223c0 110 4 189 1 281c0 10 -8 17 -17 18h-15c-10 0 -18 8 -18 18l-2 39c0 10 8 19 18 19c45 1 162 3 229 1c206 -4 192 -202 157 -265c-8 -16 -18 -25 -28 -31c-8 -5 -9 -16 -1 -21c52 -37 64 -82 66 -174
c1 -107 -44 -204 -175 -208c-77 -1 -205 1 -257 2c-13 0 -24 10 -24 23v27c0 12 10 23 22 23zM209 331v-237c0 -10 8 -18 17 -18c66 -3 119 -11 142 35c25 50 30 118 0 182c-27 60 -65 55 -141 56c-10 0 -18 -8 -18 -18zM212 605l1 -153c0 -10 8 -18 18 -18
c38 1 127 5 134 34c8 31 12 125 -21 144c-19 12 -84 11 -115 11c-10 -1 -17 -9 -17 -18z" />
    <glyph glyph-name="afii10020" unicode="&#x413;" horiz-adv-x="430" 
d="M101 588c0 10 -7 18 -17 18c-8 0 -16 1 -22 2c-11 1 -19 10 -20 21c-1 15 -2 36 -1 52c0 9 8 16 17 16c107 3 260 1 354 -1c10 0 17 -8 17 -17c0 -33 1 -71 0 -99v-5c-1 -15 -14 -26 -29 -26h-25c-16 0 -28 12 -29 27c-1 5 -1 11 -1 16c0 10 -8 17 -17 17
c-35 1 -71 -1 -109 0c-9 0 -17 -8 -17 -18c-5 -173 3 -328 -1 -498c-1 -10 7 -18 17 -18c8 0 17 -1 25 -1c9 0 16 -7 17 -16c1 -15 -1 -29 -2 -43c0 -9 -7 -17 -16 -17c-11 -1 -24 1 -43 0c-30 -2 -93 -1 -126 0c-12 0 -22 10 -23 22c0 11 -1 25 0 38c0 9 7 15 15 16
c7 1 14 1 22 1c9 1 17 8 17 18c0 166 -2 326 -3 495z" />
    <glyph glyph-name="afii10021" unicode="&#x414;" horiz-adv-x="588" 
d="M525 636c0 -13 -10 -23 -22 -22h-2c-15 0 -28 -12 -28 -27c1 -160 4 -328 5 -485c0 -12 10 -23 22 -23h23c12 0 22 -9 23 -21c3 -40 0 -76 -1 -112c-1 -12 -10 -21 -22 -22h-37c-11 1 -20 10 -22 21l-2 35c-2 11 -12 20 -24 20c-106 0 -214 2 -323 2
c-13 0 -23 -10 -23 -22c0 -11 0 -22 -1 -31c-1 -11 -10 -20 -21 -20c-13 -1 -27 -1 -29 -1c-6 0 -13 0 -18 1c-12 0 -21 9 -22 21c0 22 -1 75 -1 105c0 12 10 23 22 24c3 1 6 1 8 1c88 6 98 165 104 241c5 58 10 212 12 272c1 13 -10 24 -23 24h-1c-12 0 -22 9 -23 21
c-1 10 -3 22 -2 34c0 11 8 20 19 22c116 16 267 3 387 3c12 0 22 -13 22 -25c1 -8 1 -23 0 -36zM255 616c-11 0 -21 -10 -21 -21c-5 -75 -1 -153 -3 -224c-3 -152 -30 -183 -48 -254c-3 -12 4 -32 23 -32c54 -1 97 0 149 1c14 0 24 11 24 24c2 164 0 315 0 485
c0 12 -10 22 -23 22c-31 1 -72 1 -101 -1z" />
    <glyph glyph-name="afii10022" unicode="&#x415;" horiz-adv-x="471" 
d="M403 562c-10 0 -21 -1 -32 -1c-12 0 -21 10 -22 22c0 5 -1 11 -2 17c-2 11 -11 18 -22 18c-30 0 -75 -1 -108 -1c-12 0 -22 -10 -22 -22c0 -43 -2 -108 -2 -153c-1 -13 9 -23 22 -23c42 0 103 3 151 0c11 0 21 -10 21 -22c0 -10 0 -24 -1 -35c-2 -15 -15 -27 -30 -27
c-38 1 -106 4 -139 4c-13 0 -23 -10 -23 -23v-217c0 -12 9 -22 21 -22c39 -2 105 -2 129 -1c10 1 -1 45 8 46c14 2 35 1 51 1c11 -1 21 -10 21 -22c0 -24 0 -45 -2 -82c0 -11 -9 -21 -20 -21c-97 1 -230 -1 -315 2c-6 0 -14 -1 -22 -1c-12 0 -23 9 -23 22c0 11 -1 24 -2 34
c0 14 11 24 24 23h3c13 -1 24 10 24 22c0 159 2 333 2 496c0 14 -11 24 -25 23c-11 -1 -21 8 -22 19c0 12 0 26 1 38s10 21 22 21c95 2 237 4 341 -1c12 -1 21 -11 21 -23c-1 -34 -3 -67 -6 -92c-2 -11 -11 -19 -22 -19z" />
    <glyph glyph-name="afii10024" unicode="&#x416;" horiz-adv-x="790" 
d="M475 74c13 -1 24 -8 25 -22l2 -28c0 -14 -5 -23 -19 -24c-50 -1 -142 -1 -182 0c-10 1 -18 0 -21 10c-3 11 -1 33 -2 45c0 12 10 19 22 20c4 0 8 0 11 1c12 1 21 11 21 23l-2 507c0 10 -8 17 -18 15c-13 0 -19 5 -20 14c-1 12 1 31 -2 46c-1 9 6 17 15 18
c41 2 106 2 134 0l20 -3c8 -1 14 -7 14 -15c0 -13 0 -32 -3 -46c-1 -7 -8 -13 -15 -13l-10 1c-9 0 -16 -8 -15 -17c10 -175 4 -330 7 -505c0 -14 11 -25 24 -26zM214 393c4 7 4 16 -1 24c-43 62 -75 124 -123 194c-5 6 -11 10 -19 10l-26 1c-18 0 -24 6 -24 18l-2 44
c0 9 7 16 16 16c17 -1 32 -1 50 -1c11 -1 32 -1 44 0c4 0 8 -2 11 -5c21 -22 49 -62 63 -86c34 -41 81 -137 102 -178c7 -14 7 -29 1 -43c-32 -72 -97 -209 -139 -283c-7 -13 1 -29 16 -29c12 -1 21 -11 20 -23l-1 -31c0 -12 -10 -22 -23 -22c-39 0 -121 0 -159 1
c-11 0 -19 8 -19 19c0 12 -1 25 -1 38c0 10 8 19 18 19l24 3c7 0 14 4 17 10c59 112 84 171 155 304zM740 82c2 -3 6 -6 11 -6h25c7 0 12 -5 12 -12l2 -51c0 -7 -6 -13 -13 -13l-178 1c-7 1 -13 6 -13 13l-1 49c0 6 5 12 12 12l15 2c9 1 14 10 10 18
c-32 58 -136 246 -161 289c-7 11 -7 25 0 37l12 21c46 72 108 171 165 241c7 10 19 15 32 15c16 0 43 0 67 1c15 0 27 -12 28 -27v-18c0 -15 -11 -28 -26 -28l-34 -2c-9 -1 -16 -5 -21 -12c-23 -33 -88 -134 -125 -196c-4 -8 -4 -17 0 -24c63 -111 161 -276 181 -310z" />
    <glyph glyph-name="afii10025" unicode="&#x417;" horiz-adv-x="478" 
d="M437 238c3 -184 -87 -265 -257 -247c-69 7 -129 68 -151 135c-4 10 -7 21 -9 30v45c0 16 13 28 29 28h36c15 0 28 -13 28 -29v-26c-5 -45 60 -103 107 -104c59 -1 80 21 98 69s11 83 9 122c-1 26 -4 45 -17 69c-11 19 -48 21 -65 24c-4 1 -15 1 -26 0
c-15 0 -27 11 -29 26c-1 9 -1 16 -1 23c-1 15 11 28 26 29c27 2 60 11 78 38c8 14 14 41 14 60c-1 31 -13 77 -74 88c-51 10 -80 -18 -102 -48c-2 -2 -3 -6 -3 -9l-2 -28c0 -13 -11 -24 -24 -24h-32c-15 0 -27 12 -28 27c-1 17 -1 36 -1 49c0 4 0 7 2 11
c38 110 152 127 260 103c96 -23 129 -115 113 -212c-5 -25 -14 -66 -37 -83c-5 -4 -5 -10 -1 -14c49 -40 53 -92 59 -152z" />
    <glyph glyph-name="afii10026" unicode="&#x418;" horiz-adv-x="618" 
d="M209 310c49 47 162 160 205 213c6 8 12 17 12 27c1 14 1 41 1 54c0 10 -7 18 -17 19l-8 1c-9 1 -17 9 -17 18v35c-1 11 8 20 19 20l146 2c10 0 19 -8 19 -18l1 -36c1 -10 -7 -19 -18 -20l-7 -1c-10 0 -17 -9 -17 -19v-342c0 -41 3 -129 4 -168c1 -10 9 -19 19 -20h7
c11 -1 19 -10 19 -21l1 -33c0 -12 -9 -22 -21 -22h-148c-12 1 -21 10 -21 21v33c0 10 8 19 18 21c11 1 18 10 18 20c0 52 -1 200 -4 285c0 7 -9 10 -14 6c-17 -17 -176 -177 -210 -221c-6 -7 -10 -16 -10 -25v-49c-1 -9 7 -17 16 -17h23c9 0 16 -7 16 -16v-41
c0 -9 -8 -16 -17 -17h-152c-9 0 -17 8 -17 17l1 41c0 9 7 16 16 16h3c9 0 16 7 16 16c0 68 0 433 -1 518c0 10 -8 19 -18 19l-11 1c-10 0 -18 8 -19 18l-2 34c0 11 8 20 19 21c38 1 123 0 172 0c10 0 19 -8 19 -19c0 -12 -1 -28 -1 -40c-1 -9 -9 -17 -18 -18l-16 -1
c-10 -1 -18 -9 -18 -19v-288c0 -6 7 -9 12 -5z" />
    <glyph glyph-name="afii10027" unicode="&#x419;" horiz-adv-x="618" 
d="M196 872h21c7 0 13 -4 15 -9l7 -14c0 -2 19 -29 62 -28c27 0 44 -2 56 10c11 10 19 22 22 32c1 7 8 11 15 12h17c10 0 18 -9 16 -19c-2 -15 -8 -38 -23 -53c-31 -33 -47 -37 -97 -37c-43 0 -66 8 -89 23c-27 18 -34 43 -37 64c-2 10 6 19 15 19zM209 310
c49 47 162 160 205 213c6 8 12 17 12 27c1 14 1 41 1 54c0 10 -7 18 -17 19l-8 1c-9 1 -17 9 -17 18v35c-1 11 8 20 19 20l146 2c10 0 19 -8 19 -18l1 -36c1 -10 -7 -19 -18 -20l-7 -1c-10 0 -17 -9 -17 -19v-342c0 -41 3 -129 4 -168c1 -10 9 -19 19 -20h7
c11 -1 19 -10 19 -21l1 -33c0 -12 -9 -22 -21 -22h-148c-12 1 -21 10 -21 21v33c0 10 8 19 18 21c11 1 18 10 18 20c0 52 -1 200 -4 285c0 7 -9 10 -14 6c-17 -17 -176 -177 -210 -221c-6 -7 -10 -16 -10 -25v-49c-1 -9 7 -17 16 -17h23c9 0 16 -7 16 -16v-41
c0 -9 -8 -16 -17 -17h-152c-9 0 -17 8 -17 17l1 41c0 9 7 16 16 16h3c9 0 16 7 16 16c0 68 0 433 -1 518c0 10 -8 19 -18 19l-11 1c-10 0 -18 8 -19 18l-2 34c0 11 8 20 19 21c38 1 123 0 172 0c10 0 19 -8 19 -19c0 -12 -1 -28 -1 -40c-1 -9 -9 -17 -18 -18l-16 -1
c-10 -1 -18 -9 -18 -19v-288c0 -6 7 -9 12 -5z" />
    <glyph glyph-name="afii10028" unicode="&#x41a;" horiz-adv-x="563" 
d="M511 85c4 -7 12 -12 20 -12h11c11 0 20 -9 20 -20l1 -32c0 -12 -9 -22 -21 -22l-168 1c-12 0 -21 9 -21 21v31c0 12 9 21 21 21c5 0 11 1 17 1c4 0 7 5 5 10c-56 107 -141 249 -170 297c-6 10 -5 23 1 32c33 49 131 200 185 271c7 10 18 15 30 16h91c13 -1 22 -8 22 -21
v-35c0 -13 -9 -21 -22 -21h-48c-7 -1 -12 -4 -16 -9c-52 -76 -92 -138 -131 -203c-5 -8 -5 -17 -1 -25c68 -120 109 -186 174 -301zM59 74c7 0 14 0 21 1c8 2 14 9 14 18c0 161 -4 342 -4 509c0 23 -22 21 -23 21c-9 -1 -14 4 -14 13l-3 43c0 11 6 20 16 20
c45 0 104 -1 146 0c9 0 18 -2 19 -16c0 -18 -1 -31 -1 -49c0 -10 -11 -12 -19 -12h-6c-10 1 -17 -6 -17 -22c6 -162 6 -341 13 -509c1 -10 9 -18 19 -17h12c9 0 16 -6 18 -15c5 -36 3 -54 -14 -58c-18 -5 -132 -2 -177 -1c-8 0 -16 5 -17 13c-2 12 -3 26 1 46
c1 8 8 14 16 15z" />
    <glyph glyph-name="afii10029" unicode="&#x41b;" horiz-adv-x="578" 
d="M84 621h-1c-14 1 -24 12 -24 26l1 27c0 14 11 25 25 25l426 -2c15 0 26 -11 26 -25v-29c0 -14 -11 -26 -25 -27h-10c-11 -1 -20 -10 -20 -21c0 -68 7 -408 8 -497c1 -12 10 -22 22 -23h4c12 -1 22 -11 22 -24v-28c0 -13 -10 -23 -23 -23l-150 -1c-12 -1 -22 9 -23 21
l-2 29c-1 13 9 25 23 25h1c13 0 23 11 23 23c-1 80 -3 354 -3 497c0 14 -11 25 -25 25c-37 1 -84 0 -121 0c-14 0 -26 -11 -26 -25l-6 -281c-2 -108 -17 -152 -49 -230v-1c-33 -52 -59 -86 -102 -85c-22 -2 -29 -1 -47 5c-8 2 -8 30 -6 50c1 12 8 22 19 26
c47 18 77 98 83 189c9 119 3 224 4 328c0 13 -11 25 -24 26z" />
    <glyph glyph-name="afii10030" unicode="&#x41c;" horiz-adv-x="811" 
d="M368 16l-168 454c-1 4 -7 3 -7 -1c-3 -109 3 -262 1 -371c-1 -12 9 -22 21 -22c8 -1 15 -2 20 -5c9 -5 8 -26 7 -45c0 -14 -12 -26 -26 -26c-45 -2 -113 -1 -150 -2c-13 -1 -23 9 -24 21c-1 10 -2 20 -2 30c0 14 12 25 26 25c2 0 5 1 8 1c11 0 20 9 20 20
c3 143 0 420 2 508c0 11 -9 20 -20 20h-9c-14 1 -26 12 -26 26c-1 10 -1 21 -1 31c0 11 8 19 19 19c43 2 105 1 138 0c7 0 14 -5 17 -12c60 -146 123 -350 181 -493c1 -1 1 -2 1 -3c4 -7 15 -7 17 1c64 162 119 339 181 496c3 8 10 12 18 12h77c8 -1 39 0 58 0
c15 1 23 -4 23 -19c0 -9 1 -26 1 -35c0 -13 -9 -22 -22 -23c-7 -1 -14 -1 -20 -1c-11 1 -20 -8 -20 -20c1 -115 2 -233 2 -335c0 -42 -1 -80 1 -122v-48c1 -10 9 -19 20 -20c3 0 7 0 10 -1c11 0 20 -10 20 -21l-1 -26c0 -15 -12 -27 -27 -27l-143 -1c-13 0 -24 10 -25 24
c0 12 -1 26 -1 30c0 12 11 22 23 21h2c12 -1 22 8 22 21v370c0 6 -7 7 -9 1c-38 -107 -158 -448 -162 -457c-5 -9 -14 -14 -24 -15c-9 0 -18 0 -26 2c-10 2 -19 9 -23 18z" />
    <glyph glyph-name="afii10031" unicode="&#x41d;" horiz-adv-x="613" 
d="M573 58l-1 -41c-1 -9 -10 -17 -19 -17l-167 -2c-8 0 -15 5 -18 13l-4 40c0 10 8 19 18 20l22 3c11 1 18 10 18 20l-8 226c0 11 -9 19 -20 19h-195c-10 0 -19 -9 -19 -19l-2 -226c0 -10 8 -19 18 -20h7c10 -1 18 -10 18 -20v-33c0 -11 -9 -20 -19 -20l-48 -2h-93
c-10 0 -19 9 -19 19l-2 37c0 11 9 21 20 21l4 -1c11 0 20 9 20 20l-2 513c0 11 -9 20 -19 20c-12 0 -20 9 -20 20l1 33c0 11 9 19 20 19l134 -1c10 0 19 -8 19 -19l1 -34c0 -12 -9 -21 -20 -21h-2c-11 1 -20 -9 -20 -20l3 -169c0 -11 9 -19 20 -19l199 1c11 0 20 9 20 19
l-2 169c0 10 -8 19 -18 20h-7c-11 1 -19 10 -19 20l1 34c0 11 9 20 20 20l154 -1c11 0 20 -9 19 -20v-34c-1 -9 -8 -18 -18 -19l-16 -1c-10 -2 -18 -10 -18 -20l6 -511c0 -11 9 -20 20 -19h13c10 0 19 -7 20 -17z" />
    <glyph glyph-name="afii10032" unicode="&#x41e;" horiz-adv-x="561" 
d="M281 -9c-184 0 -241 185 -241 371c0 160 59 332 234 345c195 0 247 -182 247 -341c0 -210 -74 -375 -240 -375zM274 629c-94 0 -135 -118 -135 -262c0 -173 49 -294 144 -294c104 0 138 112 138 292c0 158 -30 264 -147 264z" />
    <glyph glyph-name="afii10033" unicode="&#x41f;" horiz-adv-x="623" 
d="M383 73l23 1c9 1 16 11 16 20l3 511c0 11 -8 19 -19 19l-194 -2c-11 -1 -19 -9 -19 -19l3 -510c0 -10 8 -19 19 -19c10 0 18 -9 18 -19l-1 -38c0 -10 -8 -18 -18 -18l-152 -2c-11 0 -19 9 -19 20v39c0 9 7 17 17 18h16c9 1 16 9 16 19l-1 289l3 221c1 10 -7 18 -17 19
l-16 1c-10 1 -17 8 -18 18l-2 38c-1 10 8 20 19 20h39l339 1l126 -1c11 0 19 -8 19 -19l-1 -36c0 -10 -7 -18 -17 -18l-17 -1c-9 -1 -17 -9 -17 -19l-3 -515c0 -11 8 -19 19 -19h4c10 0 18 -8 18 -18l1 -35c0 -10 -8 -19 -19 -19h-164c-10 0 -19 8 -19 18v36
c0 10 6 18 15 19z" />
    <glyph glyph-name="afii10034" unicode="&#x420;" horiz-adv-x="513" 
d="M63 77l21 1c12 1 21 11 21 23l4 499c0 13 -10 23 -23 24h-7c-13 0 -23 10 -23 22l-2 32c0 13 10 24 23 24l46 2s132 4 187 -4c60 -10 156 -51 172 -173c5 -154 -49 -219 -161 -255c-28 -9 -66 -10 -96 -12c-9 -1 -16 -8 -16 -17c0 -40 -1 -107 -1 -142
c0 -13 10 -23 23 -24l24 -1c13 0 23 -11 22 -23v-30c0 -13 -11 -23 -24 -23h-189c-13 0 -24 11 -23 24l1 30c0 12 9 22 21 23zM209 604c0 -78 1 -164 1 -244c0 -10 9 -19 20 -18c57 3 140 43 142 112c17 88 -31 192 -143 173c-11 -2 -20 -12 -20 -23z" />
    <glyph glyph-name="afii10035" unicode="&#x421;" horiz-adv-x="498" 
d="M445 218c17 0 31 -14 31 -31c0 -22 3 -38 -1 -61c-18 -91 -105 -147 -200 -135c-215 -9 -234 229 -234 382c-2 134 36 304 193 335c91 17 167 -8 228 -78c8 -8 12 -20 12 -31c1 -21 1 -29 1 -37c1 -20 -15 -37 -35 -37c-6 0 -13 -1 -19 -1c-19 0 -35 14 -37 32
c-1 5 -1 9 -1 14c-1 13 -5 26 -14 36c-17 18 -45 33 -89 32c-123 1 -121 -172 -121 -273c1 -139 -2 -298 138 -298c57 0 79 47 91 82c0 21 -1 28 -1 38c0 18 15 33 33 32c8 0 16 -1 25 -1z" />
    <glyph glyph-name="afii10036" unicode="&#x422;" horiz-adv-x="480" 
d="M288 602l5 -506c0 -11 9 -20 20 -21l13 -1c10 -1 19 -10 19 -21l1 -33c0 -12 -9 -21 -21 -21l-165 -1c-11 0 -21 9 -21 21l-1 31c0 12 8 23 19 23l12 1c11 1 20 10 20 21l-1 507c0 10 -9 18 -19 18h-59c-9 0 -18 -7 -18 -17l-1 -5c-1 -10 -10 -17 -19 -17l-43 1
c-10 0 -19 9 -19 19v81c0 11 8 19 18 19h415c15 0 27 -13 27 -28l-3 -77c0 -15 -13 -27 -28 -26l-27 -1c-14 0 -25 10 -26 23l-2 13c-1 9 -9 15 -18 15h-60c-10 0 -18 -8 -18 -18z" />
    <glyph glyph-name="afii10037" unicode="&#x423;" horiz-adv-x="530" 
d="M71 2c-12 6 -23 13 -15 45c4 17 13 36 30 29c48 -7 88 -3 110 45c10 22 12 34 27 78c2 4 2 9 -1 14c-34 70 -149 348 -170 399c-3 5 -7 9 -13 10l-5 1c-14 2 -24 14 -24 28l1 23c0 14 11 25 25 25h109c14 0 25 -11 25 -25v-20c1 -13 -8 -24 -20 -27c-1 -1 -2 -1 -3 -1
c-2 0 -4 -2 -3 -5c0 -1 1 -2 2 -3c14 -37 89 -230 116 -290c2 -3 7 -3 8 0c19 47 102 294 102 294l-18 2c-14 1 -25 12 -26 26l-1 23c0 15 11 27 25 27h142c15 0 27 -13 25 -28l-3 -24c-1 -13 -13 -24 -26 -24h-9c-7 -1 -13 -5 -15 -12c-11 -36 -47 -156 -68 -209
c-43 -103 -71 -194 -112 -298c-51 -137 -173 -115 -215 -103z" />
    <glyph glyph-name="afii10038" unicode="&#x424;" horiz-adv-x="620" 
d="M354 76v-19c1 -12 11 -22 24 -23h6c13 0 23 -11 24 -23v-27c0 -14 -11 -25 -24 -24h-136c-13 0 -24 10 -24 23l-1 26c0 13 9 24 22 24c14 1 24 13 23 26l-2 16c0 7 -5 12 -12 13c-101 8 -141 44 -189 110c-29 47 -38 147 -33 239c20 97 94 167 218 179c6 0 12 6 12 13v14
c0 10 -7 18 -16 19l-10 1c-9 1 -16 9 -16 18l-1 37c-1 10 8 18 18 18h132c10 0 18 -8 18 -19l-2 -39c0 -9 -8 -17 -18 -17s-19 -9 -17 -20v-8c1 -7 5 -12 11 -13c3 0 6 -1 8 -1c14 -2 27 -5 41 -9c104 -31 136 -67 165 -148c3 -18 45 -150 -29 -271
c-25 -38 -59 -66 -117 -85c-19 -9 -43 -14 -63 -17c-7 0 -12 -6 -12 -13zM262 173c-5 92 -1 277 -2 365c0 7 -6 12 -12 12c-86 -2 -125 -54 -126 -159c-4 -106 47 -220 126 -231c8 -1 15 5 14 13zM355 541c2 -93 1 -276 1 -366c0 -8 7 -14 15 -12c67 14 117 137 107 242
c0 107 -55 142 -109 149c-8 0 -14 -6 -14 -13z" />
    <glyph glyph-name="afii10039" unicode="&#x425;" horiz-adv-x="539" 
d="M173 73c14 -1 25 -12 25 -26l-1 -21c0 -15 -13 -27 -28 -27h-132c-15 0 -27 13 -27 28v23c0 13 9 24 22 25l17 1c3 1 6 2 7 5l112 198l33 52c8 14 9 31 1 45l-35 64l-94 167c-5 8 -14 14 -24 14l-15 1c-14 1 -24 12 -24 26l1 24c0 15 13 27 28 27h143c16 0 28 -13 27 -29
l-1 -23c0 -12 -10 -22 -23 -23c-5 -1 -9 -7 -6 -12l83 -160c4 -8 15 -8 19 -1l94 156c4 6 0 15 -8 15c-13 1 -23 11 -24 24l-1 21c-1 16 12 29 28 29h9l120 1c15 0 28 -12 28 -27l1 -22c1 -14 -10 -26 -24 -26h-10c-11 0 -22 -6 -28 -16l-30 -51l-101 -183
c-8 -14 -8 -31 0 -45l22 -46l114 -201c2 -3 5 -5 8 -5h18c15 0 27 -12 27 -27l-1 -19c0 -15 -12 -27 -28 -27l-144 1c-15 0 -28 12 -28 28v17c0 13 11 24 25 25h7c7 0 11 8 8 14l-86 161c-4 8 -15 8 -19 0l-93 -161c-3 -7 1 -14 8 -14z" />
    <glyph glyph-name="afii10040" unicode="&#x426;" horiz-adv-x="625" 
d="M425 97l-6 509c0 9 -7 17 -17 19h-2c-9 1 -17 9 -16 19v37c0 11 9 19 19 19h141c11 0 20 -9 19 -20l-1 -37c-1 -10 -9 -18 -19 -18c-10 -1 -18 -10 -18 -20l5 -508c0 -11 9 -19 19 -20h37c11 0 19 -9 19 -19v-127c0 -11 -8 -20 -19 -20l-55 1c-10 0 -19 8 -19 19l-1 50
c0 11 -8 19 -19 19l-431 1c-11 0 -19 8 -19 19l-2 37c0 11 9 20 19 20h14c11 1 19 9 19 20l-4 504c0 11 -9 19 -19 19h-6c-10 0 -19 7 -19 18l-1 40c-1 11 8 20 19 20l149 1c11 0 20 -9 20 -20v-37c0 -10 -8 -19 -18 -19h-6c-10 -1 -18 -10 -18 -20l3 -506
c0 -11 9 -19 19 -19h195c11 0 19 8 19 19z" />
    <glyph glyph-name="afii10041" unicode="&#x427;" horiz-adv-x="577" 
d="M389 97l-2 159c0 10 -8 18 -18 17c-31 -2 -103 -11 -134 -8c-50 6 -112 34 -141 89c-3 4 -4 9 -5 13c-15 51 -22 69 -24 125v1c-1 8 -2 86 -2 115c0 7 -6 13 -13 13h-5c-7 0 -12 6 -12 12l-3 53c0 7 6 14 13 14h133c7 0 13 -6 13 -14v-51c0 -7 -5 -12 -12 -13h-3
c-7 -1 -12 -6 -12 -13c1 -37 4 -162 23 -202c0 0 10 -15 11 -16c39 -45 132 -33 171 -26c10 2 17 11 17 21v222c0 7 -5 12 -12 13l-16 1c-7 0 -12 6 -12 13l-1 51c0 8 6 14 13 13l143 -1c7 0 13 -6 13 -13l1 -50c0 -8 -6 -14 -13 -14h-4c-7 0 -13 -6 -13 -13l5 -509
c0 -11 9 -20 20 -20l9 -1c10 -1 19 -9 19 -20v-37c1 -12 -9 -21 -20 -21l-150 1c-12 0 -21 9 -21 20l-1 34c0 12 9 22 21 22h3c12 0 21 9 21 20z" />
    <glyph glyph-name="afii10042" unicode="&#x428;" horiz-adv-x="807" 
d="M356 91l-2 518c0 8 -6 14 -13 14h-4c-8 0 -13 6 -13 14l-1 48c0 8 6 14 14 14h124c7 0 13 -6 13 -14v-48c0 -7 -5 -13 -12 -13c-8 -1 -13 -7 -13 -14l5 -519c0 -7 6 -13 14 -13l134 -1c7 0 13 6 13 14l1 519c0 7 -6 14 -14 14h-5c-7 0 -13 6 -13 13l-1 49c0 7 6 14 14 14
l137 -2c7 0 13 -6 13 -14l1 -46c0 -8 -6 -14 -13 -15h-7c-7 0 -13 -6 -13 -14v-519c0 -7 6 -13 13 -14h25c8 0 14 -6 14 -14v-48c0 -8 -6 -14 -14 -14h-683c-7 0 -14 6 -14 14l-1 51c0 7 6 13 13 14h10c7 0 13 6 13 14l-3 516c0 8 -6 14 -14 14h-18c-8 0 -14 6 -14 13l-2 49
c0 7 6 14 14 14l150 -1c8 0 14 -6 14 -14v-46c0 -8 -7 -14 -14 -14h-6c-8 0 -14 -6 -14 -14l5 -519c0 -7 6 -13 13 -13l140 -1c7 0 14 6 14 14z" />
    <glyph glyph-name="afii10043" unicode="&#x429;" horiz-adv-x="824" 
d="M733 626c-8 -1 -14 -8 -14 -16l6 -517c0 -8 7 -15 14 -15l31 -2c8 -1 14 -8 14 -16l-3 -132c0 -8 -7 -15 -16 -15l-55 1c-8 0 -15 7 -15 15l-1 56c0 9 -7 15 -15 15h-616c-8 0 -15 7 -15 16l-2 44c-1 9 6 15 14 16h10c8 0 15 7 14 16l-2 518c0 8 -6 14 -14 15l-13 1
c-8 1 -13 7 -14 15l-1 44c0 8 7 15 15 15l147 2c8 0 15 -7 15 -16v-44c0 -8 -7 -15 -15 -15h-6c-8 0 -14 -7 -15 -15v-50l4 -470c0 -8 7 -15 15 -15h140c9 0 16 7 16 16l-5 519c-1 8 -7 13 -15 13l-3 1c-7 0 -14 6 -14 14l-1 43c0 9 6 17 15 17l135 2c8 0 15 -7 15 -15
l1 -45c0 -8 -6 -15 -14 -16h-5c-8 -1 -14 -8 -14 -16l1 -518c0 -8 7 -15 16 -15l136 1c8 0 15 7 15 15l2 516c0 8 -5 14 -13 15l-11 2c-7 1 -13 7 -13 14l-1 43c0 9 7 16 15 16l132 2c8 0 15 -6 15 -14l3 -45c0 -9 -6 -16 -15 -16z" />
    <glyph glyph-name="afii10044" unicode="&#x42a;" horiz-adv-x="569" 
d="M20 700c68 -3 159 1 231 1c9 0 17 -8 17 -18c1 -61 -4 -137 0 -194c1 -9 7 -15 16 -16c121 -5 209 -27 251 -166c36 -114 0 -226 -106 -281c-81 -40 -197 -26 -284 -26c-10 0 -19 9 -19 19v40c0 11 9 20 19 19c5 0 10 0 18 1c-3 166 3 354 -1 524c0 10 -8 18 -18 18
c-14 0 -31 1 -43 1c-10 0 -18 -7 -19 -17c-1 -14 -2 -25 -2 -37c0 -10 -9 -18 -19 -18l-39 2c-10 0 -18 8 -18 18c-1 38 -4 72 -3 112c0 11 9 19 19 18zM269 373c2 -94 -2 -184 0 -277c0 -11 10 -20 21 -20c58 0 123 34 141 89c38 116 -21 218 -145 225c-9 0 -17 -7 -17 -17
z" />
    <glyph glyph-name="afii10045" unicode="&#x42b;" horiz-adv-x="713" 
d="M59 699c52 0 95 0 158 1c9 0 16 -8 17 -17c0 -10 0 -24 1 -37c0 -12 -9 -23 -22 -24h-10c-10 0 -18 -7 -19 -17c0 -27 0 -87 1 -115c1 -9 8 -17 17 -17c204 0 315 -147 244 -353c-50 -149 -268 -118 -388 -118c-9 0 -16 7 -17 15c-1 16 -1 31 -1 46c0 10 9 17 19 16h2
c11 -2 20 6 20 17c-3 161 2 344 -2 509c0 9 -7 17 -17 17c-1 0 -1 0 -2 1c-10 0 -17 8 -17 17c0 15 0 25 -1 39c-1 11 7 19 17 20zM489 14c1 16 -2 35 1 52c1 6 8 9 15 9h6c7 1 12 6 12 13c-2 179 4 341 1 522c0 7 -6 13 -14 13h-16c-7 0 -13 6 -13 13c0 14 -1 35 -1 49
c0 7 6 14 13 14h14c46 0 74 -1 116 0c12 1 19 0 23 0c7 0 13 -5 13 -12c2 -19 1 -36 0 -51c0 -7 -6 -13 -14 -13h-3c-8 0 -14 -6 -14 -14c5 -173 -2 -351 3 -520c1 -7 6 -12 13 -12c6 0 14 -1 20 -1c4 0 8 -4 8 -8c0 -13 1 -39 1 -55c0 -7 -5 -13 -12 -13
c-42 0 -114 0 -159 1c-7 0 -13 6 -13 13zM186 371c2 -94 -2 -182 0 -276c0 -10 8 -17 18 -17c52 0 124 25 144 87c38 115 -20 216 -143 224c-11 1 -19 -8 -19 -18z" />
    <glyph glyph-name="afii10046" unicode="&#x42c;" horiz-adv-x="490" 
d="M59 699c53 0 95 0 158 1c9 0 17 -8 17 -17c0 -11 1 -28 1 -41c0 -9 -7 -17 -16 -17l-18 -1c-9 -1 -16 -8 -16 -17c-1 -26 -1 -88 0 -117c1 -9 8 -16 17 -17c23 -1 44 -1 66 -4c207 -26 287 -344 81 -441c-81 -37 -202 -27 -290 -27c-9 0 -17 7 -18 16c-1 15 -1 30 -1 44
c1 10 10 18 20 17h1c10 -2 20 7 20 17c-3 162 3 345 -2 510c0 9 -7 17 -17 17c0 0 -1 0 -2 1c-9 0 -17 8 -17 17c0 15 0 25 -1 39c-1 11 7 19 17 20zM186 371c3 -94 -2 -187 0 -281c0 -10 8 -17 18 -17c60 0 126 36 145 92c37 115 -21 216 -144 224c-10 1 -19 -8 -19 -18z
" />
    <glyph glyph-name="afii10047" unicode="&#x42d;" horiz-adv-x="489" 
d="M305 691c75 -30 140 -84 143 -326c6 -146 -21 -374 -229 -372c-92 1 -197 47 -197 135c0 24 -1 28 -1 56c0 10 7 18 17 18c15 0 34 0 48 1c12 0 21 -9 21 -20c0 -15 -1 -14 -1 -37c0 -40 40 -76 96 -76c146 0 130 109 133 222c0 7 -5 13 -13 14l-164 2
c-15 0 -27 13 -27 28l-1 31c0 16 13 28 28 29l166 1c8 0 14 6 15 14c0 16 1 39 1 47c1 72 -34 170 -127 167c-66 -2 -69 -20 -92 -42c-6 -5 -8 -21 -9 -30c0 -9 0 -16 -1 -24c0 -14 -12 -25 -26 -26h-38c-14 0 -26 12 -26 26c-1 19 -1 30 -1 60c39 95 179 146 285 102z" />
    <glyph glyph-name="afii10048" unicode="&#x42e;" horiz-adv-x="764" 
d="M723 342c2 -176 -6 -348 -211 -348c-113 0 -177 64 -205 167c-8 51 -13 92 -16 134c-1 13 -12 26 -25 26l-61 -1c-9 1 -16 -6 -16 -15c1 -73 -2 -143 0 -215c0 -8 7 -14 15 -14c32 0 27 -2 27 -62c0 -8 -7 -15 -15 -15c-41 0 -105 0 -149 1c-8 0 -15 7 -15 15
c0 15 -2 31 0 46c1 8 8 13 16 13h1c8 0 17 7 17 16c-2 177 1 341 -1 519c0 9 -7 15 -15 15h-13c-8 0 -15 6 -15 15c-1 13 -1 32 -1 45c-1 9 6 16 14 16h12c46 0 74 -1 117 0h21c8 0 15 -6 15 -14c1 -17 1 -34 0 -48c-1 -8 -7 -14 -16 -14s-16 -7 -16 -15
c-1 -64 -2 -128 -1 -186c1 -9 7 -15 15 -15l67 -1c9 0 17 7 17 16c5 103 48 253 162 280c235 55 273 -162 275 -361zM526 70c97 0 86 153 86 393c0 93 -25 177 -109 171c-109 -8 -107 -174 -107 -258c0 -139 -11 -306 130 -306z" />
    <glyph glyph-name="afii10049" unicode="&#x42f;" horiz-adv-x="571" 
d="M518 17c0 -10 -7 -17 -16 -17c-12 -1 -132 0 -138 0c-9 -1 -17 7 -17 17c0 12 -2 29 -1 41c0 11 9 19 19 19c9 0 17 7 17 16c1 62 -1 103 -5 171c-1 11 -10 20 -22 20c-19 1 -36 0 -55 3c-8 0 -15 -4 -18 -12c-38 -116 -67 -284 -235 -288c-16 0 -30 10 -35 25
c-4 11 -8 25 -11 38c-2 10 5 20 15 23c96 28 160 80 177 216c1 9 -3 18 -11 22c-83 47 -140 93 -136 199c2 108 93 183 161 187c67 5 174 1 241 2c13 1 40 1 60 0c13 0 23 -10 23 -23v-33c0 -13 -11 -23 -24 -23h-9c-13 0 -23 -11 -23 -24c0 -74 1 -314 1 -436
c0 -15 0 -43 -1 -66c0 -9 7 -17 16 -17h10c9 0 16 -7 17 -16c1 -18 0 -32 0 -44zM379 386l-1 209c0 10 -8 18 -18 18c-99 3 -216 12 -207 -113c3 -143 123 -129 211 -129c8 1 15 7 15 15z" />
    <glyph glyph-name="afii10066" unicode="&#x431;" horiz-adv-x="438" 
d="M387 391c11 -36 10 -179 10 -190c0 -123 -42 -204 -193 -204c-173 0 -164 206 -163 347c1 124 -13 253 98 310c72 38 128 6 148 50c2 6 3 12 4 18c1 8 8 14 16 14h55c10 0 17 -8 17 -18c0 -13 -2 -31 -6 -46c-12 -41 -47 -65 -109 -70c-65 -4 -119 -26 -132 -97
c-1 -5 6 -9 11 -6c37 25 146 25 178 -2c17 -15 43 -33 66 -106zM292 153c1 20 25 215 -23 278c-21 29 -83 20 -101 -3s-27 -51 -30 -69c-13 -77 0 -189 6 -214c8 -32 22 -71 75 -71c47 0 71 46 73 79z" />
    <glyph glyph-name="afii10067" unicode="&#x432;" horiz-adv-x="458" 
d="M45 78h19c8 0 15 7 15 14c8 98 7 273 3 358c0 9 -7 16 -15 16h-18c-8 0 -15 7 -15 16l-2 48c0 9 6 16 15 16c50 2 198 10 271 -15c83 -34 105 -136 63 -192c-13 -18 -25 -28 -36 -34c-4 -3 -3 -8 1 -9c50 -23 73 -61 71 -141c-2 -122 -107 -155 -159 -155
c-27 0 -163 -1 -211 -1c-9 0 -16 7 -16 16l-1 47c0 8 6 15 15 16zM184 236v-142c0 -8 6 -15 14 -16c29 -2 77 -4 96 28c19 33 23 86 -6 121c-22 27 -62 25 -88 25c-9 0 -16 -7 -16 -16zM188 450v-96c1 -8 8 -15 17 -15c25 1 75 2 86 30c13 33 8 68 -25 88
c-17 10 -45 11 -63 10c-9 0 -16 -8 -15 -17z" />
    <glyph glyph-name="afii10068" unicode="&#x433;" horiz-adv-x="378" 
d="M91 446c0 9 -8 17 -18 17c-5 0 -11 1 -16 1c-14 2 -25 14 -26 28c-1 15 -1 24 -1 38c1 9 8 16 17 17c104 2 213 0 304 -2c9 0 17 -8 17 -17v-92c0 -1 0 -3 -1 -4c0 -16 -13 -28 -29 -28h-24c-16 0 -29 12 -30 27c0 6 0 11 -1 16c0 10 -8 17 -17 17c-26 1 -35 2 -64 2
c-9 0 -17 -8 -17 -17c-5 -165 3 -192 -1 -353c0 -10 7 -18 17 -18c8 -1 17 -1 25 -1c9 0 16 -7 17 -16c1 -15 -1 -29 -1 -43c-1 -9 -8 -17 -17 -17c-11 -1 -131 0 -163 0c-14 1 -23 7 -23 21c0 12 -1 27 0 39c1 8 7 15 16 16c6 1 13 1 21 1c9 1 17 8 17 18
c0 156 -2 189 -2 350z" />
    <glyph glyph-name="afii10069" unicode="&#x434;" horiz-adv-x="516" 
d="M474 470c-1 -6 -11 -7 -23 -7c-16 0 -29 -13 -29 -29c1 -141 4 -190 4 -329c0 -17 14 -30 30 -30h9c16 0 29 -12 30 -28c2 -36 0 -66 -2 -100c0 -16 -14 -28 -30 -28c-8 0 -17 1 -24 2c-14 2 -25 13 -26 27l-2 25c-2 15 -14 26 -30 26c-94 1 -159 2 -255 2
c-17 0 -31 -14 -32 -31v-13c-1 -16 -14 -29 -30 -30h-31c-23 1 -27 9 -30 31c-4 27 -3 61 -2 85c1 17 14 31 30 33h2c42 -1 55 15 79 76c36 94 32 200 36 293c1 12 -9 22 -21 21h-5c-10 0 -19 8 -20 18c-1 11 -1 31 -1 44c0 10 8 20 17 20h333c29 0 26 -32 23 -78zM262 466
c-14 -1 -26 -12 -26 -26c-6 -79 -5 -187 -10 -220c-7 -63 -18 -85 -38 -118c-8 -13 -14 -25 18 -25c45 0 58 -1 94 0c15 0 28 18 28 33c1 101 1 233 -1 329c0 15 -12 27 -28 27c-13 0 -24 1 -37 0z" />
    <glyph glyph-name="afii10070" unicode="&#x435;" horiz-adv-x="446" 
d="M338 177c12 0 28 1 41 1s22 -11 22 -23c0 -14 1 -25 0 -39c0 -27 -33 -69 -50 -83c-62 -52 -145 -44 -181 -36c-159 36 -140 324 -107 431c27 90 87 124 164 126c129 0 179 -118 179 -275c0 -19 -17 -35 -36 -35c-64 -2 -200 -5 -200 -5c-12 -1 -22 -11 -21 -23
c5 -53 4 -122 71 -129c59 -6 86 13 90 63c1 14 13 26 28 27zM263 463c-68 42 -119 -43 -114 -110c-2 -13 9 -25 22 -25l104 1c17 0 30 14 29 31c-1 4 -1 8 -2 10c-6 38 -20 82 -39 93z" />
    <glyph glyph-name="afii10072" unicode="&#x436;" horiz-adv-x="729" 
d="M442 74c7 -1 13 -7 13 -14l1 -45c0 -8 -6 -14 -13 -14h-173c-7 0 -13 5 -14 13l-1 46c0 8 6 14 13 14s17 1 27 2c6 0 12 6 12 13v363c0 7 -5 12 -11 12l-18 1c-6 0 -11 4 -12 10l-1 59c-1 7 4 13 12 13h150c6 0 12 -6 12 -12l3 -57c-1 -6 -6 -11 -12 -11l-18 -1
c-7 -1 -12 -6 -12 -13c0 -120 5 -266 5 -365c0 -7 6 -13 13 -13zM669 82c3 -3 7 -6 11 -6h25c7 0 13 -5 13 -13v-48c1 -8 -5 -14 -13 -14l-172 -1c-7 0 -13 6 -13 13l-1 49c-1 7 5 14 13 14h7c10 0 17 11 11 20l-126 205c-6 9 -6 21 1 31c33 45 131 184 151 211
c3 3 6 5 10 5l90 -2c14 0 24 -11 24 -24l1 -30c0 -13 -11 -24 -24 -25l-48 -2c-7 -1 -14 -4 -19 -10l-85 -116c-7 -9 -7 -22 -1 -31zM199 328c-32 43 -88 115 -103 134c-2 2 -5 4 -9 4l-41 1c-6 1 -11 5 -12 11l-2 57c-1 7 5 13 12 13l95 -1c4 0 8 -2 10 -5l136 -210
c3 -5 4 -12 1 -18l-113 -220c-5 -8 1 -19 11 -19l15 -1c7 0 13 -6 13 -14l-2 -46c-1 -7 -7 -13 -14 -13l-172 -1c-7 -1 -13 5 -13 13l-1 49c0 7 6 13 13 14l33 1c5 0 9 3 11 7c14 24 66 120 133 224c4 6 4 15 -1 20z" />
    <glyph glyph-name="afii10073" unicode="&#x437;" horiz-adv-x="410" 
d="M177 243c-16 2 -21 9 -21 25v23c0 10 8 20 18 20c41 0 73 14 77 53c-1 25 14 101 -54 107c-43 4 -88 -29 -88 -97c-1 -13 -12 -24 -26 -24h-29c-20 1 -28 17 -29 37c0 55 23 126 82 150c117 46 249 3 249 -144c0 -27 -4 -69 -35 -100c-5 -6 -4 -15 3 -19
c34 -20 46 -61 46 -100c0 -152 -116 -188 -197 -184c-99 5 -153 55 -153 137c0 11 2 30 20 30h38c21 0 25 -17 25 -27c0 -40 39 -64 78 -65c84 -5 93 84 77 137c-6 20 -49 40 -81 41z" />
    <glyph glyph-name="afii10074" unicode="&#x438;" horiz-adv-x="539" 
d="M187 223c46 66 154 279 183 317c3 4 7 6 12 6h96c9 0 16 -7 16 -15c0 -18 -2 -39 -2 -54c-1 -9 -9 -16 -18 -15h-1c-10 1 -18 -6 -18 -16c0 -113 -1 -246 4 -357c1 -8 7 -14 15 -15h18c8 -1 15 -7 15 -15c1 -13 2 -32 0 -45c0 -7 -6 -13 -14 -14c-29 -2 -120 -1 -157 0
c-8 0 -15 6 -15 14c0 43 -13 62 25 62c8 0 15 5 15 13c-4 89 1 148 -2 242c0 6 -7 8 -10 3c-38 -63 -152 -272 -192 -328c-3 -4 -8 -6 -13 -6c-35 0 -55 -1 -91 -1c-6 0 -12 6 -12 13c-1 13 -1 33 0 50c0 8 7 14 15 13h6c10 -1 18 6 18 16c0 132 -1 231 -1 359
c0 9 -7 16 -16 16c-5 -1 -10 -1 -15 -1c-9 -1 -16 6 -16 14c-1 14 0 37 -1 51c-1 9 7 17 17 16h7c41 0 107 1 162 1c8 0 15 -6 15 -14c1 -15 0 -40 -1 -54c-1 -7 -7 -13 -14 -14l-23 -3c-9 0 -15 -7 -15 -16c0 -61 -5 -138 -2 -220c0 -6 7 -8 10 -3z" />
    <glyph glyph-name="afii10075" unicode="&#x439;" horiz-adv-x="539" 
d="M181 725h5c9 1 19 -5 23 -14l3 -8c1 -2 20 -30 63 -29c27 1 44 -1 56 10c9 9 17 19 20 28c4 10 13 16 23 16c16 1 29 -14 25 -30c-3 -14 -9 -30 -21 -42c-31 -32 -47 -36 -97 -37c-43 0 -66 8 -89 23c-22 15 -31 35 -35 53c-4 15 8 30 24 30zM187 223
c46 66 154 279 183 317c3 4 7 6 12 6h96c9 0 16 -7 16 -15c0 -18 -2 -39 -2 -54c-1 -9 -9 -16 -18 -15h-1c-10 1 -18 -6 -18 -16c0 -113 -1 -246 4 -357c1 -8 7 -14 15 -15h18c8 -1 15 -7 15 -15c1 -13 2 -32 0 -45c0 -7 -6 -13 -14 -14c-29 -2 -120 -1 -157 0
c-8 0 -15 6 -15 14c0 43 -13 62 25 62c8 0 15 5 15 13c-4 89 1 148 -2 242c0 6 -7 8 -10 3c-38 -63 -152 -272 -192 -328c-3 -4 -8 -6 -13 -6c-35 0 -55 -1 -91 -1c-6 0 -12 6 -12 13c-1 13 -1 33 0 50c0 8 7 14 15 13h6c10 -1 18 6 18 16c0 132 -1 231 -1 359
c0 9 -7 16 -16 16c-5 -1 -10 -1 -15 -1c-9 -1 -16 6 -16 14c-1 14 0 37 -1 51c-1 9 7 17 17 16h7c41 0 107 1 162 1c8 0 15 -6 15 -14c1 -15 0 -40 -1 -54c-1 -7 -7 -13 -14 -14l-23 -3c-9 0 -15 -7 -15 -16c0 -61 -5 -138 -2 -220c0 -6 7 -8 10 -3z" />
    <glyph glyph-name="afii10076" unicode="&#x43a;" horiz-adv-x="514" 
d="M449 92c6 -10 17 -15 28 -15c16 0 27 -7 27 -20l-1 -35c1 -13 -10 -21 -22 -21h-156c-12 0 -22 9 -22 21l-1 32c-1 12 9 22 21 23h12c5 1 8 7 5 12c-26 34 -104 143 -132 193c-10 18 -14 22 -1 41c46 69 93 140 144 210c7 10 19 16 32 15h73c15 0 26 -12 26 -27l-1 -32
c0 -14 -12 -25 -26 -25h-40c-8 0 -17 -4 -22 -11c-19 -27 -67 -101 -87 -130c-5 -8 -5 -18 0 -25c39 -58 116 -166 143 -206zM47 78l18 -1c7 0 13 5 13 12c-1 43 0 299 -1 360c0 8 -6 14 -14 15l-13 1c-8 1 -14 7 -14 14v54c0 8 6 15 14 15h145c9 0 15 -6 15 -15v-55
c-1 -8 -7 -15 -15 -14h-11c-8 0 -13 -5 -13 -13c0 -65 3 -321 4 -362c0 -7 6 -12 13 -12h24c10 -1 17 -8 17 -18v-41c0 -10 -7 -18 -17 -18l-165 -1c-10 0 -17 8 -17 18v44c0 10 8 17 17 17z" />
    <glyph glyph-name="afii10077" unicode="&#x43b;" horiz-adv-x="534" 
d="M95 463h-3c-11 0 -19 9 -19 20v44c0 11 9 20 20 20h389c12 0 21 -9 21 -21l-1 -43c0 -11 -8 -19 -18 -20h-18c-10 -1 -18 -10 -18 -21l4 -345c0 -12 9 -21 20 -21h11c12 -1 21 -10 21 -22l-1 -33c-1 -11 -10 -21 -22 -21h-155c-12 -1 -21 9 -21 21l1 34c0 11 10 21 22 21
h3c12 -1 22 9 22 21l-3 347c0 11 -9 20 -21 20h-87c-10 0 -19 -9 -19 -19c-17 -129 4 -284 -57 -383c-37 -64 -90 -78 -148 -59c-8 2 -8 33 -6 54c1 10 9 18 19 20c47 11 73 57 80 149c6 88 5 179 4 217c0 11 -9 19 -20 20z" />
    <glyph glyph-name="afii10078" unicode="&#x43c;" horiz-adv-x="701" 
d="M316 15l-126 310c-2 3 -7 2 -7 -2l-1 -233c0 -7 6 -13 13 -14l7 -1c13 -1 23 -12 23 -24l1 -24c0 -14 -11 -26 -25 -26l-145 -1c-14 0 -25 11 -25 25v25c0 14 12 26 25 26h10c8 0 15 6 15 14c0 60 0 295 2 361c0 7 -5 13 -12 13c-4 1 -10 1 -15 1c-14 0 -24 10 -25 24
l-1 31c0 14 11 27 26 27h113c10 0 19 -7 23 -16c8 -19 85 -225 148 -366c3 -7 12 -7 15 0c60 151 90 218 148 361c5 13 18 22 32 22c45 -2 59 -1 108 -1c13 0 25 -10 26 -24l1 -30c1 -14 -10 -27 -25 -28h-11c-14 -1 -25 -12 -25 -26c1 -93 5 -235 5 -349c0 -6 5 -11 11 -12
c5 0 10 -1 15 -1c12 0 22 -10 21 -22v-32c-1 -12 -10 -22 -23 -22h-151c-11 0 -20 9 -21 19c0 4 -1 30 -1 35c0 11 8 20 19 21h16c7 1 12 6 12 13c-1 30 0 126 -1 234c0 3 -7 6 -8 4c-26 -64 -98 -263 -124 -310c-4 -9 -9 -18 -19 -18h-23c-10 1 -18 7 -21 16z" />
    <glyph glyph-name="afii10079" unicode="&#x43d;" horiz-adv-x="494" 
d="M463 59l1 -41c-1 -10 -8 -17 -17 -17h-153c-8 0 -19 3 -19 17v36c0 10 1 19 11 20l20 1c10 1 18 10 17 20l-4 154c-1 11 -10 19 -21 19h-117c-11 0 -19 -9 -19 -19l-2 -154c0 -10 7 -19 17 -20h8c10 -1 18 -10 18 -20v-33c0 -11 -11 -21 -22 -21l-132 -1
c-10 0 -19 9 -19 19v39c0 11 9 21 20 21c15 -1 24 8 24 19l-1 346c0 11 -9 19 -19 19c-12 0 -20 10 -20 21l-2 45c0 11 9 20 20 19h127c11 0 20 -9 20 -20v-43c0 -11 -9 -20 -20 -20h-2c-11 0 -20 -9 -20 -20l3 -90c1 -11 10 -20 20 -19h120c11 0 20 10 20 21l-1 88
c0 11 -8 19 -18 20h-7c-10 1 -18 10 -18 20v44c0 10 9 19 19 19l146 -1c11 0 20 -9 19 -20v-42c-1 -10 -8 -18 -18 -19l-16 -2c-10 -1 -18 -10 -18 -20l2 -349c0 -11 9 -20 20 -19h13c10 0 19 -7 20 -17z" />
    <glyph glyph-name="afii10080" unicode="&#x43e;" horiz-adv-x="448" 
d="M404 190c-7 -62 -29 -110 -63 -148c-54 -60 -139 -56 -175 -48c-35 8 -77 51 -99 95c-34 67 -33 290 -10 346c37 87 89 115 166 118c47 1 122 -16 163 -126c27 -70 23 -187 18 -237zM216 72c51 -3 73 37 75 70c1 16 20 147 7 224c-6 38 -20 82 -39 94
c-29 18 -74 14 -95 -27c-35 -70 -21 -250 -12 -282c8 -32 24 -76 64 -79z" />
    <glyph glyph-name="afii10081" unicode="&#x43f;" horiz-adv-x="567" 
d="M332 73h19c9 1 15 12 15 21l1 359c1 10 -8 19 -19 19l-139 -1c-10 0 -18 -9 -18 -19l3 -358c0 -10 8 -19 18 -19s19 -9 18 -19l-1 -38c0 -10 -8 -18 -18 -18h-150c-11 0 -19 9 -19 19v37c0 10 7 17 17 19l15 1c10 1 17 9 17 19l1 357c0 10 -8 18 -18 19l-16 1
c-9 1 -17 9 -17 18l-1 38c0 11 8 20 19 20h449c10 0 19 -9 19 -19l-1 -39c0 -10 -8 -18 -17 -18l-17 -1c-10 -1 -17 -9 -18 -18l-5 -361c0 -11 9 -19 19 -19h4c10 0 18 -8 19 -18v-35c1 -10 -8 -19 -18 -19l-159 -1c-10 0 -17 8 -17 18v36c0 10 6 18 15 19z" />
    <glyph glyph-name="afii10082" unicode="&#x440;" horiz-adv-x="459" 
d="M425 370c2 -74 12 -183 -13 -252c-26 -75 -84 -117 -148 -125c-31 -3 -59 3 -83 29c-3 3 -9 1 -9 -4c0 -42 1 -128 1 -167c0 -13 10 -23 23 -23h15c13 -1 23 -11 23 -24l-1 -31c0 -13 -10 -23 -23 -23h-168c-12 0 -22 10 -21 22v35c0 12 10 21 21 22h17c12 0 23 10 23 23
l-1 598c0 8 -7 15 -15 15h-24c-8 1 -14 7 -14 15l-1 49c-1 10 7 18 17 18l113 1c9 0 17 -8 17 -18v-14c0 -2 2 -3 4 -1c18 28 48 46 103 41c60 -9 128 -63 144 -186zM302 111c25 38 18 154 18 185c0 70 -45 235 -143 146c-1 -3 -2 -6 -2 -9v-329c0 -8 4 -15 11 -19
c34 -21 84 -25 116 26z" />
    <glyph glyph-name="afii10083" unicode="&#x441;" horiz-adv-x="460" 
d="M366 150c14 0 28 0 42 -1c20 0 35 -18 31 -37c-23 -98 -97 -133 -198 -122c-140 15 -201 121 -201 285c0 120 45 253 165 277c81 17 221 -20 221 -117v-32c0 -21 -16 -37 -37 -37h-32c-19 1 -36 17 -36 37c0 50 -39 77 -86 69c-70 -6 -86 -97 -89 -163
c-9 -117 -5 -222 107 -236c40 -5 60 8 78 54c6 14 20 23 35 23z" />
    <glyph glyph-name="afii10084" unicode="&#x442;" horiz-adv-x="436" 
d="M262 441l4 -339c0 -14 11 -24 24 -25h11c13 -1 23 -11 24 -25v-28c0 -14 -11 -25 -25 -25h-157c-13 0 -24 10 -25 23v29c0 14 11 26 25 26h4c14 0 25 11 25 25l-2 340c0 12 -10 22 -22 22h-34c-12 0 -21 -9 -23 -20v-3c-1 -12 -11 -21 -24 -21l-34 2c-13 0 -22 10 -22 23
l-1 80c0 12 10 23 23 23h370c13 0 23 -10 23 -23l-3 -92c0 -13 -11 -22 -23 -22l-36 1c-11 0 -20 9 -22 20l-1 12c-1 11 -11 20 -23 20h-33c-13 0 -23 -11 -23 -23z" />
    <glyph glyph-name="afii10085" unicode="&#x443;" horiz-adv-x="474" 
d="M37 -257c-12 6 -27 7 -17 48c6 26 21 33 38 26c48 -6 87 -3 110 45c11 23 15 67 21 132c1 4 0 8 -1 11l-148 448c-2 6 -7 10 -14 10c-14 1 -26 14 -26 28l1 32c0 14 11 25 25 25l114 -1c14 0 26 -13 24 -27l-3 -44c0 -10 -15 -12 -23 -12c-3 0 -5 -3 -4 -6
c11 -41 74 -277 102 -347c1 -4 7 -3 8 1c15 56 71 304 79 336c1 7 -3 13 -10 15l-8 1c-13 2 -23 13 -23 27l-1 31c-1 14 11 26 25 26h142c15 0 27 -13 25 -28l-3 -33c-1 -14 -13 -24 -26 -25h-8c-7 0 -14 -6 -16 -13c-46 -183 -108 -423 -162 -603
c-51 -137 -179 -115 -221 -103z" />
    <glyph glyph-name="afii10086" unicode="&#x444;" horiz-adv-x="573" 
d="M421 526c41 -17 83 -48 98 -138c29 -174 29 -341 -164 -396c-13 -4 -22 -16 -22 -29c1 -32 1 -85 1 -114c1 -14 11 -24 24 -25h5c13 0 24 -11 24 -24v-26c0 -13 -11 -25 -25 -24h-134c-13 0 -24 11 -25 24l-1 24c0 13 10 25 23 25c14 1 24 12 24 25l-3 111
c0 15 -12 27 -26 29c-171 22 -189 204 -176 366c8 95 61 175 177 192c12 2 20 12 20 24v65c1 14 -10 25 -24 27c-14 1 -24 12 -24 26l-1 20c0 15 12 28 27 28h85c15 -1 27 -13 27 -28c0 -36 0 -106 -1 -139c0 -13 10 -23 24 -25s37 -5 67 -18zM242 78c-5 93 -2 294 -2 385
c0 6 -7 11 -13 9c-64 -21 -83 -70 -87 -166c-4 -107 13 -229 91 -238c6 -1 11 4 11 10zM334 462c2 -94 1 -291 1 -381c0 -7 6 -11 12 -10c65 12 85 153 75 260c-6 97 -28 132 -76 141c-6 1 -12 -4 -12 -10z" />
    <glyph glyph-name="afii10087" unicode="&#x445;" horiz-adv-x="492" 
d="M168 75c14 0 25 -11 25 -25v-23c0 -15 -13 -28 -28 -28l-127 1c-16 0 -28 14 -27 29v24c1 12 11 22 23 24h8c9 1 18 6 23 14l120 174c9 12 8 29 -1 41l-108 146c-5 7 -13 12 -22 12l-12 1c-13 0 -24 12 -24 25v31c1 15 13 27 28 27h132c16 0 29 -13 28 -29l-1 -29
c-1 -12 -11 -22 -23 -23c-5 -1 -8 -7 -5 -11l61 -84c4 -5 12 -6 17 -1l60 81c4 5 1 13 -6 14c-13 0 -23 10 -24 23l-1 31c-1 16 12 29 28 29h130c15 0 27 -12 27 -26l1 -32c1 -14 -10 -26 -24 -26l-7 -1c-10 0 -20 -5 -26 -12l-111 -152c-8 -10 -9 -24 -2 -35l119 -173
c6 -9 17 -15 29 -15h9c14 0 25 -11 24 -25v-25c0 -15 -12 -27 -28 -27h-142c-15 -1 -27 11 -28 26l-1 24c0 14 11 26 25 26c8 0 13 9 9 16l-60 97c-5 7 -18 8 -23 2l-71 -105c-4 -4 0 -11 6 -11z" />
    <glyph glyph-name="afii10088" unicode="&#x446;" horiz-adv-x="548" 
d="M354 96l-2 350c0 9 -7 17 -16 18h-4c-9 2 -16 10 -16 19l-1 47c0 10 8 18 18 18h132c11 0 19 -8 19 -19v-48c0 -9 -8 -17 -17 -17h-2c-10 -1 -17 -9 -17 -19l5 -349c0 -10 8 -18 18 -19h39c10 0 18 -8 18 -19v-128c0 -10 -9 -19 -19 -19l-55 1c-10 0 -18 8 -19 18l-1 52
c0 10 -9 18 -19 18l-365 1c-10 0 -18 7 -19 16v40c-1 10 7 20 18 20h13c11 1 19 9 19 19l-1 351c0 10 -9 18 -19 18h-7c-10 0 -18 7 -19 17v46c-1 10 7 19 18 20h142c10 0 19 -8 19 -18l-1 -46c0 -10 -7 -18 -17 -19l-10 -1c-9 -1 -17 -9 -16 -18l4 -351c0 -10 9 -18 19 -18
h142c11 0 19 8 19 19z" />
    <glyph glyph-name="afii10089" unicode="&#x447;" horiz-adv-x="471" 
d="M301 169c0 5 -5 8 -10 7c-40 -12 -39 -19 -80 -20c-58 -2 -97 23 -122 59c-34 49 -34 191 -34 235c0 7 -5 12 -12 13l-9 1c-7 0 -12 6 -12 12l-2 58c0 7 5 13 13 13l127 1c8 0 13 -6 13 -14v-55c-1 -7 -6 -12 -13 -13h-4c-6 0 -11 -5 -12 -12c-2 -33 -7 -130 17 -177
c25 -49 91 -41 121 -33c11 3 18 12 18 23v186c0 7 -5 13 -12 13h-11c-7 1 -12 6 -12 13v55c0 7 6 13 13 13h137c7 0 13 -6 13 -13v-55c1 -7 -5 -13 -12 -13h-12c-7 0 -13 -6 -13 -14l2 -357c0 -9 8 -17 17 -18h13c10 0 18 -9 18 -19v-40c-1 -10 -9 -18 -19 -18l-140 1
c-10 0 -19 8 -19 18l-1 39c0 10 8 19 18 19h4c11 1 19 9 18 20c0 20 -1 60 -1 72z" />
    <glyph glyph-name="afii10090" unicode="&#x448;" horiz-adv-x="648" 
d="M277 93l-4 439c0 9 7 16 16 16l63 -1c8 0 15 -7 15 -15l6 -438c0 -9 7 -16 16 -16l72 -1c9 0 16 8 16 16v355c0 8 -7 15 -15 15l-7 1c-8 1 -15 7 -15 16v52c0 9 7 17 16 16l123 -3c9 0 16 -7 15 -16v-49c0 -8 -7 -15 -15 -16c-9 0 -15 -7 -15 -16l2 -353
c0 -8 7 -15 15 -16h19c8 0 15 -7 16 -15l1 -48c1 -9 -6 -16 -16 -16h-545c-12 -1 -17 5 -17 15v48c0 11 8 14 17 14h6c9 1 15 8 15 16l-3 356c0 8 -7 15 -16 15h-11c-9 0 -16 7 -16 16l-1 52c0 9 7 16 16 16l137 -1c9 0 16 -7 16 -16v-49c0 -9 -7 -16 -16 -16h-7
c-9 0 -16 -7 -16 -16l3 -356c0 -8 7 -15 15 -16l83 -1c9 -1 16 7 16 16z" />
    <glyph glyph-name="afii10091" unicode="&#x449;" horiz-adv-x="641" 
d="M571 467c-8 -1 -14 -8 -14 -16l5 -358c0 -8 6 -15 14 -15l31 -2c8 -1 14 -8 14 -16l-3 -132c-1 -8 -7 -15 -16 -15l-55 1c-8 0 -15 7 -15 15l-1 57c0 8 -7 14 -15 14l-463 1c-9 0 -15 7 -15 15l-1 45c0 9 6 15 15 16h9c9 0 15 7 15 16l-4 355c0 8 -6 14 -13 15l-13 1
c-8 1 -14 8 -14 15l-1 52c-1 8 6 15 15 15l138 2c8 0 15 -7 15 -16l-1 -52c0 -8 -7 -14 -15 -15h-5c-9 0 -15 -7 -15 -15l5 -358c0 -8 7 -15 15 -15h78c9 0 16 7 15 16l-3 438c0 9 6 16 15 16l58 1c9 0 16 -7 16 -15l4 -441c1 -8 8 -15 16 -15h65c9 0 15 7 15 15l-1 359
c0 7 -5 14 -13 15l-11 1c-7 1 -13 7 -13 14l-1 49c0 9 7 16 15 16l129 1c9 0 15 -6 16 -14l2 -50c1 -9 -6 -16 -14 -16z" />
    <glyph glyph-name="afii10092" unicode="&#x44a;" horiz-adv-x="497" 
d="M22 548c64 -2 136 1 204 1c11 0 20 -9 20 -21c1 -49 -4 -67 0 -115c1 -9 8 -16 16 -16c167 -10 227 -127 197 -277c-21 -122 -147 -120 -242 -120h-93c-11 0 -20 10 -20 21v36c0 11 9 21 21 20c19 0 15 18 15 30c0 57 3 231 0 346c0 11 -9 20 -21 21h-19
c-12 1 -22 -8 -22 -20c-1 -11 -1 -22 -1 -31c0 -13 -10 -22 -22 -22l-34 2c-11 0 -20 9 -20 20c-1 36 -1 66 -1 104c0 12 10 22 22 21zM247 284c2 -85 -2 -106 0 -192c0 -9 8 -17 18 -17c70 0 83 31 86 101c-3 85 0 126 -86 126c-10 0 -18 -8 -18 -18z" />
    <glyph glyph-name="afii10093" unicode="&#x44b;" horiz-adv-x="608" 
d="M46 547h158c8 0 14 -7 14 -15c0 -14 0 -21 -1 -36c0 -21 -2 -32 -29 -32c-14 0 -22 -8 -22 -23s-1 -18 1 -38c0 -9 9 -17 18 -17c169 -11 226 -113 196 -266c-21 -122 -154 -118 -242 -121c-26 -1 -51 0 -86 0c-9 0 -16 7 -16 16c0 17 -1 32 -1 47c0 9 8 16 17 16
c10 0 20 3 20 25c-2 153 4 187 0 345c0 8 -7 14 -15 15h-12c-8 1 -14 7 -14 14c-1 13 -1 35 -2 54c0 9 7 16 16 16zM406 15c0 14 -1 31 1 46c1 8 7 13 15 13h1c8 0 15 7 15 16c-2 169 -1 188 -3 360c-1 8 -7 15 -16 14h-13c-8 0 -15 7 -15 15c0 13 -1 41 -1 55
c0 8 6 15 15 15c58 0 97 1 143 1c8 -1 14 -7 15 -15c1 -17 0 -42 -1 -56c0 -9 -7 -15 -15 -15c-9 1 -16 -7 -16 -15c5 -164 -1 -199 4 -359c1 -8 7 -14 15 -14c3 0 7 0 11 -1c8 0 15 -7 15 -15c1 -13 2 -32 1 -46c0 -8 -6 -15 -14 -15c-42 0 -98 0 -143 1c-8 0 -14 7 -14 15
zM169 284c2 -85 -3 -106 0 -193c0 -9 7 -16 17 -16c70 0 85 35 86 106c-3 85 -1 121 -85 121c-10 0 -18 -8 -18 -18z" />
    <glyph glyph-name="afii10094" unicode="&#x44c;" horiz-adv-x="429" 
d="M46 547h166c9 0 16 -7 16 -16l-1 -51c0 -8 -7 -15 -16 -15l-18 -1c-9 0 -16 -7 -16 -16c0 -12 1 -30 1 -45c1 -9 8 -17 18 -17c169 -11 223 -105 196 -266c-21 -122 -153 -118 -242 -121c-26 -1 -62 0 -96 0c-10 0 -17 8 -17 17c0 16 -1 31 -1 44c0 10 8 18 18 18
c16 0 19 8 19 27c0 152 4 186 0 343c-1 8 -7 15 -16 16h-11c-8 1 -14 7 -15 15c0 14 -1 39 -1 51c0 9 7 17 16 17zM180 283c2 -84 -3 -105 -1 -191c1 -10 8 -17 17 -17c75 0 87 29 87 110c0 84 1 117 -85 117c-10 0 -19 -8 -18 -19z" />
    <glyph glyph-name="afii10095" unicode="&#x44d;" horiz-adv-x="443" 
d="M100 155c10 0 19 -6 24 -15c10 -20 8 -69 71 -69c55 0 61 14 79 42c17 29 18 55 20 98c1 14 -10 25 -23 26l-90 2c-20 0 -36 17 -36 37v1c0 20 16 37 36 37c35 0 70 -1 98 -1c11 -1 20 9 20 20c2 88 -22 131 -92 137c-30 3 -84 -22 -84 -60v-11c0 -19 -10 -34 -28 -33
h-36c-18 1 -33 16 -33 34v26c0 15 10 35 19 47c43 59 112 97 206 77c50 -11 152 -55 152 -270c0 -214 -76 -290 -190 -287c-56 -2 -86 3 -125 27c-48 31 -63 75 -67 105c-3 16 11 31 28 31z" />
    <glyph glyph-name="afii10096" unicode="&#x44e;" horiz-adv-x="653" 
d="M591 431c26 -71 23 -194 17 -244c-20 -158 -109 -215 -220 -190c-90 21 -116 119 -123 211c-1 13 -12 24 -26 24l-49 1c-9 0 -16 -7 -15 -16c1 -35 0 -74 1 -126c1 -8 7 -15 15 -15c4 0 8 0 12 -1c8 0 14 -6 14 -14c1 -13 2 -33 1 -47c0 -8 -6 -15 -14 -15
c-42 0 -102 0 -146 1c-9 0 -15 7 -15 15c0 15 -1 25 -1 46c0 7 6 13 14 13h5c9 0 15 7 15 16c-2 169 1 189 -1 361c0 8 -7 15 -15 14h-13c-9 0 -15 7 -16 15c0 13 0 38 -1 52c0 8 7 15 15 15c42 0 82 1 142 1c8 -1 14 -7 15 -15c1 -17 0 -39 -1 -53c0 -9 -7 -15 -15 -15
c-9 1 -16 -7 -16 -15c2 -53 1 -93 2 -128c0 -8 7 -15 15 -15h61c8 0 15 7 16 15c0 142 61 235 179 235c47 0 106 -16 148 -126zM502 149c12 41 31 270 -36 313c-29 18 -59 18 -80 -23c-35 -70 -21 -247 -12 -279c8 -32 24 -76 64 -79c51 -3 55 36 64 68z" />
    <glyph glyph-name="afii10065" unicode="&#x430;" horiz-adv-x="470" 
d="M407 76h13c16 0 20 -14 20 -27v-28c0 -17 -14 -22 -25 -22c-8 0 -80 1 -85 1c-15 0 -26 12 -27 26c-2 11 -2 17 -2 24c0 2 0 5 -1 8c0 4 -3 4 -5 -1c-7 -12 -15 -22 -24 -32c-25 -26 -72 -30 -92 -30c-36 -2 -66 5 -94 33c-48 49 -55 126 -32 183c29 73 94 103 177 104
c23 0 38 0 48 -1c8 -1 15 5 15 13c1 18 2 62 -1 84c-6 43 -16 72 -68 73c-57 1 -71 -36 -77 -44c-3 -4 -3 -26 -3 -32c0 -13 -7 -18 -17 -18h-48c-11 1 -20 6 -19 21c0 0 -1 34 -1 45c0 4 1 7 3 11c9 20 50 88 161 91c135 3 160 -98 166 -199c2 -43 5 -257 5 -260
c0 -14 4 -23 13 -23zM187 84c39 -6 105 28 107 65c1 16 1 54 0 77c0 7 -6 13 -13 13c-27 1 -67 6 -91 -5c-46 -22 -50 -60 -49 -87s14 -59 46 -63z" />
    <glyph glyph-name="afii10097" unicode="&#x44f;" horiz-adv-x="447" 
d="M398 0l-132 -1c-9 0 -17 7 -17 17l-1 43c0 10 7 17 17 18c9 0 16 8 16 17v87c0 8 -6 14 -14 15c-13 0 -3 1 -16 2c-6 0 -12 -3 -15 -9c-22 -41 -76 -148 -93 -181c-3 -6 -9 -9 -15 -9l-90 1c-9 0 -16 7 -17 17v41c-1 10 7 17 16 18l32 1c7 0 12 3 15 9c9 18 29 56 58 117
c3 6 0 13 -7 15c-71 22 -96 77 -94 158c2 108 65 167 133 171c67 4 107 0 174 2c12 0 32 0 48 -1c11 0 21 -10 21 -22v-35c0 -12 -10 -22 -22 -22h-3c-10 0 -18 -8 -18 -17c0 -102 3 -273 -1 -357c0 -10 7 -18 17 -18h8c9 -1 16 -8 16 -17l1 -42c1 -9 -7 -17 -17 -18z
M282 296v161c0 8 -6 14 -14 15c-81 10 -130 -21 -128 -107c2 -85 70 -87 125 -87c9 0 17 8 17 18z" />
    </font>
</defs>
</svg>
