<svg xmlns="http://www.w3.org/2000/svg" version="1.1" xmlns:xlink="http://www.w3.org/1999/xlink" width="250" height="250"><svg version="1.1" id="SvgjsSvg1064" width="250" height="250" viewBox="0 0 250 250" sodipodi:docname="st-amour-knives-single-paw.svg" inkscape:export-filename="st-amour-knives-single-paw.png" inkscape:export-xdpi="81.904762" inkscape:export-ydpi="81.904762" inkscape:version="1.3.2 (091e20e, 2023-11-25, custom)" xmlns:inkscape="http://www.inkscape.org/namespaces/inkscape" xmlns:sodipodi="http://sodipodi.sourceforge.net/DTD/sodipodi-0.dtd" xmlns="http://www.w3.org/2000/svg" xmlns:svg="http://www.w3.org/2000/svg">
  <defs id="SvgjsDefs1063">
    <clipPath clipPathUnits="userSpaceOnUse" id="SvgjsClipPath1062">
      <rect style="fill:#c8c8c8;stroke:#000000;stroke-width:0;stroke-linecap:round;stroke-linejoin:round" id="SvgjsRect1061" width="156.91664" height="278.8288" x="245.03136" y="346.42365"></rect>
    </clipPath>
    <filter style="color-interpolation-filters:sRGB" inkscape:label="Invert" id="SvgjsFilter1060" x="0" y="0" width="1" height="1">
      <feColorMatrix values="1 0 0 0 0 0 1 0 0 0 0 0 1 0 0 -0.21 -0.72 -0.07 2 0 " result="fbSourceGraphic" id="SvgjsFeColorMatrix1059"></feColorMatrix>
      <feColorMatrix result="fbSourceGraphicAlpha" in="fbSourceGraphic" values="0 0 0 -1 0 0 0 0 -1 0 0 0 0 -1 0 0 0 0 1 0" id="SvgjsFeColorMatrix1058"></feColorMatrix>
      <feColorMatrix id="SvgjsFeColorMatrix1057" type="hueRotate" values="180" result="color1" in="fbSourceGraphic"></feColorMatrix>
      <feColorMatrix id="SvgjsFeColorMatrix1056" values="1 0 0 0 0 0 1 0 0 0 0 0 1 0 0 -0.21 -0.72 -0.07 2 0 " result="fbSourceGraphic"></feColorMatrix>
      <feColorMatrix result="fbSourceGraphicAlpha" in="fbSourceGraphic" values="0 0 0 -1 0 0 0 0 -1 0 0 0 0 -1 0 0 0 0 1 0" id="SvgjsFeColorMatrix1055"></feColorMatrix>
      <feColorMatrix id="SvgjsFeColorMatrix1054" values="1 0 0 0 0 0 1 0 0 0 0 0 1 0 0 -0.21 -0.72 -0.07 2 0 " result="fbSourceGraphic" in="fbSourceGraphic"></feColorMatrix>
      <feColorMatrix result="fbSourceGraphicAlpha" in="fbSourceGraphic" values="0 0 0 -1 0 0 0 0 -1 0 0 0 0 -1 0 0 0 0 1 0" id="SvgjsFeColorMatrix1053"></feColorMatrix>
      <feColorMatrix id="SvgjsFeColorMatrix1052" values="1 0 0 0 0 0 1 0 0 0 0 0 1 0 0 0.21 0.72 0.07 1 0 " result="color2" in="fbSourceGraphic"></feColorMatrix>
    </filter>
  </defs>
  <sodipodi:namedview id="SvgjsSodipodi:namedview1051" pagecolor="#ffffff" bordercolor="#000000" borderopacity="0.25" inkscape:showpageshadow="2" inkscape:pageopacity="0.0" inkscape:pagecheckerboard="0" inkscape:deskcolor="#d1d1d1" inkscape:export-bgcolor="#ffffff00" inkscape:zoom="2.6193816" inkscape:cx="221.04454" inkscape:cy="160.53407" inkscape:window-width="2560" inkscape:window-height="1377" inkscape:window-x="1072" inkscape:window-y="270" inkscape:window-maximized="1" inkscape:current-layer="g1"></sodipodi:namedview>
  <g inkscape:groupmode="layer" inkscape:label="Image" id="SvgjsG1050" style="display:inline">
    <g id="SvgjsG1049" transform="matrix(0.74999998,0,0,0.74999998,-405.90482,-126.06459)">
      <path style="display:inline;fill:#000000;fill-opacity:1;stroke:#000000;stroke-width:0;stroke-linecap:round;stroke-linejoin:round" d="m 766.25562,475.06538 c -16.97986,-1.441 -39.03652,-4.4424 -45.74544,-6.22477 -10.43848,-2.77328 -13.23857,-4.41373 -19.59907,-11.48234 -6.35186,-7.059 -8.10851,-10.85589 -11.79911,-25.50324 -4.87145,-19.33389 -5.09318,-21.66404 -2.73291,-28.71958 0.80942,-2.4196 2.14759,-5.61019 2.97369,-7.09019 7.28833,-13.05729 33.79148,-46.43022 45.14752,-56.85002 8.05798,-7.39365 17.58592,-14.05807 24.56518,-17.18241 4.40025,-1.96981 16.5156,-5.79349 19.8167,-6.25428 13.98705,-1.95238 39.8853,-1.66832 50.29929,0.5517 6.55916,1.39827 8.71158,2.60017 13.35518,7.45744 8.19218,8.56916 18.75384,24.51009 24.43604,36.88179 1.33726,2.91163 1.53962,3.77981 1.67419,7.18375 0.16439,4.15898 -0.44312,9.41468 -1.40252,12.13402 -0.79606,2.25619 -1.73023,3.26195 -12.13471,13.06441 -19.93068,18.77743 -22.42064,21.93019 -32.11884,40.66809 -5.65145,10.91926 -8.39628,15.51539 -12.94355,21.67356 -6.15596,8.33679 -16.15693,17.00858 -22.24057,19.28476 -2.08416,0.77981 -3.13249,0.86646 -9.87151,0.81554 -4.14684,-0.0314 -9.40264,-0.215 -11.67956,-0.40823 z" id="SvgjsPath1048"></path>
      <path style="display:inline;fill:#000000;fill-opacity:1;stroke:#000000;stroke-width:0;stroke-linecap:round;stroke-linejoin:round" d="m 762.28537,294.95994 c -2.24389,-1.11178 -4.21931,-2.89132 -12.79618,-11.52735 -12.7169,-12.8046 -15.57186,-15.19595 -54.85311,-45.94581 -22.67506,-17.75031 -31.20189,-25.30007 -34.04397,-30.14293 -1.40987,-2.40239 -0.94075,-2.79799 2.31698,-1.95383 9.29851,2.40949 46.09208,19.32428 59.46403,27.3369 8.00125,4.79442 21.12105,13.57579 28.10339,18.81019 14.53519,10.89649 22.66916,18.8981 25.63196,25.21485 1.10529,2.3565 1.2065,2.90793 0.98784,5.38182 -0.31556,3.57015 -2.09804,8.76968 -3.75819,10.96268 -2.64801,3.49795 -6.45759,4.14025 -11.05275,1.86348 z" id="SvgjsPath1047"></path>
      <path style="display:inline;fill:#000000;fill-opacity:1;stroke:#000000;stroke-width:0;stroke-linecap:round;stroke-linejoin:round" d="m 717.98161,318.06925 c -8.40052,-3.45566 -18.19236,-12.65811 -36.18519,-34.00714 -4.02985,-4.78154 -8.75882,-10.2772 -10.50883,-12.21258 -1.75001,-1.93538 -4.034,-4.63664 -5.07554,-6.0028 -6.88415,-9.02975 -18.54308,-21.78724 -27.15,-29.70819 -11.91564,-10.96597 -21.09256,-18.11507 -37.57278,-29.2703 -10.64404,-7.2048 -13.20424,-9.12291 -13.89194,-10.40787 -0.54748,-1.023 -0.12895,-2.44017 0.72066,-2.44017 2.05951,0 32.36735,14.71699 46.08315,22.37721 46.17587,25.78906 80.7672,54.96785 92.05707,77.6528 3.20741,6.44472 3.76053,8.44075 3.77122,13.60909 0.0106,5.09864 -0.53102,6.67157 -3.16269,9.18579 -2.55734,2.44321 -5.24224,2.80497 -9.08513,1.22416 z" id="SvgjsPath1046"></path>
      <path style="display:inline;fill:#000000;fill-opacity:1;stroke:#000000;stroke-width:0;stroke-linecap:round;stroke-linejoin:round" d="m 687.18433,346.79824 c -9.68815,-2.55785 -21.82678,-9.86749 -36.92379,-22.23476 -22.65036,-18.55487 -53.726,-52.47992 -78.68836,-85.90349 -9.68029,-12.96153 -13.30928,-18.95639 -13.3346,-22.0279 -0.01,-1.16369 0.0335,-1.18742 1.79546,-0.98882 2.88014,0.32463 9.13637,4.7676 18.48002,13.12389 10.71385,9.5817 25.12291,20.91691 47.40137,37.28935 46.91927,34.48096 71.49456,58.30124 74.3898,72.10438 0.6253,2.98114 0.17043,5.02932 -1.53657,6.91876 -2.36116,2.61353 -6.09525,3.16754 -11.58333,1.71859 z" id="SvgjsPath1045"></path>
      <path style="display:inline;fill:#000000;fill-opacity:1;stroke:#000000;stroke-width:0;stroke-linecap:round;stroke-linejoin:round" d="m 662.08417,391.85403 c -5.69176,-0.78255 -14.93861,-5.04262 -20.22768,-9.31899 -4.42749,-3.57977 -17.82043,-16.96498 -25.76589,-25.75102 -10.9865,-12.1488 -33.78795,-40.81013 -45.07437,-56.65832 -15.44297,-21.68474 -23.29799,-35.157 -23.8319,-40.87445 -0.26958,-2.88696 -0.17008,-3.02714 1.6558,-2.33294 1.84932,0.70311 3.96733,2.95557 7.17047,7.62566 7.48735,10.91632 19.65633,24.20249 28.50526,31.12218 2.27692,1.78051 6.93426,5.67656 10.34964,8.65789 12.2422,10.68637 14.91265,12.81405 26.75827,21.31958 11.51639,8.26914 21.27841,16.7942 35.57243,31.06502 17.87438,17.84535 20.13918,21.79351 16.77924,29.25072 -2.24647,4.98591 -5.77583,6.73547 -11.89127,5.89467 z" id="SvgjsPath1044"></path>
      <path style="display:inline;fill:#000000;fill-opacity:1;stroke:#000000;stroke-width:0;stroke-linecap:round;stroke-linejoin:round" d="m 642.69186,434.89779 c -3.61913,-0.40682 -7.39693,-2.07274 -11.8096,-5.20777 -16.07046,-11.41743 -38.42194,-35.5431 -55.80176,-60.23115 -15.68105,-22.27496 -24.76573,-41.13515 -27.52029,-57.13334 -1.44867,-8.41366 0.26071,-6.99286 17.46426,14.5159 5.76669,7.20981 12.52659,15.34429 15.02198,18.07659 10.90773,11.94332 25.38351,24.81513 47.52392,42.25814 21.55719,16.98352 28.51296,23.39565 31.33982,28.89041 1.73931,3.3808 1.39239,10.98013 -0.63929,14.00349 -1.32473,1.97133 -4.61776,3.7935 -7.97199,4.41122 -4.29215,0.79045 -4.2843,0.79002 -7.60705,0.41651 z" id="SvgjsPath1043"></path>
    </g>
  </g>
</svg><style>@media (prefers-color-scheme: light) { :root { filter: none; } }
@media (prefers-color-scheme: dark) { :root { filter: invert(100%); } }
</style></svg>